M48
;Layer_Color=9474304
;FILE_FORMAT=2:5
INCH,LZ
;TYPE=PLATED
T1F00S00C0.01500
T2F00S00C0.03543
T3F00S00C0.03937
T4F00S00C0.05118
%
T01
X001Y001
Y003
X0024Y0054
X0034Y0048
X005
Y001
X003
X007
X009
X011
X013
X015
X017
X019
X021
X0188292Y0049508
X0185108
X0106Y0048
X01025Y00548
X00967Y00499
X009Y0048
X00862Y00514
X008Y0054
X007Y0046
X0228Y00493
X0232
X02592Y00522
X02998Y00437
X03003Y00374
X0306Y002
Y001
X029
X027
X025
X023
X02416Y00599
X024Y0065231
Y0068431
X02353Y00671
X02321Y00728
X02403Y00746
X02462Y0078
X02553Y00743
X02552Y00602
X0276Y00598
X02838Y00596
X02847Y0065231
Y0068431
X02837Y00743
X02894
X02762Y00742
X02732Y00802
X02904Y00605
X02905Y00564
X0306Y009
Y011
Y0146
Y0182
Y021
X029
X027
X025
X023
X02568Y01266
X02093Y01289
X02097Y01209
X0195Y01204
X01949Y01234
X01948Y01268
X01949Y01298
X01935Y01327
X01953Y0136
X01944Y01405
X0180709Y0140991
X01748Y01344
X0175197Y0125197
X01635Y01221
X01629Y01121
X01706Y01089
X01776Y01087
X01871Y01083
X01901
X01933Y01082
X0196457Y0108243
X0212Y01027
X01962Y00717
Y00683
X0150605Y0112205
X0149953Y0121653
X0150002Y0131102
X017Y01465
X01703Y01506
X01812Y01566
X0185Y016
X0195
X01987Y01556
X0207Y016
Y0178
X0195
X0185
X0174
X017Y021
X019
X021
X015
X013
X011
X009
X007
X0072Y0122
X0064
X007Y01087
X0070006Y0104294
X006Y00957
X0062Y0092
Y0076
X00567Y00711
X00797Y00652
X0086Y0066
Y0072
Y0086
X00939Y0089
X0096657Y0084943
X0106Y008
X0102Y0068
X0106Y006
X00894Y00613
X0106Y01
Y012
X009
X005
X0045Y0112536
X0038Y011
X0034Y0106
X00331Y01004
X00329Y00933
X00326Y00865
X00328Y00797
X00353Y00726
X0034Y0066
X0042
X00423Y00705
X00485
X0048Y0066
X00442Y00827
X00443Y00895
X00455Y00973
X0054Y0092
X001Y009
X0005906Y01044
X00167Y01096
X0034Y012
X004Y014
Y017
X0008
X0006Y01803
X0015096Y0186004
X001Y021
X003
X005
X0015226Y0145374
X0006Y014
X0008Y0134
X0024Y0064
T02
X013Y005
X013Y006
X013Y007
Y009
X012
Y01
X012Y011
Y012
X013Y012
Y013
X013Y014
X012
X012Y013
X012Y015
X013Y015
Y016
X013Y017
X012
X012Y016
Y018
X013
X013Y011
X013Y01
T03
X0304498Y0101552
X0304567Y0119252
X0304498Y0139552
X0304567Y0157252
X0304498Y0177552
X0304567Y0195252
T04
X0294742Y0096604
X0294812Y0124269
X0294742Y0134604
X0294812Y0162269
X0294742Y0172604
X0294812Y0200269
M30
