%FSLAX25Y25*%
%MOIN*%
G70*
G01*
G75*
G04 Layer_Physical_Order=3*
G04 Layer_Color=128*
%ADD10C,0.01000*%
%ADD11C,0.01118*%
%ADD12C,0.01118*%
%ADD13R,0.05315X0.01575*%
%ADD14R,0.02559X0.02953*%
%ADD15R,0.20669X0.07874*%
%ADD16R,0.18701X0.02992*%
%ADD17R,0.02756X0.02756*%
%ADD18R,0.02953X0.02559*%
%ADD19R,0.03150X0.03937*%
%ADD20R,0.03543X0.04724*%
%ADD21R,0.07480X0.07480*%
%ADD22R,0.07480X0.06299*%
%ADD23R,0.06299X0.08268*%
%ADD24R,0.05906X0.03347*%
%ADD25R,0.03937X0.07087*%
%ADD26R,0.05709X0.03937*%
%ADD27R,0.02362X0.03150*%
%ADD28R,0.03543X0.09449*%
%ADD29R,0.12992X0.09449*%
%ADD30R,0.02362X0.02362*%
%ADD31R,0.02362X0.02362*%
%ADD32R,0.02362X0.02953*%
%ADD33R,0.01378X0.03347*%
%ADD34O,0.02362X0.07087*%
%ADD35O,0.05512X0.02362*%
%ADD36O,0.07087X0.02362*%
%ADD37O,0.10236X0.02362*%
%ADD38O,0.03347X0.00984*%
%ADD39R,0.06496X0.09370*%
%ADD40R,0.08189X0.08189*%
%ADD41O,0.02559X0.01181*%
%ADD42O,0.01181X0.02559*%
%ADD43R,0.10236X0.03937*%
%ADD44R,0.03937X0.10236*%
%ADD45R,0.03937X0.12992*%
%ADD46R,0.12992X0.03937*%
%ADD47O,0.02165X0.06693*%
%ADD48O,0.06693X0.02165*%
%ADD49C,0.01329*%
%ADD50C,0.02500*%
%ADD51C,0.01500*%
%ADD52C,0.01079*%
%ADD53R,0.36000X0.29000*%
%ADD54R,0.38000X0.29000*%
%ADD55R,0.05906X0.05906*%
%ADD56C,0.05906*%
%ADD57C,0.06000*%
%ADD58C,0.06693*%
%ADD59C,0.02500*%
%ADD60C,0.04000*%
%ADD61C,0.07543*%
G04:AMPARAMS|DCode=62|XSize=95.433mil|YSize=95.433mil|CornerRadius=0mil|HoleSize=0mil|Usage=FLASHONLY|Rotation=0.000|XOffset=0mil|YOffset=0mil|HoleType=Round|Shape=Relief|Width=10mil|Gap=10mil|Entries=4|*
%AMTHD62*
7,0,0,0.09543,0.07543,0.01000,45*
%
%ADD62THD62*%
G04:AMPARAMS|DCode=63|XSize=99.37mil|YSize=99.37mil|CornerRadius=0mil|HoleSize=0mil|Usage=FLASHONLY|Rotation=0.000|XOffset=0mil|YOffset=0mil|HoleType=Round|Shape=Relief|Width=10mil|Gap=10mil|Entries=4|*
%AMTHD63*
7,0,0,0.09937,0.07937,0.01000,45*
%
%ADD63THD63*%
G04:AMPARAMS|DCode=64|XSize=111.181mil|YSize=111.181mil|CornerRadius=0mil|HoleSize=0mil|Usage=FLASHONLY|Rotation=0.000|XOffset=0mil|YOffset=0mil|HoleType=Round|Shape=Relief|Width=10mil|Gap=10mil|Entries=4|*
%AMTHD64*
7,0,0,0.11118,0.09118,0.01000,45*
%
%ADD64THD64*%
%ADD65C,0.07937*%
%ADD66C,0.09118*%
%ADD67C,0.05500*%
D10*
X275000Y70000D02*
X314961D01*
X260000Y55000D02*
X275000Y70000D01*
X175000Y55000D02*
X260000D01*
X175000Y45000D02*
Y55000D01*
Y45000D02*
X314961D01*
X125000Y65000D02*
X140000D01*
Y55000D02*
Y65000D01*
X120000Y55000D02*
X140000D01*
X110000Y45000D02*
X120000Y55000D01*
X0Y45000D02*
X110000D01*
X120000Y65000D02*
X125000D01*
X110000Y75000D02*
X120000Y65000D01*
X110000Y75000D02*
Y120000D01*
X40000D02*
X110000D01*
X37000D02*
X40000D01*
X27000Y110000D02*
X37000Y120000D01*
X27000Y97000D02*
Y110000D01*
X20000Y90000D02*
X27000Y97000D01*
X1000Y90000D02*
X20000D01*
X0D02*
X1000D01*
D60*
X0Y0D02*
Y218504D01*
X314961D01*
Y0D02*
Y218504D01*
X0Y0D02*
X314961D01*
D61*
X120000Y180000D02*
D03*
X120000Y170000D02*
D03*
X120000Y160000D02*
D03*
X130000D02*
D03*
X130000Y170000D02*
D03*
X130000Y150000D02*
D03*
X130000Y140000D02*
D03*
X130000Y130000D02*
D03*
X120000D02*
D03*
X120000Y140000D02*
D03*
X130000Y120000D02*
D03*
X130000Y110000D02*
D03*
X130000Y100000D02*
D03*
X120000D02*
D03*
X120000Y110000D02*
D03*
X130000Y90000D02*
D03*
X120000D02*
D03*
X120000Y150000D02*
D03*
Y120000D02*
D03*
X130000Y70000D02*
D03*
D62*
Y180000D02*
D03*
Y50000D02*
D03*
X130000Y60000D02*
D03*
D65*
X304498Y101552D02*
D03*
X304567Y119252D02*
D03*
X304498Y139552D02*
D03*
X304567Y157252D02*
D03*
X304498Y177552D02*
D03*
X304567Y195252D02*
D03*
D66*
X294812Y124269D02*
D03*
X294742Y96604D02*
D03*
X294812Y162269D02*
D03*
X294742Y134604D02*
D03*
X294812Y200269D02*
D03*
X294742Y172604D02*
D03*
D67*
X240000Y68431D02*
D03*
Y65231D02*
D03*
X284700D02*
D03*
Y68431D02*
D03*
X185000Y160000D02*
D03*
X195000D02*
D03*
X207000D02*
D03*
Y178000D02*
D03*
X195000D02*
D03*
X185000D02*
D03*
X174000D02*
D03*
X255300Y74300D02*
D03*
X289400D02*
D03*
X283700D02*
D03*
X283800Y59600D02*
D03*
X276200Y74200D02*
D03*
X276000Y59800D02*
D03*
X246200Y78000D02*
D03*
X255200Y60200D02*
D03*
X241600Y59900D02*
D03*
X235300Y67100D02*
D03*
X232100Y72800D02*
D03*
X240300Y74600D02*
D03*
X299800Y43700D02*
D03*
X162900Y112100D02*
D03*
X187100Y108300D02*
D03*
X190100D02*
D03*
X177600Y108700D02*
D03*
X196457Y108243D02*
D03*
X193300Y108200D02*
D03*
X150605Y112205D02*
D03*
X212000Y102700D02*
D03*
X209300Y128900D02*
D03*
X149953Y121653D02*
D03*
X150002Y131102D02*
D03*
X163500Y122100D02*
D03*
X195000Y120400D02*
D03*
X175197Y125197D02*
D03*
X194900Y123400D02*
D03*
X174800Y134400D02*
D03*
X194800Y126800D02*
D03*
X180709Y140991D02*
D03*
X194400Y140500D02*
D03*
X6000Y180300D02*
D03*
X195300Y136000D02*
D03*
X194900Y129800D02*
D03*
X193500Y132700D02*
D03*
X170000Y146500D02*
D03*
X170300Y150600D02*
D03*
X6000Y140000D02*
D03*
X10000Y210000D02*
D03*
X30000D02*
D03*
X50000D02*
D03*
X70000D02*
D03*
X90000D02*
D03*
X110000D02*
D03*
X130000D02*
D03*
X150000D02*
D03*
X170000D02*
D03*
X190000D02*
D03*
X210000D02*
D03*
X230000D02*
D03*
X250000D02*
D03*
X270000D02*
D03*
X290000D02*
D03*
X306000D02*
D03*
Y182000D02*
D03*
Y110000D02*
D03*
Y90000D02*
D03*
Y20000D02*
D03*
Y10000D02*
D03*
X290000D02*
D03*
X270000D02*
D03*
X250000D02*
D03*
X230000D02*
D03*
X210000D02*
D03*
X190000D02*
D03*
X170000D02*
D03*
X150000D02*
D03*
X130000D02*
D03*
X110000D02*
D03*
X90000D02*
D03*
X70000D02*
D03*
X50000D02*
D03*
X30000D02*
D03*
X10000D02*
D03*
Y30000D02*
D03*
Y90000D02*
D03*
X40000Y140000D02*
D03*
Y170000D02*
D03*
X8000D02*
D03*
Y134000D02*
D03*
X34000Y120000D02*
D03*
X50000D02*
D03*
X64000Y122000D02*
D03*
X72000D02*
D03*
X90000Y120000D02*
D03*
X106000D02*
D03*
Y100000D02*
D03*
Y80000D02*
D03*
Y60000D02*
D03*
Y48000D02*
D03*
X90000D02*
D03*
X70000Y46000D02*
D03*
X50000Y48000D02*
D03*
X34000D02*
D03*
Y66000D02*
D03*
X32800Y79700D02*
D03*
X33100Y100400D02*
D03*
X24000Y64000D02*
D03*
Y54000D02*
D03*
X42000Y66000D02*
D03*
X48000D02*
D03*
X79700Y65200D02*
D03*
X86000Y66000D02*
D03*
X80000Y54000D02*
D03*
X86200Y51400D02*
D03*
X96700Y49900D02*
D03*
X89400Y61300D02*
D03*
X102500Y54800D02*
D03*
X102000Y68000D02*
D03*
X86000Y72000D02*
D03*
Y86000D02*
D03*
X62000Y76000D02*
D03*
Y92000D02*
D03*
X54000D02*
D03*
X56700Y71100D02*
D03*
X48500Y70500D02*
D03*
X42300D02*
D03*
X35300Y72600D02*
D03*
X32600Y86500D02*
D03*
X32900Y93300D02*
D03*
X34000Y106000D02*
D03*
X38000Y110000D02*
D03*
X45500Y97300D02*
D03*
X44300Y89500D02*
D03*
X44200Y82700D02*
D03*
X306000Y146000D02*
D03*
X5906Y104400D02*
D03*
M02*
