%FSLAX25Y25*%
%MOIN*%
G70*
G01*
G75*
G04 Layer_Physical_Order=1*
G04 Layer_Color=255*
%ADD10C,0.01000*%
%ADD11C,0.01118*%
%ADD12C,0.01118*%
%ADD13R,0.05315X0.01575*%
%ADD14R,0.02559X0.02953*%
%ADD15R,0.20669X0.07874*%
%ADD16R,0.18701X0.02992*%
%ADD17R,0.02756X0.02756*%
%ADD18R,0.02953X0.02559*%
%ADD19R,0.03150X0.03937*%
%ADD20R,0.03543X0.04724*%
%ADD21R,0.07480X0.07480*%
%ADD22R,0.07480X0.06299*%
%ADD23R,0.06299X0.08268*%
%ADD24R,0.05906X0.03347*%
%ADD25R,0.03937X0.07087*%
%ADD26R,0.05709X0.03937*%
%ADD27R,0.02362X0.03150*%
%ADD28R,0.03543X0.09449*%
%ADD29R,0.12992X0.09449*%
%ADD30R,0.02362X0.02362*%
%ADD31R,0.02362X0.02362*%
%ADD32R,0.02362X0.02953*%
%ADD33R,0.01378X0.03347*%
%ADD34O,0.02362X0.07087*%
%ADD35O,0.05512X0.02362*%
%ADD36O,0.07087X0.02362*%
%ADD37O,0.10236X0.02362*%
%ADD38O,0.03347X0.00984*%
%ADD39R,0.06496X0.09370*%
%ADD40R,0.08189X0.08189*%
%ADD41O,0.02559X0.01181*%
%ADD42O,0.01181X0.02559*%
%ADD43R,0.10236X0.03937*%
%ADD44R,0.03937X0.10236*%
%ADD45R,0.03937X0.12992*%
%ADD46R,0.12992X0.03937*%
%ADD47O,0.02165X0.06693*%
%ADD48O,0.06693X0.02165*%
%ADD49C,0.01329*%
%ADD50C,0.02500*%
%ADD51C,0.01500*%
%ADD52C,0.01079*%
%ADD53R,0.36000X0.29000*%
%ADD54R,0.38000X0.29000*%
%ADD55R,0.05906X0.05906*%
%ADD56C,0.05906*%
%ADD57C,0.06000*%
%ADD58C,0.06693*%
%ADD59C,0.02500*%
G36*
X312000Y4000D02*
X4000D01*
Y35417D01*
X10384D01*
Y40354D01*
Y45291D01*
X4000D01*
Y54559D01*
X22251D01*
Y55465D01*
X24893D01*
Y54985D01*
X24893D01*
Y47989D01*
X30830D01*
Y52150D01*
X32177D01*
Y54724D01*
X33177D01*
Y52150D01*
X34858D01*
Y54874D01*
X35516D01*
Y52346D01*
X37295D01*
Y54823D01*
X38295D01*
Y52346D01*
X40075D01*
Y54874D01*
X42075D01*
Y55661D01*
X47689D01*
Y54874D01*
X49689D01*
Y52346D01*
X51468D01*
Y54823D01*
X52469D01*
Y52346D01*
X54248D01*
Y53321D01*
X54726Y53466D01*
X55120Y52876D01*
X55842Y52394D01*
X56693Y52225D01*
X58555D01*
Y54449D01*
X59055D01*
Y54949D01*
X63542D01*
X63472Y55300D01*
X63405Y55399D01*
X63526Y55797D01*
X64399Y56467D01*
X65070Y57340D01*
X65491Y58357D01*
X65498Y58412D01*
X65998D01*
X66005Y58357D01*
X66426Y57340D01*
X67097Y56467D01*
X67970Y55797D01*
X68091Y55399D01*
X68024Y55300D01*
X67954Y54949D01*
X76928D01*
X76858Y55300D01*
X76791Y55399D01*
X76821Y55497D01*
X77014Y55859D01*
X81327D01*
X81338Y55861D01*
X81554Y55771D01*
X81562Y55762D01*
X81558Y55758D01*
X82924Y54592D01*
X84456Y53653D01*
X86115Y52966D01*
X87862Y52547D01*
X89653Y52406D01*
Y52410D01*
X92319D01*
Y51457D01*
X100681D01*
Y56181D01*
Y64543D01*
X100148D01*
Y69733D01*
X95589D01*
Y69867D01*
X95589D01*
Y70367D01*
X97648D01*
Y74713D01*
X97479D01*
Y76228D01*
X98338D01*
Y79590D01*
X97479D01*
Y80558D01*
X98338D01*
Y83921D01*
X98338Y83921D01*
X98338D01*
X98222Y84136D01*
X98305Y84260D01*
X98441Y84943D01*
X98305Y85626D01*
X97918Y86205D01*
X97339Y86592D01*
X96657Y86728D01*
X95974Y86592D01*
X95395Y86205D01*
X95174Y85874D01*
X93020D01*
Y86678D01*
X93614Y87273D01*
X93900Y87216D01*
X94583Y87352D01*
X95162Y87738D01*
X95548Y88317D01*
X95684Y89000D01*
X95548Y89683D01*
X95162Y90262D01*
X94583Y90649D01*
X93900Y90784D01*
X93217Y90649D01*
X92638Y90262D01*
X92251Y89683D01*
X92116Y89000D01*
X92172Y88714D01*
X91753Y88295D01*
X89657D01*
Y85874D01*
X87157D01*
Y85677D01*
X84345D01*
X84083Y85996D01*
X80815D01*
Y84272D01*
X81821D01*
X81919Y83996D01*
X81821Y83720D01*
X80815D01*
Y81496D01*
X80315D01*
Y80996D01*
X76616D01*
X76686Y80645D01*
X76752Y80546D01*
X76632Y80148D01*
X75871Y79564D01*
X75377Y79646D01*
X75195Y79919D01*
X74473Y80401D01*
X74122Y80471D01*
Y75984D01*
Y71498D01*
X74473Y71567D01*
X75195Y72050D01*
X75677Y72771D01*
X75723Y73006D01*
X76191Y73182D01*
X76632Y72844D01*
X77649Y72423D01*
X78740Y72279D01*
X81890D01*
X82981Y72423D01*
X83387Y72591D01*
X87652D01*
Y67867D01*
X89652D01*
Y67733D01*
X89652D01*
Y65560D01*
X91341D01*
Y65060D01*
X91841D01*
Y62387D01*
X92319D01*
Y59590D01*
X89653D01*
X89587Y59581D01*
X88545Y59718D01*
X87513Y60146D01*
X86679Y60786D01*
X86638Y60838D01*
X86642Y60842D01*
X85503Y61777D01*
X84203Y62472D01*
X82793Y62900D01*
X81327Y63044D01*
Y63039D01*
X77014D01*
X76821Y63401D01*
X76791Y63498D01*
X76858Y63598D01*
X76928Y63949D01*
X67954D01*
X68024Y63598D01*
X68091Y63498D01*
X67970Y63101D01*
X67097Y62431D01*
X66426Y61557D01*
X66005Y60540D01*
X65998Y60485D01*
X65498D01*
X65491Y60540D01*
X65070Y61557D01*
X64847Y61848D01*
X65023Y62316D01*
X65418Y62394D01*
X66139Y62876D01*
X66622Y63598D01*
X66691Y63949D01*
X54299D01*
X54199Y63827D01*
X51425D01*
Y64024D01*
X38339D01*
Y63827D01*
X36858D01*
Y64024D01*
X30830D01*
Y69036D01*
X28361D01*
Y63418D01*
X28496D01*
Y62644D01*
X22251D01*
Y63551D01*
X4000D01*
Y72819D01*
X10384D01*
Y77756D01*
Y82693D01*
X4000D01*
Y103241D01*
X4479Y103386D01*
X4644Y103138D01*
X5223Y102752D01*
X5906Y102616D01*
X6588Y102752D01*
X7167Y103138D01*
X7554Y103717D01*
X7690Y104400D01*
X7554Y105083D01*
X7167Y105662D01*
X6925Y105823D01*
Y107374D01*
X7784D01*
Y111130D01*
X4354D01*
X4354Y111130D01*
Y111130D01*
X4028Y111130D01*
X4000Y111158D01*
Y112858D01*
X4028Y112886D01*
X4354Y112886D01*
X4354Y112886D01*
Y112886D01*
X7784D01*
Y113252D01*
X10031D01*
Y112295D01*
X13590D01*
Y116248D01*
X10031D01*
Y115291D01*
X7784D01*
Y116642D01*
X4354D01*
X4354Y116642D01*
Y116642D01*
X4028Y116642D01*
X4000Y116669D01*
Y138982D01*
X4479Y139127D01*
X4738Y138738D01*
X5317Y138352D01*
X6000Y138216D01*
X6683Y138352D01*
X7262Y138738D01*
X7649Y139317D01*
X7784Y140000D01*
X7649Y140683D01*
X7262Y141262D01*
X6925Y141487D01*
Y143004D01*
X7784D01*
Y146760D01*
X4354D01*
X4354Y146760D01*
Y146760D01*
X4028Y146760D01*
X4000Y146787D01*
Y148488D01*
X4028Y148516D01*
X4354Y148516D01*
X4354Y148516D01*
Y148516D01*
X7784D01*
Y148882D01*
X10031D01*
Y147925D01*
X13590D01*
Y151878D01*
X10031D01*
Y150921D01*
X7784D01*
Y152272D01*
X4354D01*
X4354Y152272D01*
Y152272D01*
X4028Y152272D01*
X4000Y152299D01*
Y179282D01*
X4479Y179427D01*
X4738Y179038D01*
X5317Y178651D01*
X6000Y178516D01*
X6683Y178651D01*
X7262Y179038D01*
X7649Y179617D01*
X7784Y180300D01*
X7649Y180983D01*
X7262Y181562D01*
X6925Y181787D01*
Y183634D01*
X7784D01*
Y187390D01*
X4354D01*
X4354Y187390D01*
Y187390D01*
X4028Y187390D01*
X4000Y187417D01*
Y189118D01*
X4028Y189146D01*
X4354Y189146D01*
X4354Y189146D01*
Y189146D01*
X7784D01*
Y189512D01*
X10031D01*
Y188555D01*
X13590D01*
Y192508D01*
X10031D01*
Y191551D01*
X7784D01*
Y192902D01*
X4354D01*
X4354Y192902D01*
Y192902D01*
X4028Y192902D01*
X4000Y192929D01*
Y214000D01*
X312000D01*
Y4000D01*
D02*
G37*
%LPC*%
G36*
X66429Y75996D02*
X63230D01*
X63300Y75645D01*
X63782Y74924D01*
X64503Y74441D01*
X65354Y74272D01*
X66429D01*
Y75996D01*
D02*
G37*
G36*
X297236Y80209D02*
X293587D01*
Y75575D01*
X297236D01*
Y80209D01*
D02*
G37*
G36*
X70628Y75996D02*
X67429D01*
Y74272D01*
X68504D01*
X69355Y74441D01*
X70076Y74924D01*
X70559Y75645D01*
X70628Y75996D01*
D02*
G37*
G36*
X300902Y75016D02*
X297744D01*
Y73728D01*
X300902D01*
Y75016D01*
D02*
G37*
G36*
X305799Y87614D02*
X301559D01*
Y85843D01*
X298236D01*
Y80709D01*
Y75575D01*
X301559D01*
Y73335D01*
X305799D01*
Y77575D01*
X301886D01*
Y79315D01*
X305799D01*
Y83465D01*
Y87614D01*
D02*
G37*
G36*
X22219Y77256D02*
X11384D01*
Y72819D01*
X22219D01*
Y77256D01*
D02*
G37*
G36*
X296744Y75016D02*
X293587D01*
Y73728D01*
X296744D01*
Y75016D01*
D02*
G37*
G36*
X311039Y77575D02*
X306799D01*
Y73335D01*
X311039D01*
Y77575D01*
D02*
G37*
G36*
Y82965D02*
X306799D01*
Y79315D01*
X311039D01*
Y82965D01*
D02*
G37*
G36*
X103562Y81739D02*
X99200D01*
Y80058D01*
Y78409D01*
X103562D01*
Y80058D01*
Y81739D01*
D02*
G37*
G36*
X79815Y83720D02*
X78740D01*
X77889Y83551D01*
X77168Y83069D01*
X76686Y82347D01*
X76616Y81996D01*
X79815D01*
Y83720D01*
D02*
G37*
G36*
X297236Y85843D02*
X293587D01*
Y81209D01*
X297236D01*
Y85843D01*
D02*
G37*
G36*
X103562Y77409D02*
X101881D01*
Y75728D01*
X103562D01*
Y77409D01*
D02*
G37*
G36*
X100881D02*
X99200D01*
Y75728D01*
X100881D01*
Y77409D01*
D02*
G37*
G36*
X22219Y82693D02*
X11384D01*
Y78256D01*
X22219D01*
Y82693D01*
D02*
G37*
G36*
X263968Y77113D02*
X263848Y77089D01*
X263322Y76737D01*
X262970Y76211D01*
X262696Y76377D01*
X262696Y76377D01*
Y76377D01*
X262335Y76618D01*
X261910Y76702D01*
X261484Y76618D01*
X261123Y76377D01*
X260882Y76016D01*
X260798Y75590D01*
Y74213D01*
X260882Y73787D01*
X261123Y73426D01*
X261484Y73185D01*
X261910Y73101D01*
X262335Y73185D01*
X262696Y73426D01*
X262696Y73426D01*
Y73426D01*
X262970Y73592D01*
D01*
D01*
X263322Y73066D01*
X263848Y72714D01*
X263968Y72690D01*
Y74902D01*
Y77113D01*
D02*
G37*
G36*
X188000Y95541D02*
X150000D01*
X149617Y95383D01*
X149459Y95000D01*
Y71784D01*
X133453D01*
Y73453D01*
X126547D01*
Y66547D01*
X133453D01*
Y68216D01*
X149459D01*
Y66000D01*
X149617Y65617D01*
X150000Y65459D01*
X167507D01*
Y64673D01*
X167020D01*
Y54224D01*
X167507D01*
Y51681D01*
X165839D01*
Y51292D01*
X164083D01*
Y52173D01*
X161383D01*
X161147Y52614D01*
X161178Y52661D01*
X161256Y53051D01*
Y54224D01*
X162508D01*
Y64673D01*
X157965D01*
Y54224D01*
X159217D01*
Y53474D01*
X157916Y52173D01*
X155602D01*
Y48614D01*
X156559D01*
Y46661D01*
X155602D01*
Y43102D01*
X159276D01*
X159276Y43102D01*
Y43102D01*
X159555Y43102D01*
X159630Y43028D01*
Y42602D01*
X161606D01*
Y44882D01*
Y47161D01*
X159630D01*
Y46661D01*
X159630D01*
X159555D01*
X159276Y46661D01*
X159276Y46661D01*
Y46661D01*
X158598D01*
Y48614D01*
X159555D01*
Y50638D01*
X159971Y50916D01*
X160130Y50850D01*
Y48614D01*
X161485D01*
X161731Y48246D01*
X162309Y47859D01*
X162992Y47724D01*
X165839D01*
Y47335D01*
X172744D01*
Y51681D01*
X171076D01*
Y54224D01*
X171563D01*
Y64673D01*
X171076D01*
Y65459D01*
X188000D01*
X188383Y65617D01*
X188541Y66000D01*
Y95000D01*
X188383Y95383D01*
X188000Y95541D01*
D02*
G37*
G36*
X60130Y66673D02*
X56693D01*
X55842Y66503D01*
X55120Y66021D01*
X54638Y65300D01*
X54568Y64949D01*
X60130D01*
Y66673D01*
D02*
G37*
G36*
X113507Y69036D02*
X111039D01*
Y63418D01*
X113507D01*
Y69036D01*
D02*
G37*
G36*
X71941Y66673D02*
X70079D01*
X69228Y66503D01*
X68506Y66021D01*
X68024Y65300D01*
X67954Y64949D01*
X71941D01*
Y66673D01*
D02*
G37*
G36*
X64567D02*
X61130D01*
Y64949D01*
X66691D01*
X66622Y65300D01*
X66139Y66021D01*
X65418Y66503D01*
X64567Y66673D01*
D02*
G37*
G36*
X90841Y64560D02*
X89652D01*
Y62387D01*
X90841D01*
Y64560D01*
D02*
G37*
G36*
X270843Y66429D02*
X266248D01*
Y61835D01*
X270843D01*
Y66429D01*
D02*
G37*
G36*
X110039Y69036D02*
X107570D01*
Y63418D01*
X110039D01*
Y69036D01*
D02*
G37*
G36*
X27361D02*
X24893D01*
Y63418D01*
X27361D01*
Y69036D01*
D02*
G37*
G36*
X113507Y75654D02*
X111039D01*
Y70036D01*
X113507D01*
Y75654D01*
D02*
G37*
G36*
X110039D02*
X107570D01*
Y70036D01*
X110039D01*
Y75654D01*
D02*
G37*
G36*
X300902Y72728D02*
X293587D01*
Y71898D01*
X291587D01*
Y71542D01*
X287627D01*
X286843Y72143D01*
X285809Y72571D01*
X284700Y72717D01*
X283591Y72571D01*
X282557Y72143D01*
X281669Y71462D01*
X280988Y70574D01*
X280559Y69540D01*
X280413Y68431D01*
X280559Y67321D01*
X280763Y66831D01*
X280559Y66340D01*
X280413Y65231D01*
X280559Y64121D01*
X280988Y63087D01*
X281669Y62200D01*
X282557Y61518D01*
X283591Y61090D01*
X284700Y60944D01*
X285809Y61090D01*
X286843Y61518D01*
X287627Y62120D01*
X288847D01*
X289083Y61679D01*
X288752Y61183D01*
X288616Y60500D01*
X288752Y59817D01*
X289125Y59258D01*
Y57493D01*
X288851Y57083D01*
X288716Y56400D01*
X288851Y55717D01*
X289238Y55138D01*
X289817Y54751D01*
X290500Y54616D01*
X291183Y54751D01*
X291762Y55138D01*
X292148Y55717D01*
X292284Y56400D01*
X292148Y57083D01*
X291762Y57662D01*
X291674Y57720D01*
Y59258D01*
X292049Y59817D01*
X292180Y60477D01*
X293420Y61718D01*
X294087D01*
Y61705D01*
X300402D01*
Y61764D01*
X301559D01*
Y60646D01*
X298236D01*
Y55512D01*
Y50378D01*
X301559D01*
Y48606D01*
X305799D01*
Y52756D01*
Y56906D01*
X301886D01*
Y58646D01*
X305799D01*
Y63386D01*
X306299D01*
Y63886D01*
X311039D01*
Y68094D01*
Y72335D01*
X301559D01*
Y71898D01*
X300902D01*
Y72728D01*
D02*
G37*
G36*
X73122Y75484D02*
X71398D01*
Y73622D01*
X71567Y72771D01*
X72050Y72050D01*
X72771Y71567D01*
X73122Y71498D01*
Y75484D01*
D02*
G37*
G36*
X270843Y72024D02*
X266248D01*
Y67429D01*
X270843D01*
Y72024D01*
D02*
G37*
G36*
X74803Y66673D02*
X72941D01*
Y64949D01*
X76928D01*
X76858Y65300D01*
X76376Y66021D01*
X75654Y66503D01*
X74803Y66673D01*
D02*
G37*
G36*
X30830Y75654D02*
X28361D01*
Y70036D01*
X30830D01*
Y75654D01*
D02*
G37*
G36*
X27361D02*
X24893D01*
Y70036D01*
X27361D01*
Y75654D01*
D02*
G37*
G36*
X271866Y84146D02*
X270185D01*
Y82465D01*
X271866D01*
Y84146D01*
D02*
G37*
G36*
X119500Y99500D02*
X116079D01*
X116149Y98968D01*
X116547Y98007D01*
X117181Y97181D01*
X118007Y96547D01*
X118968Y96149D01*
X119500Y96079D01*
Y99500D01*
D02*
G37*
G36*
X69343Y95200D02*
X67662D01*
Y93519D01*
X69343D01*
Y95200D01*
D02*
G37*
G36*
Y99500D02*
X64981D01*
Y97819D01*
Y96200D01*
X69343D01*
Y97819D01*
Y99500D01*
D02*
G37*
G36*
X123921D02*
X120500D01*
Y96079D01*
X121032Y96149D01*
X121993Y96547D01*
X122819Y97181D01*
X123453Y98007D01*
X123851Y98968D01*
X123921Y99500D01*
D02*
G37*
G36*
X110039Y98564D02*
X107570D01*
Y92946D01*
X110039D01*
Y98564D01*
D02*
G37*
G36*
X30830D02*
X28361D01*
Y92946D01*
X30830D01*
Y98564D01*
D02*
G37*
G36*
X66662Y95200D02*
X64981D01*
Y93519D01*
X66662D01*
Y95200D01*
D02*
G37*
G36*
X113507Y98564D02*
X111039D01*
Y92946D01*
X113507D01*
Y98564D01*
D02*
G37*
G36*
X110039Y105182D02*
X107570D01*
Y99564D01*
X110039D01*
Y105182D01*
D02*
G37*
G36*
X30830D02*
X28361D01*
Y99564D01*
X30830D01*
Y105182D01*
D02*
G37*
G36*
X173900Y101438D02*
X172219D01*
Y99757D01*
X173900D01*
Y101438D01*
D02*
G37*
G36*
X113507Y105182D02*
X111039D01*
Y99564D01*
X113507D01*
Y105182D01*
D02*
G37*
G36*
X303998Y101052D02*
X300529D01*
X300601Y100508D01*
X301004Y99535D01*
X301645Y98699D01*
X302480Y98058D01*
X303453Y97655D01*
X303998Y97583D01*
Y101052D01*
D02*
G37*
G36*
X130000Y103482D02*
X129099Y103364D01*
X128259Y103016D01*
X127538Y102462D01*
X126984Y101741D01*
X126636Y100901D01*
X126517Y100000D01*
X126636Y99099D01*
X126984Y98259D01*
X127538Y97537D01*
X128259Y96984D01*
X129099Y96636D01*
X130000Y96517D01*
X130901Y96636D01*
X131741Y96984D01*
X132463Y97537D01*
X133016Y98259D01*
X133364Y99099D01*
X133483Y100000D01*
X133364Y100901D01*
X133016Y101741D01*
X132463Y102462D01*
X131741Y103016D01*
X130901Y103364D01*
X130000Y103482D01*
D02*
G37*
G36*
X27361Y105182D02*
X24893D01*
Y99564D01*
X27361D01*
Y105182D01*
D02*
G37*
G36*
X308466Y101052D02*
X304998D01*
Y97583D01*
X305542Y97655D01*
X306515Y98058D01*
X307350Y98699D01*
X307992Y99535D01*
X308395Y100508D01*
X308466Y101052D01*
D02*
G37*
G36*
X27361Y98564D02*
X24893D01*
Y92946D01*
X27361D01*
Y98564D01*
D02*
G37*
G36*
X269185Y86827D02*
X267504D01*
Y85146D01*
X269185D01*
Y86827D01*
D02*
G37*
G36*
X79815Y85996D02*
X76616D01*
X76686Y85645D01*
X77168Y84924D01*
X77889Y84442D01*
X78740Y84272D01*
X79815D01*
Y85996D01*
D02*
G37*
G36*
X119500Y89500D02*
X116079D01*
X116149Y88968D01*
X116547Y88007D01*
X117181Y87181D01*
X118007Y86547D01*
X118968Y86149D01*
X119500Y86079D01*
Y89500D01*
D02*
G37*
G36*
X271866Y86827D02*
X270185D01*
Y85146D01*
X271866D01*
Y86827D01*
D02*
G37*
G36*
X100881Y84421D02*
X99200D01*
Y82739D01*
X100881D01*
Y84421D01*
D02*
G37*
G36*
X75846Y86508D02*
X74122D01*
Y82521D01*
X74473Y82591D01*
X75195Y83073D01*
X75677Y83795D01*
X75846Y84646D01*
Y86508D01*
D02*
G37*
G36*
X311039Y87614D02*
X306799D01*
Y83965D01*
X311039D01*
Y87614D01*
D02*
G37*
G36*
X103562Y84421D02*
X101881D01*
Y82739D01*
X103562D01*
Y84421D01*
D02*
G37*
G36*
X119500Y93921D02*
X118968Y93851D01*
X118007Y93453D01*
X117181Y92819D01*
X116547Y91993D01*
X116149Y91032D01*
X116079Y90500D01*
X119500D01*
Y93921D01*
D02*
G37*
G36*
X74122Y91494D02*
Y87508D01*
X75846D01*
Y89370D01*
X75677Y90221D01*
X75195Y90943D01*
X74473Y91425D01*
X74122Y91494D01*
D02*
G37*
G36*
X294742Y100484D02*
X293738Y100352D01*
X292802Y99964D01*
X291999Y99348D01*
X291382Y98544D01*
X290994Y97608D01*
X290862Y96604D01*
X290994Y95600D01*
X291382Y94665D01*
X291999Y93861D01*
X292802Y93244D01*
X293738Y92857D01*
X294742Y92725D01*
X295746Y92857D01*
X296682Y93244D01*
X297485Y93861D01*
X298102Y94665D01*
X298489Y95600D01*
X298621Y96604D01*
X298489Y97608D01*
X298102Y98544D01*
X297485Y99348D01*
X296682Y99964D01*
X295746Y100352D01*
X294742Y100484D01*
D02*
G37*
G36*
X120500Y93921D02*
Y90500D01*
X123921D01*
X123851Y91032D01*
X123453Y91993D01*
X122819Y92819D01*
X121993Y93453D01*
X121032Y93851D01*
X120500Y93921D01*
D02*
G37*
G36*
X130000Y93483D02*
X129099Y93364D01*
X128259Y93016D01*
X127538Y92462D01*
X126984Y91741D01*
X126636Y90901D01*
X126517Y90000D01*
X126636Y89099D01*
X126984Y88259D01*
X127538Y87537D01*
X128259Y86984D01*
X129099Y86636D01*
X130000Y86518D01*
X130901Y86636D01*
X131741Y86984D01*
X132463Y87537D01*
X133016Y88259D01*
X133364Y89099D01*
X133483Y90000D01*
X133364Y90901D01*
X133016Y91741D01*
X132463Y92462D01*
X131741Y93016D01*
X130901Y93364D01*
X130000Y93483D01*
D02*
G37*
G36*
X123921Y89500D02*
X120500D01*
Y86079D01*
X121032Y86149D01*
X121993Y86547D01*
X122819Y87181D01*
X123453Y88007D01*
X123851Y88968D01*
X123921Y89500D01*
D02*
G37*
G36*
X81890Y88720D02*
X80815D01*
Y86996D01*
X84014D01*
X83944Y87347D01*
X83462Y88069D01*
X82741Y88551D01*
X81890Y88720D01*
D02*
G37*
G36*
X79815D02*
X78740D01*
X77889Y88551D01*
X77168Y88069D01*
X76686Y87347D01*
X76616Y86996D01*
X79815D01*
Y88720D01*
D02*
G37*
G36*
X240300Y76384D02*
X239617Y76249D01*
X239038Y75862D01*
X238651Y75283D01*
X238516Y74600D01*
X238651Y73917D01*
X239038Y73338D01*
X239383Y73108D01*
X239269Y72621D01*
X238891Y72571D01*
X237857Y72143D01*
X236969Y71462D01*
X236288Y70574D01*
X235859Y69540D01*
X235713Y68431D01*
X235859Y67321D01*
X236063Y66831D01*
X235859Y66340D01*
X235713Y65231D01*
X235859Y64121D01*
X236288Y63087D01*
X236969Y62200D01*
X237857Y61518D01*
X238891Y61090D01*
X240000Y60944D01*
X241109Y61090D01*
X242143Y61518D01*
X242927Y62120D01*
X243488D01*
Y60811D01*
X247850D01*
Y62120D01*
X248713D01*
Y61311D01*
X252075D01*
Y62071D01*
X254907D01*
X255800Y61953D01*
X257776D01*
X257968Y61979D01*
X258465D01*
X258890Y62063D01*
X258929Y62089D01*
X259402Y62151D01*
X260238Y62498D01*
X260653Y62220D01*
Y61835D01*
X265248D01*
Y66929D01*
Y72024D01*
X260653D01*
Y71638D01*
X260238Y71361D01*
X259402Y71707D01*
X258929Y71769D01*
X258890Y71795D01*
X258465Y71880D01*
X257968D01*
X257776Y71905D01*
X255800D01*
X254907Y71787D01*
X252272D01*
Y73433D01*
X248319D01*
Y71542D01*
X247744D01*
Y73433D01*
X243791D01*
Y73204D01*
X243329Y73013D01*
X242027Y74314D01*
X242084Y74600D01*
X241949Y75283D01*
X241562Y75862D01*
X240983Y76249D01*
X240300Y76384D01*
D02*
G37*
G36*
X168791Y44504D02*
X165339D01*
Y42331D01*
X168791D01*
Y44504D01*
D02*
G37*
G36*
X22219Y45291D02*
X11384D01*
Y40854D01*
X22219D01*
Y45291D01*
D02*
G37*
G36*
X177847Y44504D02*
X174394D01*
Y42331D01*
X177847D01*
Y44504D01*
D02*
G37*
G36*
X173244D02*
X169791D01*
Y42331D01*
X173244D01*
Y44504D01*
D02*
G37*
G36*
X105511Y42461D02*
X98515D01*
Y39993D01*
X105511D01*
Y42461D01*
D02*
G37*
G36*
X90082D02*
X84464D01*
Y39993D01*
X90082D01*
Y42461D01*
D02*
G37*
G36*
X113507D02*
X111039D01*
Y39993D01*
X113507D01*
Y42461D01*
D02*
G37*
G36*
X110039D02*
X106511D01*
Y39993D01*
X110039D01*
Y42461D01*
D02*
G37*
G36*
X164583Y44382D02*
X162606D01*
Y42602D01*
X164583D01*
Y44382D01*
D02*
G37*
G36*
X225213Y44504D02*
X221760D01*
Y42331D01*
X225213D01*
Y44504D01*
D02*
G37*
G36*
X30830Y46989D02*
X28361D01*
Y43461D01*
X31889D01*
Y45930D01*
X30830D01*
Y46989D01*
D02*
G37*
G36*
X27361D02*
X24893D01*
Y45930D01*
Y43461D01*
X27361D01*
Y46989D01*
D02*
G37*
G36*
X211311Y44504D02*
X207858D01*
Y42331D01*
X211311D01*
Y44504D01*
D02*
G37*
G36*
X182299D02*
X178847D01*
Y42331D01*
X182299D01*
Y44504D01*
D02*
G37*
G36*
X220760D02*
X217307D01*
Y42331D01*
X220760D01*
Y44504D01*
D02*
G37*
G36*
X215764D02*
X212311D01*
Y42331D01*
X215764D01*
Y44504D01*
D02*
G37*
G36*
X83464Y42461D02*
X77846D01*
Y39993D01*
X83464D01*
Y42461D01*
D02*
G37*
G36*
X177847Y41331D02*
X174394D01*
Y39158D01*
X177847D01*
Y41331D01*
D02*
G37*
G36*
X173244D02*
X169791D01*
Y39158D01*
X173244D01*
Y41331D01*
D02*
G37*
G36*
X211311D02*
X207858D01*
Y39158D01*
X211311D01*
Y41331D01*
D02*
G37*
G36*
X182299D02*
X178847D01*
Y39158D01*
X182299D01*
Y41331D01*
D02*
G37*
G36*
X22219Y39854D02*
X11384D01*
Y35417D01*
X22219D01*
Y39854D01*
D02*
G37*
G36*
X271465Y50894D02*
X267905D01*
Y46941D01*
X270219D01*
X286779Y30381D01*
X287110Y30160D01*
X287500Y30083D01*
X304421D01*
Y28240D01*
X308965D01*
Y33965D01*
X304421D01*
Y32122D01*
X287922D01*
X271465Y48580D01*
Y50894D01*
D02*
G37*
G36*
X168791Y41331D02*
X165339D01*
Y39158D01*
X168791D01*
Y41331D01*
D02*
G37*
G36*
X307193Y39870D02*
X303043D01*
Y38421D01*
X301722D01*
X301562Y38662D01*
X300983Y39048D01*
X300300Y39184D01*
X299617Y39048D01*
X299038Y38662D01*
X298652Y38083D01*
X298516Y37400D01*
X298652Y36717D01*
X299038Y36138D01*
X299617Y35752D01*
X300300Y35616D01*
X300983Y35752D01*
X301562Y36138D01*
X301725Y36382D01*
X303043D01*
Y34933D01*
X307193D01*
Y39870D01*
D02*
G37*
G36*
X39885Y42461D02*
X32889D01*
Y39993D01*
X39885D01*
Y42461D01*
D02*
G37*
G36*
X31889D02*
X28361D01*
Y39993D01*
X31889D01*
Y42461D01*
D02*
G37*
G36*
X60554D02*
X54936D01*
Y39993D01*
X60554D01*
Y42461D01*
D02*
G37*
G36*
X53936D02*
X48318D01*
Y39993D01*
X53936D01*
Y42461D01*
D02*
G37*
G36*
X220760Y41331D02*
X217307D01*
Y39158D01*
X220760D01*
Y41331D01*
D02*
G37*
G36*
X215764D02*
X212311D01*
Y39158D01*
X215764D01*
Y41331D01*
D02*
G37*
G36*
X27361Y42461D02*
X24893D01*
Y39993D01*
X27361D01*
Y42461D01*
D02*
G37*
G36*
X225213Y41331D02*
X221760D01*
Y39158D01*
X225213D01*
Y41331D01*
D02*
G37*
G36*
X39885Y45930D02*
X32889D01*
Y43461D01*
X39885D01*
Y45930D01*
D02*
G37*
G36*
X311039Y56906D02*
X306799D01*
Y53256D01*
X311039D01*
Y56906D01*
D02*
G37*
G36*
X76928Y53949D02*
X72941D01*
Y52225D01*
X74803D01*
X75654Y52394D01*
X76376Y52876D01*
X76858Y53598D01*
X76928Y53949D01*
D02*
G37*
G36*
X205528Y58555D02*
X203256D01*
Y53331D01*
X205528D01*
Y58555D01*
D02*
G37*
G36*
X202256D02*
X199984D01*
Y53331D01*
X202256D01*
Y58555D01*
D02*
G37*
G36*
X297236Y55012D02*
X293587D01*
Y50378D01*
X297236D01*
Y55012D01*
D02*
G37*
G36*
X265961Y51000D02*
X264280D01*
Y49319D01*
X265961D01*
Y51000D01*
D02*
G37*
G36*
X71941Y53949D02*
X67954D01*
X68024Y53598D01*
X68506Y52876D01*
X69228Y52394D01*
X70079Y52225D01*
X71941D01*
Y53949D01*
D02*
G37*
G36*
X63542D02*
X59555D01*
Y52225D01*
X61417D01*
X62268Y52394D01*
X62990Y52876D01*
X63472Y53598D01*
X63542Y53949D01*
D02*
G37*
G36*
X205528Y64780D02*
X203256D01*
Y59555D01*
X205528D01*
Y64780D01*
D02*
G37*
G36*
X202256D02*
X199984D01*
Y59555D01*
X202256D01*
Y64780D01*
D02*
G37*
G36*
X275932Y62590D02*
X274220D01*
Y61469D01*
X274410D01*
X275030Y61592D01*
X275556Y61944D01*
X275908Y62470D01*
X275932Y62590D01*
D02*
G37*
G36*
X273220D02*
X271509D01*
X271533Y62470D01*
X271885Y61944D01*
X272411Y61592D01*
X273031Y61469D01*
X273220D01*
Y62590D01*
D02*
G37*
G36*
X130000Y63482D02*
X129099Y63364D01*
X128259Y63016D01*
X127537Y62462D01*
X126984Y61741D01*
X126636Y60901D01*
X126517Y60000D01*
X126636Y59099D01*
X126984Y58259D01*
X127537Y57537D01*
X128259Y56984D01*
X129099Y56636D01*
X130000Y56517D01*
X130901Y56636D01*
X131741Y56984D01*
X132463Y57537D01*
X133016Y58259D01*
X133364Y59099D01*
X133483Y60000D01*
X133364Y60901D01*
X133016Y61741D01*
X132463Y62462D01*
X131741Y63016D01*
X130901Y63364D01*
X130000Y63482D01*
D02*
G37*
G36*
X297236Y60646D02*
X293587D01*
Y56012D01*
X297236D01*
Y60646D01*
D02*
G37*
G36*
X311039Y62886D02*
X306799D01*
Y58646D01*
X311039D01*
Y62886D01*
D02*
G37*
G36*
X230000Y95541D02*
X194000D01*
X193617Y95383D01*
X193459Y95000D01*
Y66000D01*
X193617Y65617D01*
X194000Y65459D01*
X210027D01*
Y64280D01*
X209539D01*
Y53831D01*
X210027D01*
Y51681D01*
X208358D01*
Y47335D01*
X215264D01*
Y51681D01*
X213595D01*
Y53831D01*
X214083D01*
Y64280D01*
X213595D01*
Y65459D01*
X230000D01*
X230383Y65617D01*
X230541Y66000D01*
Y71206D01*
X230651Y71266D01*
X231080Y71008D01*
Y61100D01*
X231158Y60710D01*
X231379Y60379D01*
X236879Y54879D01*
X237210Y54658D01*
X237600Y54580D01*
X260700D01*
X261090Y54658D01*
X261421Y54879D01*
X261636Y55095D01*
X262043Y54926D01*
X262043Y54926D01*
X262098Y54903D01*
Y54201D01*
X261372Y53474D01*
X260442D01*
X259883Y53848D01*
X259200Y53984D01*
X258517Y53848D01*
X257938Y53462D01*
X257552Y52883D01*
X257416Y52200D01*
X257552Y51517D01*
X257938Y50938D01*
X258517Y50551D01*
X259200Y50416D01*
X259883Y50551D01*
X260442Y50925D01*
X261598D01*
Y49319D01*
X263280D01*
Y51000D01*
X263156D01*
X262964Y51462D01*
X263365Y51862D01*
X265461D01*
Y52778D01*
X265646Y53056D01*
X265743Y53543D01*
Y55364D01*
X266221Y55509D01*
X266307Y55381D01*
X267905Y53782D01*
Y51468D01*
X271465D01*
Y55421D01*
X269151D01*
X268047Y56525D01*
Y57831D01*
X268055Y57842D01*
X268057Y57854D01*
X268557D01*
X268559Y57842D01*
X268800Y57481D01*
X269161Y57240D01*
X269587Y57156D01*
X270012Y57240D01*
X270373Y57481D01*
X270614Y57842D01*
X270698Y58268D01*
Y59646D01*
X270614Y60071D01*
X270373Y60432D01*
X270012Y60673D01*
X269587Y60758D01*
X269161Y60673D01*
X268800Y60432D01*
X268559Y60071D01*
X268557Y60060D01*
X268057D01*
X268055Y60071D01*
X267814Y60432D01*
X267453Y60673D01*
X267028Y60758D01*
X266602Y60673D01*
X266241Y60432D01*
X266000Y60071D01*
X265998Y60060D01*
X265498D01*
X265496Y60071D01*
X265255Y60432D01*
X264894Y60673D01*
X264469Y60758D01*
X264043Y60673D01*
X263682Y60432D01*
X263441Y60071D01*
X263439Y60060D01*
X262939D01*
X262937Y60071D01*
X262696Y60432D01*
X262335Y60673D01*
X261910Y60758D01*
X261484Y60673D01*
X261123Y60432D01*
X260882Y60071D01*
X260798Y59646D01*
Y58268D01*
X260882Y57842D01*
X260890Y57831D01*
Y57232D01*
X260278Y56620D01*
X238022D01*
X233120Y61522D01*
Y71377D01*
X233362Y71538D01*
X233749Y72117D01*
X233884Y72800D01*
X233749Y73483D01*
X233362Y74062D01*
X232783Y74449D01*
X232100Y74584D01*
X231417Y74449D01*
X230982Y74158D01*
X230541Y74393D01*
Y95000D01*
X230383Y95383D01*
X230000Y95541D01*
D02*
G37*
G36*
X311039Y52256D02*
X306799D01*
Y48606D01*
X311039D01*
Y52256D01*
D02*
G37*
G36*
X110039Y46989D02*
X107570D01*
Y45930D01*
X106511D01*
Y43461D01*
X110039D01*
Y46989D01*
D02*
G37*
G36*
X105511Y45930D02*
X98515D01*
Y43461D01*
X105511D01*
Y45930D01*
D02*
G37*
G36*
X308965Y46563D02*
X304421D01*
Y44720D01*
X301223D01*
X301062Y44962D01*
X300483Y45349D01*
X299800Y45484D01*
X299117Y45349D01*
X298538Y44962D01*
X298151Y44383D01*
X298016Y43700D01*
X298151Y43017D01*
X298538Y42438D01*
X299117Y42052D01*
X299800Y41916D01*
X300483Y42052D01*
X301062Y42438D01*
X301224Y42681D01*
X304421D01*
Y40839D01*
X308965D01*
Y46563D01*
D02*
G37*
G36*
X113507Y46989D02*
X111039D01*
Y43461D01*
X113507D01*
Y46989D01*
D02*
G37*
G36*
X60554Y45930D02*
X54936D01*
Y43461D01*
X60554D01*
Y45930D01*
D02*
G37*
G36*
X53936D02*
X48318D01*
Y43461D01*
X53936D01*
Y45930D01*
D02*
G37*
G36*
X90082D02*
X84464D01*
Y43461D01*
X90082D01*
Y45930D01*
D02*
G37*
G36*
X83464D02*
X77846D01*
Y43461D01*
X83464D01*
Y45930D01*
D02*
G37*
G36*
X180618Y64673D02*
X176075D01*
Y54224D01*
X176562D01*
Y51681D01*
X174894D01*
Y47335D01*
X181799D01*
Y47724D01*
X185108D01*
X185200Y47742D01*
X185292Y47724D01*
X188292D01*
X188975Y47859D01*
X189554Y48246D01*
X189941Y48825D01*
X190076Y49508D01*
X189941Y50191D01*
X189554Y50770D01*
X188975Y51156D01*
X188292Y51292D01*
X185292D01*
X185200Y51274D01*
X185108Y51292D01*
X181799D01*
Y51681D01*
X180131D01*
Y54224D01*
X180618D01*
Y64673D01*
D02*
G37*
G36*
X223138Y64280D02*
X218595D01*
Y53831D01*
X219082D01*
Y51681D01*
X217807D01*
Y47335D01*
X224713D01*
Y47516D01*
X232000D01*
X232683Y47651D01*
X233262Y48038D01*
X233648Y48617D01*
X233784Y49300D01*
X233648Y49983D01*
X233262Y50562D01*
X232683Y50949D01*
X232000Y51084D01*
X224713D01*
Y51681D01*
X222650D01*
Y53831D01*
X223138D01*
Y64280D01*
D02*
G37*
G36*
X113507Y54985D02*
X111039D01*
Y47989D01*
X113507D01*
Y54985D01*
D02*
G37*
G36*
X110039D02*
X107570D01*
Y47989D01*
X110039D01*
Y54985D01*
D02*
G37*
G36*
X130000Y53483D02*
X129099Y53364D01*
X128259Y53016D01*
X127538Y52463D01*
X126984Y51741D01*
X126636Y50901D01*
X126517Y50000D01*
X126636Y49099D01*
X126984Y48259D01*
X127538Y47537D01*
X128259Y46984D01*
X129099Y46636D01*
X130000Y46518D01*
X130901Y46636D01*
X131741Y46984D01*
X132463Y47537D01*
X133016Y48259D01*
X133364Y49099D01*
X133483Y50000D01*
X133364Y50901D01*
X133016Y51741D01*
X132463Y52463D01*
X131741Y53016D01*
X130901Y53364D01*
X130000Y53483D01*
D02*
G37*
G36*
X164583Y47161D02*
X162606D01*
Y45382D01*
X164583D01*
Y47161D01*
D02*
G37*
G36*
X265961Y48319D02*
X264280D01*
Y46638D01*
X265961D01*
Y48319D01*
D02*
G37*
G36*
X263280D02*
X261598D01*
Y46638D01*
X263280D01*
Y48319D01*
D02*
G37*
G36*
X176581Y101438D02*
X174900D01*
Y99757D01*
X176581D01*
Y101438D01*
D02*
G37*
G36*
X303998Y139052D02*
X300529D01*
X300601Y138508D01*
X301004Y137535D01*
X301645Y136699D01*
X302480Y136058D01*
X303453Y135655D01*
X303998Y135583D01*
Y139052D01*
D02*
G37*
G36*
X219504Y135646D02*
X217823D01*
Y133965D01*
X219504D01*
Y135646D01*
D02*
G37*
G36*
X206059Y140445D02*
X197484D01*
X197546Y140132D01*
X198006Y139443D01*
X198196Y139317D01*
X198293Y138826D01*
X198017Y138413D01*
X197894Y137795D01*
X198017Y137178D01*
X198367Y136654D01*
X198642Y136470D01*
Y135970D01*
X198367Y135787D01*
X198286Y135665D01*
X197277D01*
X197277Y135665D01*
D01*
X197084Y136000D01*
X197084Y136000D01*
X197084D01*
X196949Y136683D01*
X196562Y137262D01*
X195983Y137648D01*
X195300Y137784D01*
X194617Y137648D01*
X194038Y137262D01*
X193651Y136683D01*
X193516Y136000D01*
X193651Y135317D01*
X193954Y134865D01*
X193676Y134449D01*
X193500Y134484D01*
X192817Y134348D01*
X192238Y133962D01*
X191851Y133383D01*
X191716Y132700D01*
X191851Y132017D01*
X192238Y131438D01*
X192817Y131052D01*
X193095Y130996D01*
X193286Y130534D01*
X193252Y130483D01*
X193116Y129800D01*
X193252Y129117D01*
X193638Y128538D01*
Y128538D01*
X193538Y128062D01*
X193538Y128062D01*
X193538D01*
X193151Y127483D01*
X193016Y126800D01*
X193151Y126117D01*
X193538Y125538D01*
X193870Y125317D01*
Y124817D01*
X193638Y124662D01*
X193252Y124083D01*
X193116Y123400D01*
X193252Y122717D01*
X193638Y122138D01*
X193738Y122072D01*
Y121662D01*
X193351Y121083D01*
X193216Y120400D01*
X193351Y119717D01*
X193738Y119138D01*
X194317Y118752D01*
X195000Y118616D01*
X195683Y118752D01*
X196262Y119138D01*
X196588Y119170D01*
X197581Y118177D01*
X197912Y117956D01*
X198283Y117882D01*
X198367Y117757D01*
X198890Y117407D01*
X199508Y117284D01*
X204035D01*
X204653Y117407D01*
X205139Y117732D01*
X205509Y117534D01*
X205580Y117487D01*
Y108000D01*
X205658Y107610D01*
X205879Y107279D01*
X210256Y102902D01*
X210216Y102700D01*
X210351Y102017D01*
X210738Y101438D01*
X210799Y101398D01*
X210653Y100920D01*
X192122D01*
X187005Y106037D01*
X187026Y106142D01*
X187142Y106524D01*
X187783Y106651D01*
X188362Y107038D01*
X188838D01*
X189417Y106651D01*
X190100Y106516D01*
X190783Y106651D01*
X191362Y107038D01*
X191417Y107121D01*
X191917D01*
X192038Y106938D01*
X192617Y106552D01*
X193300Y106416D01*
X193983Y106552D01*
X194562Y106938D01*
X194643Y107060D01*
X195143D01*
X195195Y106982D01*
X195774Y106595D01*
X196457Y106459D01*
X197140Y106595D01*
X197718Y106982D01*
X198105Y107561D01*
X198241Y108243D01*
X198105Y108926D01*
X197718Y109505D01*
X197529Y109632D01*
Y110132D01*
X197598Y110178D01*
X197948Y110701D01*
X198070Y111319D01*
Y115847D01*
X197948Y116464D01*
X197598Y116988D01*
X197074Y117337D01*
X196457Y117460D01*
X195839Y117337D01*
X195316Y116988D01*
X195132Y116712D01*
X194632D01*
X194448Y116988D01*
X193925Y117337D01*
X193307Y117460D01*
X192690Y117337D01*
X192166Y116988D01*
X191982Y116712D01*
X191482D01*
X191298Y116988D01*
X190775Y117337D01*
X190157Y117460D01*
X189540Y117337D01*
X189016Y116988D01*
X188833Y116712D01*
X188333D01*
X188149Y116988D01*
X187625Y117337D01*
X187008Y117460D01*
X186390Y117337D01*
X185867Y116988D01*
X185683Y116712D01*
X185183D01*
X184999Y116988D01*
X184476Y117337D01*
X183858Y117460D01*
X183241Y117337D01*
X182717Y116988D01*
X182533Y116712D01*
X182033D01*
X181850Y116988D01*
X181326Y117337D01*
X180709Y117460D01*
X180091Y117337D01*
X179568Y116988D01*
X179384Y116712D01*
X178884D01*
X178700Y116988D01*
X178177Y117337D01*
X177559Y117460D01*
X176942Y117337D01*
X176418Y116988D01*
X176234Y116712D01*
X175734D01*
X175550Y116988D01*
X175027Y117337D01*
X174409Y117460D01*
X173792Y117337D01*
X173268Y116988D01*
X172919Y116464D01*
X172796Y115847D01*
Y111319D01*
X172919Y110701D01*
X173268Y110178D01*
X173390Y110097D01*
Y108343D01*
X172719D01*
X172719Y108343D01*
X172719D01*
X172719D01*
X172719Y108343D01*
D01*
X172327Y108615D01*
X172384Y108900D01*
X172248Y109583D01*
X171862Y110162D01*
X171283Y110548D01*
X170600Y110684D01*
X169917Y110548D01*
X169338Y110162D01*
X168951Y109583D01*
X168816Y108900D01*
X168951Y108217D01*
X169338Y107638D01*
X169917Y107252D01*
X170600Y107116D01*
X170886Y107173D01*
X171979Y106079D01*
X172310Y105858D01*
X172700Y105780D01*
X172719D01*
Y104981D01*
X176081D01*
Y107080D01*
X176522Y107316D01*
X176917Y107052D01*
X177600Y106916D01*
X178283Y107052D01*
X178862Y107438D01*
X179211Y107960D01*
X179689Y107815D01*
Y106991D01*
X179767Y106601D01*
X179988Y106270D01*
X189079Y97179D01*
X189410Y96958D01*
X189800Y96880D01*
X251378D01*
X266008Y82250D01*
Y77005D01*
X265567Y76770D01*
X265089Y77089D01*
X264968Y77113D01*
Y74902D01*
Y72690D01*
X265089Y72714D01*
X265615Y73066D01*
X265967Y73592D01*
D01*
D01*
X266241Y73426D01*
X266241Y73426D01*
Y73426D01*
X266602Y73185D01*
X267028Y73101D01*
X267453Y73185D01*
X267814Y73426D01*
X268055Y73787D01*
X268057Y73798D01*
X268557D01*
X268559Y73787D01*
X268800Y73426D01*
X269161Y73185D01*
X269587Y73101D01*
X270012Y73185D01*
X270373Y73426D01*
X270614Y73787D01*
X270698Y74213D01*
Y75590D01*
X270614Y76016D01*
X270606Y76028D01*
Y78240D01*
X271366D01*
Y78933D01*
X271845Y79079D01*
X271938Y78938D01*
X272517Y78552D01*
X273200Y78416D01*
X273883Y78552D01*
X274462Y78938D01*
X274849Y79517D01*
X274984Y80200D01*
X274849Y80883D01*
X274462Y81462D01*
X273883Y81849D01*
X273200Y81984D01*
X272517Y81849D01*
X271938Y81462D01*
X271845Y81321D01*
X271366Y81467D01*
Y81602D01*
X268047D01*
Y82465D01*
X269185D01*
Y84146D01*
X267152D01*
X267042Y84100D01*
X252724Y98418D01*
X252915Y98880D01*
X267178D01*
X279180Y86878D01*
Y72822D01*
X275586Y69228D01*
X274847D01*
X274835Y69236D01*
X274824Y69238D01*
Y69738D01*
X274835Y69740D01*
X275196Y69981D01*
X275437Y70342D01*
X275521Y70768D01*
X275437Y71193D01*
X275196Y71554D01*
X274835Y71795D01*
X274410Y71880D01*
X273031D01*
X272606Y71795D01*
X272245Y71554D01*
X272004Y71193D01*
X271920Y70768D01*
X272004Y70342D01*
X272245Y69981D01*
X272606Y69740D01*
X272617Y69738D01*
Y69238D01*
X272606Y69236D01*
X272245Y68995D01*
X272004Y68634D01*
X271920Y68209D01*
X272004Y67783D01*
X272245Y67422D01*
X272606Y67181D01*
X272617Y67179D01*
Y66679D01*
X272606Y66677D01*
X272245Y66436D01*
X272004Y66075D01*
X271920Y65650D01*
X272004Y65224D01*
X272245Y64863D01*
X272245Y64863D01*
X272245D01*
X272411Y64589D01*
D01*
D01*
X271885Y64237D01*
X271533Y63711D01*
X271509Y63591D01*
X275932D01*
X275908Y63711D01*
X275556Y64237D01*
X275030Y64589D01*
D01*
D01*
X275196Y64863D01*
X275196Y64863D01*
X275196D01*
X275437Y65224D01*
X275521Y65650D01*
X275437Y66075D01*
X275196Y66436D01*
X274835Y66677D01*
X274824Y66679D01*
Y66835D01*
X275177Y67189D01*
X276009D01*
X276399Y67267D01*
X276730Y67488D01*
X280921Y71679D01*
X281142Y72010D01*
X281220Y72400D01*
Y87300D01*
X281142Y87690D01*
X280921Y88021D01*
X268321Y100621D01*
X267990Y100842D01*
X267600Y100920D01*
X213347D01*
X213201Y101398D01*
X213262Y101438D01*
X213649Y102017D01*
X213784Y102700D01*
X213649Y103383D01*
X213262Y103962D01*
X212683Y104349D01*
X212000Y104484D01*
X211631Y104411D01*
X207620Y108422D01*
Y120002D01*
X208098Y120148D01*
X208438Y119638D01*
X209017Y119252D01*
X209700Y119116D01*
X209986Y119173D01*
X210327Y118831D01*
Y117118D01*
X214280D01*
Y120677D01*
X211667D01*
X211484Y120900D01*
X211349Y121583D01*
X211207Y121795D01*
X211442Y122236D01*
X214280D01*
Y125795D01*
X213323D01*
Y127059D01*
X214280D01*
Y130421D01*
X210917D01*
Y130421D01*
X210173Y130421D01*
X209983Y130549D01*
X209300Y130684D01*
X208617Y130549D01*
X208038Y130162D01*
X207877Y129920D01*
X206600D01*
X206210Y129842D01*
X205879Y129621D01*
X205733Y129403D01*
X205255D01*
X205189Y129469D01*
X205176Y129488D01*
X205157Y129500D01*
X204902Y129756D01*
Y130171D01*
X205176Y130355D01*
X205526Y130878D01*
X205649Y131496D01*
X205526Y132114D01*
X205176Y132637D01*
X204902Y132821D01*
Y133321D01*
X205176Y133505D01*
X205526Y134028D01*
X205649Y134646D01*
X205526Y135263D01*
X205176Y135787D01*
X204902Y135970D01*
Y136470D01*
X205176Y136654D01*
X205521Y137169D01*
X210327D01*
Y136409D01*
X211579D01*
Y135146D01*
X210917D01*
Y131783D01*
X214280D01*
Y135146D01*
X213618D01*
Y136409D01*
X214280D01*
Y139969D01*
X210327D01*
Y139209D01*
X205910D01*
X205675Y139649D01*
X205997Y140132D01*
X206059Y140445D01*
D02*
G37*
G36*
X308466Y139052D02*
X304998D01*
Y135583D01*
X305542Y135655D01*
X306515Y136058D01*
X307350Y136699D01*
X307992Y137535D01*
X308395Y138508D01*
X308466Y139052D01*
D02*
G37*
G36*
X153437Y135327D02*
X151756D01*
Y133646D01*
X153437D01*
Y135327D01*
D02*
G37*
G36*
X294742Y138484D02*
X293738Y138352D01*
X292802Y137964D01*
X291999Y137348D01*
X291382Y136544D01*
X290994Y135608D01*
X290862Y134604D01*
X290994Y133600D01*
X291382Y132665D01*
X291999Y131861D01*
X292802Y131244D01*
X293738Y130857D01*
X294742Y130725D01*
X295746Y130857D01*
X296682Y131244D01*
X297485Y131861D01*
X298102Y132665D01*
X298489Y133600D01*
X298621Y134604D01*
X298489Y135608D01*
X298102Y136544D01*
X297485Y137348D01*
X296682Y137964D01*
X295746Y138352D01*
X294742Y138484D01*
D02*
G37*
G36*
X216823Y135646D02*
X215142D01*
Y133965D01*
X216823D01*
Y135646D01*
D02*
G37*
G36*
X156118Y135327D02*
X154437D01*
Y133646D01*
X156118D01*
Y135327D01*
D02*
G37*
G36*
X303998Y143521D02*
X303453Y143449D01*
X302480Y143046D01*
X301645Y142405D01*
X301004Y141569D01*
X300601Y140596D01*
X300529Y140052D01*
X303998D01*
Y143521D01*
D02*
G37*
G36*
X130000Y143482D02*
X129099Y143364D01*
X128259Y143016D01*
X127537Y142462D01*
X126984Y141741D01*
X126636Y140901D01*
X126517Y140000D01*
X126636Y139099D01*
X126984Y138259D01*
X127537Y137537D01*
X128259Y136984D01*
X129099Y136636D01*
X130000Y136517D01*
X130901Y136636D01*
X131741Y136984D01*
X132463Y137537D01*
X133016Y138259D01*
X133364Y139099D01*
X133483Y140000D01*
X133364Y140901D01*
X133016Y141741D01*
X132463Y142462D01*
X131741Y143016D01*
X130901Y143364D01*
X130000Y143482D01*
D02*
G37*
G36*
X211803Y142807D02*
X209827D01*
Y141028D01*
X211803D01*
Y142807D01*
D02*
G37*
G36*
X304998Y143521D02*
Y140052D01*
X308466D01*
X308395Y140596D01*
X307992Y141569D01*
X307350Y142405D01*
X306515Y143046D01*
X305542Y143449D01*
X304998Y143521D01*
D02*
G37*
G36*
X259949Y140854D02*
X253240D01*
Y135917D01*
X259949D01*
Y140854D01*
D02*
G37*
G36*
X214779Y145587D02*
X212803D01*
Y143307D01*
Y141028D01*
X214779D01*
Y141453D01*
X214854Y141527D01*
X215133Y141528D01*
X215133Y141527D01*
Y141528D01*
X215811D01*
Y139969D01*
X214854D01*
Y136409D01*
X218807D01*
Y137366D01*
X232965D01*
Y135917D01*
X239673D01*
Y140854D01*
X232965D01*
Y139405D01*
X218807D01*
Y139969D01*
X217850D01*
Y141528D01*
X218807D01*
Y145087D01*
X215133D01*
X215133Y145087D01*
Y145087D01*
X214854Y145087D01*
X214779Y145161D01*
Y145587D01*
D02*
G37*
G36*
X120000Y143482D02*
X119099Y143364D01*
X118259Y143016D01*
X117537Y142462D01*
X116984Y141741D01*
X116636Y140901D01*
X116517Y140000D01*
X116636Y139099D01*
X116984Y138259D01*
X117537Y137537D01*
X118259Y136984D01*
X119099Y136636D01*
X120000Y136517D01*
X120901Y136636D01*
X121741Y136984D01*
X122462Y137537D01*
X123016Y138259D01*
X123364Y139099D01*
X123483Y140000D01*
X123364Y140901D01*
X123016Y141741D01*
X122462Y142462D01*
X121741Y143016D01*
X120901Y143364D01*
X120000Y143482D01*
D02*
G37*
G36*
X156118Y140051D02*
X151756D01*
Y138370D01*
X151756D01*
X151756Y138008D01*
X151756D01*
Y136327D01*
X156118D01*
Y138008D01*
X156118D01*
X156118Y138206D01*
Y138370D01*
X156118D01*
D01*
Y140051D01*
D02*
G37*
G36*
X150002Y132887D02*
X149320Y132751D01*
X148741Y132364D01*
X148354Y131785D01*
X148218Y131102D01*
X148354Y130420D01*
X148741Y129841D01*
X149320Y129454D01*
X150002Y129318D01*
X150685Y129454D01*
X151264Y129841D01*
X151426Y130083D01*
X152453D01*
Y129323D01*
X156405D01*
Y132882D01*
X152453D01*
Y132122D01*
X151426D01*
X151264Y132364D01*
X150685Y132751D01*
X150002Y132887D01*
D02*
G37*
G36*
X105511Y128607D02*
X98515D01*
Y126139D01*
X105511D01*
Y128607D01*
D02*
G37*
G36*
X90082D02*
X84464D01*
Y126139D01*
X90082D01*
Y128607D01*
D02*
G37*
G36*
X113507D02*
X111039D01*
Y126139D01*
X113507D01*
Y128607D01*
D02*
G37*
G36*
X110039D02*
X106511D01*
Y126139D01*
X110039D01*
Y128607D01*
D02*
G37*
G36*
X53936D02*
X48318D01*
Y126139D01*
X53936D01*
Y128607D01*
D02*
G37*
G36*
X39885D02*
X32889D01*
Y126139D01*
X39885D01*
Y128607D01*
D02*
G37*
G36*
X83464D02*
X77846D01*
Y126139D01*
X83464D01*
Y128607D01*
D02*
G37*
G36*
X60554D02*
X54936D01*
Y126139D01*
X60554D01*
Y128607D01*
D02*
G37*
G36*
X156118Y128559D02*
X154437D01*
Y126878D01*
X156118D01*
Y128559D01*
D02*
G37*
G36*
X153437D02*
X151756D01*
Y126878D01*
X153437D01*
Y128559D01*
D02*
G37*
G36*
X219504Y132965D02*
X215142D01*
Y131283D01*
X215142D01*
X215142Y130921D01*
X215142D01*
Y129240D01*
X219504D01*
Y130921D01*
X219504D01*
X219504Y131283D01*
X219504Y131283D01*
Y131283D01*
Y132965D01*
D02*
G37*
G36*
X239673Y134161D02*
X232965D01*
Y129224D01*
X239673D01*
Y134161D01*
D02*
G37*
G36*
X130000Y133483D02*
X129099Y133364D01*
X128259Y133016D01*
X127538Y132463D01*
X126984Y131741D01*
X126636Y130901D01*
X126517Y130000D01*
X126636Y129099D01*
X126984Y128259D01*
X127538Y127538D01*
X128259Y126984D01*
X129099Y126636D01*
X130000Y126517D01*
X130901Y126636D01*
X131741Y126984D01*
X132463Y127538D01*
X133016Y128259D01*
X133364Y129099D01*
X133483Y130000D01*
X133364Y130901D01*
X133016Y131741D01*
X132463Y132463D01*
X131741Y133016D01*
X130901Y133364D01*
X130000Y133483D01*
D02*
G37*
G36*
X120000D02*
X119099Y133364D01*
X118259Y133016D01*
X117537Y132463D01*
X116984Y131741D01*
X116636Y130901D01*
X116517Y130000D01*
X116636Y129099D01*
X116984Y128259D01*
X117537Y127538D01*
X118259Y126984D01*
X119099Y126636D01*
X120000Y126517D01*
X120901Y126636D01*
X121741Y126984D01*
X122462Y127538D01*
X123016Y128259D01*
X123364Y129099D01*
X123483Y130000D01*
X123364Y130901D01*
X123016Y131741D01*
X122462Y132463D01*
X121741Y133016D01*
X120901Y133364D01*
X120000Y133483D01*
D02*
G37*
G36*
X219504Y128240D02*
X217823D01*
Y126559D01*
X219504D01*
Y128240D01*
D02*
G37*
G36*
X216823D02*
X215142D01*
Y126559D01*
X216823D01*
Y128240D01*
D02*
G37*
G36*
X153437Y142732D02*
X151756D01*
Y141051D01*
X153437D01*
Y142732D01*
D02*
G37*
G36*
X303998Y177052D02*
X300529D01*
X300601Y176508D01*
X301004Y175535D01*
X301645Y174699D01*
X302480Y174058D01*
X303453Y173655D01*
X303998Y173583D01*
Y177052D01*
D02*
G37*
G36*
X208087Y170685D02*
X206405D01*
Y169004D01*
X208087D01*
Y170685D01*
D02*
G37*
G36*
X130000Y183483D02*
X129099Y183364D01*
X128259Y183016D01*
X127538Y182463D01*
X126984Y181741D01*
X126636Y180901D01*
X126517Y180000D01*
X126636Y179099D01*
X126984Y178259D01*
X127538Y177538D01*
X128259Y176984D01*
X129099Y176636D01*
X129232Y176619D01*
X129200Y176120D01*
X125322D01*
X123453Y177989D01*
Y183453D01*
X116547D01*
Y181020D01*
X104500D01*
X104110Y180942D01*
X103779Y180721D01*
X66843Y143785D01*
X66622Y143454D01*
X66544Y143064D01*
Y119481D01*
X65381D01*
Y116119D01*
X66544D01*
Y114880D01*
X65587D01*
Y111320D01*
X69540D01*
Y114880D01*
X68583D01*
Y116119D01*
X68743D01*
Y119481D01*
X68583D01*
Y142641D01*
X104922Y178980D01*
X116547D01*
Y176547D01*
X122011D01*
X124179Y174379D01*
X124510Y174158D01*
X124900Y174080D01*
X141878D01*
X157937Y158021D01*
Y147055D01*
X156980D01*
Y144820D01*
X156821Y144754D01*
X156405Y145031D01*
Y147055D01*
X154092D01*
X134379Y166768D01*
X134048Y166989D01*
X133658Y167067D01*
X132622D01*
X132463Y167537D01*
X133016Y168259D01*
X133364Y169099D01*
X133483Y170000D01*
X133364Y170901D01*
X133016Y171741D01*
X132463Y172462D01*
X131741Y173016D01*
X130901Y173364D01*
X130000Y173482D01*
X129099Y173364D01*
X128259Y173016D01*
X127537Y172462D01*
X126984Y171741D01*
X126636Y170901D01*
X126517Y170000D01*
X126636Y169099D01*
X126984Y168259D01*
X127537Y167537D01*
X127378Y167067D01*
X124375D01*
X123065Y168377D01*
X123364Y169099D01*
X123483Y170000D01*
X123364Y170901D01*
X123016Y171741D01*
X122462Y172462D01*
X121741Y173016D01*
X120901Y173364D01*
X120000Y173482D01*
X119099Y173364D01*
X118259Y173016D01*
X117537Y172462D01*
X116984Y171741D01*
X116636Y170901D01*
X116517Y170000D01*
X116636Y169099D01*
X116984Y168259D01*
X117537Y167537D01*
X118259Y166984D01*
X119099Y166636D01*
X120000Y166517D01*
X120901Y166636D01*
X121623Y166935D01*
X123232Y165326D01*
X123563Y165105D01*
X123953Y165028D01*
X133235D01*
X152453Y145810D01*
Y143496D01*
X154744D01*
X155021Y143080D01*
X154877Y142732D01*
X154437D01*
Y141051D01*
X156118D01*
Y141491D01*
X156580Y141683D01*
X156980Y141282D01*
Y138870D01*
X158901D01*
X159801Y137970D01*
X159609Y137508D01*
X156980D01*
Y134146D01*
X157937D01*
Y132882D01*
X156980D01*
Y129323D01*
X159511D01*
X159702Y128861D01*
X158901Y128059D01*
X156980D01*
Y124697D01*
X157937D01*
Y123433D01*
X156980D01*
Y119874D01*
X160933D01*
Y123433D01*
X159976D01*
Y124697D01*
X160343D01*
Y126617D01*
X161052Y127327D01*
X165609D01*
X165690Y127205D01*
X165965Y127022D01*
Y126522D01*
X165690Y126338D01*
X165340Y125814D01*
X165217Y125197D01*
X165340Y124579D01*
X165690Y124056D01*
X165965Y123872D01*
Y123372D01*
X165690Y123188D01*
X165609Y123067D01*
X164959D01*
X164762Y123362D01*
X164183Y123749D01*
X163500Y123884D01*
X162817Y123749D01*
X162238Y123362D01*
X161852Y122783D01*
X161716Y122100D01*
X161852Y121417D01*
X162238Y120838D01*
X162817Y120451D01*
X163500Y120316D01*
X164183Y120451D01*
X164762Y120838D01*
X164888Y121028D01*
X165409D01*
X165535Y120610D01*
X165519Y120526D01*
X165329Y120399D01*
X164869Y119710D01*
X164807Y119398D01*
X173382D01*
X173320Y119710D01*
X172860Y120399D01*
X172670Y120526D01*
X172573Y121016D01*
X172849Y121430D01*
X172972Y122047D01*
X172849Y122665D01*
X172499Y123188D01*
X172224Y123372D01*
Y123872D01*
X172499Y124056D01*
X172580Y124177D01*
X173773D01*
X173935Y123935D01*
X174514Y123548D01*
X175197Y123413D01*
X175880Y123548D01*
X176459Y123935D01*
X176845Y124514D01*
X176981Y125197D01*
X176845Y125880D01*
X176459Y126459D01*
X175880Y126845D01*
X175197Y126981D01*
X174514Y126845D01*
X173935Y126459D01*
X173773Y126216D01*
X172580D01*
X172499Y126338D01*
X172224Y126522D01*
Y127022D01*
X172499Y127205D01*
X172849Y127729D01*
X172972Y128347D01*
X172849Y128964D01*
X172499Y129488D01*
X172224Y129671D01*
Y130171D01*
X172499Y130355D01*
X172849Y130878D01*
X172972Y131496D01*
X172849Y132114D01*
X172499Y132637D01*
X172224Y132821D01*
Y133321D01*
X172499Y133505D01*
X172580Y133626D01*
X173212D01*
X173538Y133138D01*
X174117Y132752D01*
X174800Y132616D01*
X175483Y132752D01*
X176062Y133138D01*
X176449Y133717D01*
X176584Y134400D01*
X176449Y135083D01*
X176062Y135662D01*
X175483Y136048D01*
X174800Y136184D01*
X174117Y136048D01*
X173544Y135665D01*
X172580D01*
X172499Y135787D01*
X172224Y135970D01*
Y136470D01*
X172499Y136654D01*
X172849Y137178D01*
X172972Y137795D01*
X172849Y138413D01*
X172499Y138936D01*
X172224Y139120D01*
Y139620D01*
X172499Y139804D01*
X172849Y140327D01*
X172972Y140945D01*
X172849Y141562D01*
X172499Y142086D01*
X171976Y142436D01*
X171358Y142559D01*
X166831D01*
X166213Y142436D01*
X165690Y142086D01*
X165609Y141964D01*
X163710D01*
X160933Y144741D01*
Y147055D01*
X159976D01*
Y158443D01*
X159899Y158834D01*
X159678Y159164D01*
X143021Y175821D01*
X142690Y176042D01*
X142300Y176120D01*
X130800D01*
X130768Y176619D01*
X130901Y176636D01*
X131741Y176984D01*
X132463Y177538D01*
X133016Y178259D01*
X133364Y179099D01*
X133483Y180000D01*
X133364Y180901D01*
X133016Y181741D01*
X132463Y182463D01*
X131741Y183016D01*
X130901Y183364D01*
X130000Y183483D01*
D02*
G37*
G36*
X308466Y177052D02*
X304998D01*
Y173583D01*
X305542Y173655D01*
X306515Y174058D01*
X307350Y174699D01*
X307992Y175535D01*
X308395Y176508D01*
X308466Y177052D01*
D02*
G37*
G36*
X208087Y168004D02*
X206405D01*
Y166323D01*
X208087D01*
Y168004D01*
D02*
G37*
G36*
X174303D02*
X172622D01*
Y166323D01*
X174303D01*
Y168004D01*
D02*
G37*
G36*
Y170685D02*
X172622D01*
Y169004D01*
X174303D01*
Y170685D01*
D02*
G37*
G36*
X294742Y176484D02*
X293738Y176352D01*
X292802Y175964D01*
X291999Y175348D01*
X291382Y174544D01*
X290994Y173608D01*
X290862Y172604D01*
X290994Y171600D01*
X291382Y170665D01*
X291999Y169861D01*
X292802Y169244D01*
X293738Y168857D01*
X294742Y168725D01*
X295746Y168857D01*
X296682Y169244D01*
X297485Y169861D01*
X298102Y170665D01*
X298489Y171600D01*
X298621Y172604D01*
X298489Y173608D01*
X298102Y174544D01*
X297485Y175348D01*
X296682Y175964D01*
X295746Y176352D01*
X294742Y176484D01*
D02*
G37*
G36*
X299130Y199769D02*
X295311D01*
Y195951D01*
X295946Y196034D01*
X297004Y196472D01*
X297911Y197169D01*
X298608Y198077D01*
X299046Y199134D01*
X299130Y199769D01*
D02*
G37*
G36*
X294311D02*
X290493D01*
X290577Y199134D01*
X291015Y198077D01*
X291711Y197169D01*
X292619Y196472D01*
X293677Y196034D01*
X294311Y195951D01*
Y199769D01*
D02*
G37*
G36*
X295311Y204587D02*
Y200769D01*
X299130D01*
X299046Y201404D01*
X298608Y202461D01*
X297911Y203369D01*
X297004Y204066D01*
X295946Y204503D01*
X295311Y204587D01*
D02*
G37*
G36*
X294311D02*
X293677Y204503D01*
X292619Y204066D01*
X291711Y203369D01*
X291015Y202461D01*
X290577Y201404D01*
X290493Y200769D01*
X294311D01*
Y204587D01*
D02*
G37*
G36*
X304998Y181521D02*
Y178052D01*
X308466D01*
X308395Y178596D01*
X307992Y179569D01*
X307350Y180405D01*
X306515Y181046D01*
X305542Y181449D01*
X304998Y181521D01*
D02*
G37*
G36*
X303998D02*
X303453Y181449D01*
X302480Y181046D01*
X301645Y180405D01*
X301004Y179569D01*
X300601Y178596D01*
X300529Y178052D01*
X303998D01*
Y181521D01*
D02*
G37*
G36*
X304567Y198782D02*
X303654Y198662D01*
X302802Y198309D01*
X302071Y197748D01*
X301510Y197017D01*
X301157Y196165D01*
X301037Y195252D01*
X301157Y194338D01*
X301510Y193487D01*
X302071Y192755D01*
X302802Y192194D01*
X303654Y191842D01*
X304567Y191721D01*
X305481Y191842D01*
X306332Y192194D01*
X307064Y192755D01*
X307625Y193487D01*
X307977Y194338D01*
X308098Y195252D01*
X307977Y196165D01*
X307625Y197017D01*
X307064Y197748D01*
X306332Y198309D01*
X305481Y198662D01*
X304567Y198782D01*
D02*
G37*
G36*
X13590Y187980D02*
X10031D01*
Y184028D01*
X13590D01*
Y184375D01*
X14031Y184610D01*
X14413Y184355D01*
X15096Y184220D01*
X15779Y184355D01*
X16358Y184742D01*
X16745Y185321D01*
X16880Y186004D01*
X16745Y186687D01*
X16358Y187266D01*
X15779Y187652D01*
X15096Y187788D01*
X14413Y187652D01*
X14031Y187397D01*
X13590Y187633D01*
Y187980D01*
D02*
G37*
G36*
X295311Y166587D02*
Y162769D01*
X299130D01*
X299046Y163404D01*
X298608Y164461D01*
X297911Y165369D01*
X297004Y166066D01*
X295946Y166504D01*
X295311Y166587D01*
D02*
G37*
G36*
X130000Y153482D02*
X129099Y153364D01*
X128259Y153016D01*
X127538Y152462D01*
X126984Y151741D01*
X126636Y150901D01*
X126517Y150000D01*
X126636Y149099D01*
X126984Y148259D01*
X127538Y147538D01*
X128259Y146984D01*
X129099Y146636D01*
X130000Y146518D01*
X130901Y146636D01*
X131741Y146984D01*
X132463Y147538D01*
X133016Y148259D01*
X133364Y149099D01*
X133483Y150000D01*
X133364Y150901D01*
X133016Y151741D01*
X132463Y152462D01*
X131741Y153016D01*
X130901Y153364D01*
X130000Y153482D01*
D02*
G37*
G36*
X120000Y153482D02*
X119099Y153364D01*
X118259Y153016D01*
X117537Y152462D01*
X116984Y151741D01*
X116636Y150901D01*
X116517Y150000D01*
X116636Y149099D01*
X116984Y148259D01*
X117537Y147537D01*
X118259Y146984D01*
X119099Y146636D01*
X120000Y146517D01*
X120901Y146636D01*
X121741Y146984D01*
X122462Y147537D01*
X123016Y148259D01*
X123364Y149099D01*
X123483Y150000D01*
X123364Y150901D01*
X123016Y151741D01*
X122462Y152462D01*
X121741Y153016D01*
X120901Y153364D01*
X120000Y153482D01*
D02*
G37*
G36*
X200662Y152600D02*
X198981D01*
Y150919D01*
X200662D01*
Y152600D01*
D02*
G37*
G36*
X205000Y176000D02*
X176000D01*
Y170685D01*
X175303D01*
Y168504D01*
Y166323D01*
X176000D01*
Y162000D01*
X189138D01*
Y149746D01*
X189016Y149665D01*
X188833Y149390D01*
X188333D01*
X188149Y149665D01*
X187625Y150014D01*
X187008Y150137D01*
X186390Y150014D01*
X185867Y149665D01*
X185683Y149390D01*
X185183D01*
X184999Y149665D01*
X184878Y149746D01*
Y151619D01*
X185543D01*
Y154981D01*
X184261D01*
X182928Y156314D01*
X182984Y156600D01*
X182849Y157283D01*
X182462Y157862D01*
X181883Y158248D01*
X181200Y158384D01*
X180517Y158248D01*
X179938Y157862D01*
X179551Y157283D01*
X179416Y156600D01*
X179551Y155917D01*
X179318Y155481D01*
X176957D01*
Y153800D01*
X179138D01*
Y152800D01*
X176957D01*
Y151694D01*
X176516Y151458D01*
X176390Y151542D01*
X176000Y151620D01*
X175304D01*
X175272Y151626D01*
X173547D01*
X173515Y151620D01*
X171723D01*
X171562Y151862D01*
X170983Y152249D01*
X170300Y152384D01*
X169617Y152249D01*
X169038Y151862D01*
X168651Y151283D01*
X168516Y150600D01*
X168651Y149917D01*
X169038Y149338D01*
X169617Y148951D01*
X170300Y148816D01*
X170983Y148951D01*
X171562Y149338D01*
X171723Y149580D01*
X172684D01*
X172919Y149141D01*
X172796Y148524D01*
Y147520D01*
X171423D01*
X171262Y147762D01*
X170683Y148149D01*
X170000Y148284D01*
X169317Y148149D01*
X168738Y147762D01*
X168351Y147183D01*
X168216Y146500D01*
X168351Y145817D01*
X168738Y145238D01*
X169317Y144852D01*
X170000Y144716D01*
X170683Y144852D01*
X171262Y145238D01*
X171423Y145480D01*
X172796D01*
Y143996D01*
X172919Y143378D01*
X173268Y142855D01*
X173792Y142505D01*
X174409Y142382D01*
X175027Y142505D01*
X175550Y142855D01*
X175734Y143130D01*
X176234D01*
X176418Y142855D01*
X176942Y142505D01*
X177559Y142382D01*
X178177Y142505D01*
X178700Y142855D01*
X178884Y143130D01*
X179230D01*
X179584Y142777D01*
X179584Y142344D01*
X179447Y142253D01*
X179060Y141674D01*
X178924Y140991D01*
X179060Y140308D01*
X179447Y139730D01*
X180026Y139343D01*
X180709Y139207D01*
X181392Y139343D01*
X181970Y139730D01*
X182357Y140308D01*
X182493Y140991D01*
X182357Y141674D01*
X181970Y142253D01*
X181834Y142344D01*
X181834Y142777D01*
X182187Y143130D01*
X182533D01*
X182717Y142855D01*
X183241Y142505D01*
X183858Y142382D01*
X184476Y142505D01*
X184999Y142855D01*
X185183Y143130D01*
X185683D01*
X185867Y142855D01*
X185988Y142774D01*
Y142392D01*
X186066Y142002D01*
X186287Y141671D01*
X188179Y139779D01*
X188510Y139558D01*
X188900Y139480D01*
X192977D01*
X193138Y139238D01*
X193717Y138851D01*
X194400Y138716D01*
X195083Y138851D01*
X195662Y139238D01*
X196048Y139817D01*
X196184Y140500D01*
X196048Y141183D01*
X195662Y141762D01*
X195083Y142148D01*
X194420Y142280D01*
X194327Y142744D01*
X194384Y142812D01*
X194448Y142855D01*
X194576Y143046D01*
X194645Y143130D01*
X195132D01*
X195316Y142855D01*
X195839Y142505D01*
X196457Y142382D01*
X197074Y142505D01*
X197598Y142855D01*
X197948Y143378D01*
X198070Y143996D01*
Y148524D01*
X197948Y149141D01*
X197598Y149665D01*
X197476Y149746D01*
Y151419D01*
X198119D01*
Y153339D01*
X198519Y153739D01*
X198856Y153600D01*
X200662D01*
Y155383D01*
X200484Y155600D01*
X200348Y156283D01*
X199962Y156862D01*
X199383Y157248D01*
X198700Y157384D01*
X198017Y157248D01*
X197438Y156862D01*
X197052Y156283D01*
X196916Y155600D01*
X197012Y155116D01*
X196677Y154781D01*
X194757D01*
Y151419D01*
X195437D01*
Y149746D01*
X195316Y149665D01*
X195132Y149390D01*
X194632D01*
X194448Y149665D01*
X194327Y149746D01*
Y149793D01*
X194249Y150183D01*
X194028Y150514D01*
X193020Y151522D01*
Y162000D01*
X205000D01*
Y166323D01*
X205405D01*
Y168504D01*
Y170685D01*
X205000D01*
Y176000D01*
D02*
G37*
G36*
X204035Y143068D02*
X202272D01*
Y141445D01*
X206059D01*
X205997Y141758D01*
X205537Y142446D01*
X204848Y142907D01*
X204035Y143068D01*
D02*
G37*
G36*
X201272D02*
X199508D01*
X198695Y142907D01*
X198006Y142446D01*
X197546Y141758D01*
X197484Y141445D01*
X201272D01*
Y143068D01*
D02*
G37*
G36*
X211803Y145587D02*
X209827D01*
Y143807D01*
X211803D01*
Y145587D01*
D02*
G37*
G36*
X13590Y147350D02*
X10031D01*
Y143398D01*
X13590D01*
Y143832D01*
X14031Y144067D01*
X14543Y143726D01*
X15226Y143590D01*
X15909Y143726D01*
X16488Y144112D01*
X16874Y144691D01*
X17010Y145374D01*
X16874Y146057D01*
X16488Y146636D01*
X15909Y147022D01*
X15226Y147158D01*
X14543Y147022D01*
X14031Y146681D01*
X13590Y146916D01*
Y147350D01*
D02*
G37*
G36*
X294311Y161769D02*
X290493D01*
X290577Y161134D01*
X291015Y160077D01*
X291711Y159169D01*
X292619Y158472D01*
X293677Y158034D01*
X294311Y157951D01*
Y161769D01*
D02*
G37*
G36*
X130000Y163482D02*
X129099Y163364D01*
X128259Y163016D01*
X127538Y162462D01*
X126984Y161741D01*
X126636Y160901D01*
X126517Y160000D01*
X126636Y159099D01*
X126984Y158259D01*
X127538Y157537D01*
X128259Y156984D01*
X129099Y156636D01*
X130000Y156518D01*
X130901Y156636D01*
X131741Y156984D01*
X132463Y157537D01*
X133016Y158259D01*
X133364Y159099D01*
X133483Y160000D01*
X133364Y160901D01*
X133016Y161741D01*
X132463Y162462D01*
X131741Y163016D01*
X130901Y163364D01*
X130000Y163482D01*
D02*
G37*
G36*
X294311Y166587D02*
X293677Y166504D01*
X292619Y166066D01*
X291711Y165369D01*
X291015Y164461D01*
X290577Y163404D01*
X290493Y162769D01*
X294311D01*
Y166587D01*
D02*
G37*
G36*
X299130Y161769D02*
X295311D01*
Y157951D01*
X295946Y158034D01*
X297004Y158472D01*
X297911Y159169D01*
X298608Y160077D01*
X299046Y161134D01*
X299130Y161769D01*
D02*
G37*
G36*
X203343Y155281D02*
X201662D01*
Y153600D01*
X203343D01*
Y155281D01*
D02*
G37*
G36*
Y152600D02*
X201662D01*
Y150919D01*
X203343D01*
Y152600D01*
D02*
G37*
G36*
X120000Y163482D02*
X119099Y163364D01*
X118259Y163016D01*
X117537Y162462D01*
X116984Y161741D01*
X116636Y160901D01*
X116517Y160000D01*
X116636Y159099D01*
X116984Y158259D01*
X117537Y157537D01*
X118259Y156984D01*
X119099Y156636D01*
X120000Y156518D01*
X120901Y156636D01*
X121741Y156984D01*
X122462Y157537D01*
X123016Y158259D01*
X123364Y159099D01*
X123483Y160000D01*
X123364Y160901D01*
X123016Y161741D01*
X122462Y162462D01*
X121741Y163016D01*
X120901Y163364D01*
X120000Y163482D01*
D02*
G37*
G36*
X304567Y160782D02*
X303654Y160662D01*
X302802Y160309D01*
X302071Y159748D01*
X301510Y159017D01*
X301157Y158165D01*
X301037Y157252D01*
X301157Y156338D01*
X301510Y155487D01*
X302071Y154755D01*
X302802Y154194D01*
X303654Y153842D01*
X304567Y153721D01*
X305481Y153842D01*
X306332Y154194D01*
X307064Y154755D01*
X307625Y155487D01*
X307977Y156338D01*
X308098Y157252D01*
X307977Y158165D01*
X307625Y159017D01*
X307064Y159748D01*
X306332Y160309D01*
X305481Y160662D01*
X304567Y160782D01*
D02*
G37*
G36*
X31889Y128607D02*
X28361D01*
Y126139D01*
X31889D01*
Y128607D01*
D02*
G37*
G36*
X150605Y113989D02*
X149922Y113853D01*
X149343Y113466D01*
X148956Y112888D01*
X148820Y112205D01*
X148956Y111522D01*
X149343Y110943D01*
X149922Y110556D01*
X150605Y110421D01*
X151287Y110556D01*
X151866Y110943D01*
X151974Y111105D01*
X152453Y110959D01*
Y110425D01*
X156405D01*
Y113984D01*
X152453D01*
Y113450D01*
X151974Y113305D01*
X151866Y113466D01*
X151287Y113853D01*
X150605Y113989D01*
D02*
G37*
G36*
X160343Y118610D02*
X156980D01*
Y115248D01*
X157937D01*
Y113984D01*
X156980D01*
Y110425D01*
X160933D01*
Y111080D01*
X161477D01*
X161638Y110838D01*
X162217Y110451D01*
X162900Y110316D01*
X163583Y110451D01*
X164162Y110838D01*
X164549Y111417D01*
X164684Y112100D01*
X164549Y112783D01*
X164162Y113362D01*
X163583Y113749D01*
X162900Y113884D01*
X162217Y113749D01*
X161638Y113362D01*
X161477Y113120D01*
X160933D01*
Y113984D01*
X159976D01*
Y115248D01*
X160343D01*
Y118610D01*
D02*
G37*
G36*
X120500Y113921D02*
Y110500D01*
X123921D01*
X123851Y111032D01*
X123453Y111993D01*
X122819Y112819D01*
X121993Y113453D01*
X121032Y113851D01*
X120500Y113921D01*
D02*
G37*
G36*
X119500D02*
X118968Y113851D01*
X118007Y113453D01*
X117181Y112819D01*
X116547Y111993D01*
X116149Y111032D01*
X116079Y110500D01*
X119500D01*
Y113921D01*
D02*
G37*
G36*
X256095Y111827D02*
X252740D01*
Y109358D01*
X256095D01*
Y111827D01*
D02*
G37*
G36*
X240173D02*
X236819D01*
Y109358D01*
X240173D01*
Y111827D01*
D02*
G37*
G36*
X70000Y110484D02*
X69317Y110348D01*
X69081Y110191D01*
X68866Y110306D01*
Y110306D01*
X68866Y110306D01*
X65504D01*
Y106943D01*
X68866D01*
X68866Y106943D01*
Y106943D01*
X69207Y107125D01*
X69317Y107052D01*
X70000Y106916D01*
X70683Y107052D01*
X71262Y107438D01*
X71649Y108017D01*
X71784Y108700D01*
X71649Y109383D01*
X71262Y109962D01*
X70683Y110348D01*
X70000Y110484D01*
D02*
G37*
G36*
X260449Y111827D02*
X257095D01*
Y109358D01*
X260449D01*
Y111827D01*
D02*
G37*
G36*
X110039Y120611D02*
X107570D01*
Y113615D01*
X110039D01*
Y120611D01*
D02*
G37*
G36*
X30830D02*
X28361D01*
Y113615D01*
X30830D01*
Y120611D01*
D02*
G37*
G36*
X153437Y116429D02*
X151756D01*
Y114748D01*
X153437D01*
Y116429D01*
D02*
G37*
G36*
X113507Y120611D02*
X111039D01*
Y113615D01*
X113507D01*
Y120611D01*
D02*
G37*
G36*
X218807Y125795D02*
X214854D01*
Y122236D01*
X215811D01*
Y120677D01*
X214854D01*
Y117118D01*
X217168D01*
X219456Y114830D01*
X219787Y114609D01*
X220177Y114532D01*
X232965D01*
Y113083D01*
X239673D01*
Y118020D01*
X232965D01*
Y116571D01*
X220600D01*
X218807Y118363D01*
Y120677D01*
X217850D01*
Y122236D01*
X218807D01*
Y125795D01*
D02*
G37*
G36*
X65013Y114880D02*
X61060D01*
Y114120D01*
X60300D01*
X59910Y114042D01*
X59579Y113821D01*
X58379Y112621D01*
X58158Y112290D01*
X58080Y111900D01*
Y108322D01*
X57667Y107909D01*
X56693D01*
X56652Y107901D01*
X55512D01*
X55422Y107883D01*
X55035Y108201D01*
Y109622D01*
X51287D01*
Y103937D01*
Y98252D01*
X55035D01*
Y99673D01*
X55422Y99991D01*
X55512Y99973D01*
X56652D01*
X56693Y99965D01*
X60757D01*
Y98319D01*
X61418D01*
Y97381D01*
X60757D01*
X60757Y97381D01*
Y97381D01*
X60689Y97345D01*
X60683Y97348D01*
X60000Y97484D01*
X59317Y97348D01*
X58738Y96962D01*
X58351Y96383D01*
X58216Y95700D01*
X58351Y95017D01*
X58738Y94438D01*
X59317Y94051D01*
X60000Y93916D01*
X60683Y94051D01*
X60689Y94055D01*
X60757Y94019D01*
Y94019D01*
X60757Y94019D01*
X64119D01*
Y97381D01*
X63457D01*
Y98319D01*
X64119D01*
Y101681D01*
X62199D01*
X62174Y101705D01*
X61986Y101831D01*
X61946Y102242D01*
X62282Y102613D01*
X64142D01*
Y105975D01*
X61906D01*
X61715Y106437D01*
X62221Y106943D01*
X64142D01*
Y110306D01*
X60780D01*
Y108555D01*
X60364Y108277D01*
X60120Y108379D01*
Y111478D01*
X60598Y111956D01*
X61060Y111765D01*
Y111320D01*
X65013D01*
Y114880D01*
D02*
G37*
G36*
X27361Y120611D02*
X24893D01*
Y113615D01*
X27361D01*
Y120611D01*
D02*
G37*
G36*
X259949Y118020D02*
X253240D01*
Y113083D01*
X259949D01*
Y118020D01*
D02*
G37*
G36*
X235819Y111827D02*
X232465D01*
Y109358D01*
X235819D01*
Y111827D01*
D02*
G37*
G36*
X176581Y104119D02*
X174900D01*
Y102438D01*
X176581D01*
Y104119D01*
D02*
G37*
G36*
X173900D02*
X172219D01*
Y102438D01*
X173900D01*
Y104119D01*
D02*
G37*
G36*
X235819Y108358D02*
X232465D01*
Y105890D01*
X235819D01*
Y108358D01*
D02*
G37*
G36*
X70006Y106078D02*
X69323Y105942D01*
X69147Y105824D01*
X68866Y105975D01*
Y105975D01*
X68866Y105975D01*
X65504D01*
Y102613D01*
X65504D01*
Y102535D01*
X65150Y102181D01*
X64981D01*
Y100500D01*
X69343D01*
Y102181D01*
X69343Y102181D01*
X69343D01*
X69362Y102277D01*
X69778Y102555D01*
X70006Y102509D01*
X70689Y102645D01*
X71268Y103032D01*
X71655Y103611D01*
X71791Y104294D01*
X71655Y104976D01*
X71268Y105555D01*
X70689Y105942D01*
X70006Y106078D01*
D02*
G37*
G36*
X120500Y103921D02*
Y100500D01*
X123921D01*
X123851Y101032D01*
X123453Y101993D01*
X122819Y102819D01*
X121993Y103453D01*
X121032Y103851D01*
X120500Y103921D01*
D02*
G37*
G36*
X119500D02*
X118968Y103851D01*
X118007Y103453D01*
X117181Y102819D01*
X116547Y101993D01*
X116149Y101032D01*
X116079Y100500D01*
X119500D01*
Y103921D01*
D02*
G37*
G36*
X304998Y105521D02*
Y102052D01*
X308466D01*
X308395Y102596D01*
X307992Y103569D01*
X307350Y104405D01*
X306515Y105046D01*
X305542Y105449D01*
X304998Y105521D01*
D02*
G37*
G36*
X303998D02*
X303453Y105449D01*
X302480Y105046D01*
X301645Y104405D01*
X301004Y103569D01*
X300601Y102596D01*
X300529Y102052D01*
X303998D01*
Y105521D01*
D02*
G37*
G36*
X130000Y113482D02*
X129099Y113364D01*
X128259Y113016D01*
X127537Y112462D01*
X126984Y111741D01*
X126636Y110901D01*
X126517Y110000D01*
X126636Y109099D01*
X126984Y108259D01*
X127537Y107537D01*
X128259Y106984D01*
X129099Y106636D01*
X130000Y106517D01*
X130901Y106636D01*
X131741Y106984D01*
X132463Y107537D01*
X133016Y108259D01*
X133364Y109099D01*
X133483Y110000D01*
X133364Y110901D01*
X133016Y111741D01*
X132463Y112462D01*
X131741Y113016D01*
X130901Y113364D01*
X130000Y113482D01*
D02*
G37*
G36*
X123921Y109500D02*
X120500D01*
Y106079D01*
X121032Y106149D01*
X121993Y106547D01*
X122819Y107181D01*
X123453Y108007D01*
X123851Y108968D01*
X123921Y109500D01*
D02*
G37*
G36*
X45000Y114321D02*
X44317Y114185D01*
X43738Y113798D01*
X43352Y113219D01*
X43216Y112536D01*
X43352Y111853D01*
X43738Y111275D01*
X43862Y111192D01*
Y108451D01*
X41121D01*
Y108454D01*
X39804Y108324D01*
X38537Y107940D01*
X37369Y107316D01*
X36346Y106476D01*
X35506Y105452D01*
X34882Y104285D01*
X34497Y103018D01*
X34367Y101700D01*
X34370D01*
Y78800D01*
X34368D01*
X34497Y77487D01*
X34880Y76224D01*
X35502Y75060D01*
X36340Y74040D01*
X37360Y73202D01*
X38524Y72580D01*
X39787Y72197D01*
X41100Y72068D01*
Y72070D01*
X53900D01*
Y72051D01*
X55388Y72247D01*
X56775Y72821D01*
X57965Y73735D01*
X58879Y74925D01*
X59453Y76312D01*
X59625Y77615D01*
X62593D01*
Y77966D01*
X63087D01*
X63246Y77844D01*
X63366Y77447D01*
X63300Y77347D01*
X63230Y76996D01*
X70628D01*
X70559Y77347D01*
X70492Y77447D01*
X70613Y77844D01*
X70613D01*
X71071Y78043D01*
X71398Y77881D01*
Y76484D01*
X73122D01*
Y80471D01*
X72993Y80445D01*
X72628Y80787D01*
X72721Y81496D01*
X72628Y82205D01*
X72993Y82547D01*
X73122Y82521D01*
Y87008D01*
Y91494D01*
X72771Y91425D01*
X72050Y90943D01*
X71567Y90221D01*
X71521Y89986D01*
X71053Y89810D01*
X70613Y90148D01*
X69595Y90570D01*
X68504Y90713D01*
X65354D01*
X64263Y90570D01*
X63246Y90148D01*
X63087Y90026D01*
X62593D01*
Y90308D01*
X53280D01*
Y90640D01*
X44721D01*
Y81687D01*
Y81530D01*
X43930D01*
Y99431D01*
X44822D01*
X44882Y99423D01*
X44942Y99431D01*
X46063D01*
X46163Y99444D01*
X46539Y99114D01*
Y98252D01*
X50287D01*
Y103937D01*
Y109622D01*
X46539D01*
Y108760D01*
X46357Y108600D01*
X45902Y108806D01*
Y111034D01*
X46262Y111275D01*
X46648Y111853D01*
X46784Y112536D01*
X46648Y113219D01*
X46262Y113798D01*
X45683Y114185D01*
X45000Y114321D01*
D02*
G37*
G36*
X13590Y111721D02*
X10031D01*
Y107768D01*
X13590D01*
Y108724D01*
X15180D01*
X15438Y108338D01*
X16017Y107951D01*
X16700Y107816D01*
X17383Y107951D01*
X17962Y108338D01*
X18349Y108917D01*
X18484Y109600D01*
X18349Y110283D01*
X17962Y110862D01*
X17383Y111249D01*
X16700Y111384D01*
X16017Y111249D01*
X15438Y110862D01*
X15373Y110764D01*
X13590D01*
Y111721D01*
D02*
G37*
G36*
X256095Y108358D02*
X252740D01*
Y105890D01*
X256095D01*
Y108358D01*
D02*
G37*
G36*
X240173D02*
X236819D01*
Y105890D01*
X240173D01*
Y108358D01*
D02*
G37*
G36*
X119500Y109500D02*
X116079D01*
X116149Y108968D01*
X116547Y108007D01*
X117181Y107181D01*
X118007Y106547D01*
X118968Y106149D01*
X119500Y106079D01*
Y109500D01*
D02*
G37*
G36*
X260449Y108358D02*
X257095D01*
Y105890D01*
X260449D01*
Y108358D01*
D02*
G37*
G36*
X156118Y116429D02*
X154437D01*
Y114748D01*
X156118D01*
Y116429D01*
D02*
G37*
G36*
X53936Y125139D02*
X48318D01*
Y122670D01*
X53936D01*
Y125139D01*
D02*
G37*
G36*
X39885D02*
X32889D01*
Y122670D01*
X39885D01*
Y125139D01*
D02*
G37*
G36*
X83464D02*
X77846D01*
Y122670D01*
X83464D01*
Y125139D01*
D02*
G37*
G36*
X60554D02*
X54936D01*
Y122670D01*
X60554D01*
Y125139D01*
D02*
G37*
G36*
X31889D02*
X28361D01*
Y121611D01*
X30830D01*
Y122670D01*
X31889D01*
Y125139D01*
D02*
G37*
G36*
X27361D02*
X24893D01*
Y122670D01*
Y121611D01*
X27361D01*
Y125139D01*
D02*
G37*
G36*
X113507D02*
X111039D01*
Y121611D01*
X113507D01*
Y122670D01*
Y125139D01*
D02*
G37*
G36*
X110039D02*
X106511D01*
Y122670D01*
X107570D01*
Y121611D01*
X110039D01*
Y125139D01*
D02*
G37*
G36*
X295311Y128587D02*
Y124769D01*
X299130D01*
X299046Y125404D01*
X298608Y126461D01*
X297911Y127369D01*
X297004Y128066D01*
X295946Y128504D01*
X295311Y128587D01*
D02*
G37*
G36*
X294311D02*
X293677Y128504D01*
X292619Y128066D01*
X291711Y127369D01*
X291015Y126461D01*
X290577Y125404D01*
X290493Y124769D01*
X294311D01*
Y128587D01*
D02*
G37*
G36*
X27361Y128607D02*
X24893D01*
Y126139D01*
X27361D01*
Y128607D01*
D02*
G37*
G36*
X259949Y134161D02*
X253240D01*
Y129224D01*
X255575D01*
Y127886D01*
X255538Y127862D01*
X255152Y127283D01*
X255016Y126600D01*
X255152Y125917D01*
X255538Y125338D01*
X256117Y124952D01*
X256800Y124816D01*
X257483Y124952D01*
X258062Y125338D01*
X258449Y125917D01*
X258584Y126600D01*
X258449Y127283D01*
X258062Y127862D01*
X257614Y128161D01*
Y129224D01*
X259949D01*
Y134161D01*
D02*
G37*
G36*
X105511Y125139D02*
X98515D01*
Y122670D01*
X105511D01*
Y125139D01*
D02*
G37*
G36*
X90082D02*
X84464D01*
Y122670D01*
X90082D01*
Y125139D01*
D02*
G37*
G36*
X156118Y125878D02*
X154437D01*
Y124197D01*
X156118D01*
Y125878D01*
D02*
G37*
G36*
X153437D02*
X151756D01*
Y124197D01*
X153437D01*
Y125878D01*
D02*
G37*
G36*
X120500Y123921D02*
Y120500D01*
X123921D01*
X123851Y121032D01*
X123453Y121993D01*
X122819Y122819D01*
X121993Y123453D01*
X121032Y123851D01*
X120500Y123921D01*
D02*
G37*
G36*
X130000Y123483D02*
X129099Y123364D01*
X128259Y123016D01*
X127538Y122462D01*
X126984Y121741D01*
X126636Y120901D01*
X126517Y120000D01*
X126636Y119099D01*
X126984Y118259D01*
X127538Y117537D01*
X128259Y116984D01*
X129099Y116636D01*
X130000Y116517D01*
X130901Y116636D01*
X131741Y116984D01*
X132463Y117537D01*
X133016Y118259D01*
X133364Y119099D01*
X133483Y120000D01*
X133364Y120901D01*
X133016Y121741D01*
X132463Y122462D01*
X131741Y123016D01*
X130901Y123364D01*
X130000Y123483D01*
D02*
G37*
G36*
X123921Y119500D02*
X120500D01*
Y116079D01*
X121032Y116149D01*
X121993Y116547D01*
X122819Y117181D01*
X123453Y118007D01*
X123851Y118968D01*
X123921Y119500D01*
D02*
G37*
G36*
X173382Y118398D02*
X169595D01*
Y116774D01*
X171358D01*
X172171Y116936D01*
X172860Y117396D01*
X173320Y118085D01*
X173382Y118398D01*
D02*
G37*
G36*
X168595D02*
X164807D01*
X164869Y118085D01*
X165329Y117396D01*
X166018Y116936D01*
X166831Y116774D01*
X168595D01*
Y118398D01*
D02*
G37*
G36*
X64519Y117300D02*
X62838D01*
Y115619D01*
X64519D01*
Y117300D01*
D02*
G37*
G36*
X61838D02*
X60157D01*
Y115619D01*
X61838D01*
Y117300D01*
D02*
G37*
G36*
X119500Y119500D02*
X116079D01*
X116149Y118968D01*
X116547Y118007D01*
X117181Y117181D01*
X118007Y116547D01*
X118968Y116149D01*
X119500Y116079D01*
Y119500D01*
D02*
G37*
G36*
X304567Y122782D02*
X303654Y122662D01*
X302802Y122309D01*
X302071Y121748D01*
X301510Y121017D01*
X301157Y120165D01*
X301037Y119252D01*
X301157Y118338D01*
X301510Y117487D01*
X302071Y116755D01*
X302802Y116194D01*
X303654Y115842D01*
X304567Y115721D01*
X305481Y115842D01*
X306332Y116194D01*
X307064Y116755D01*
X307625Y117487D01*
X307977Y118338D01*
X308098Y119252D01*
X307977Y120165D01*
X307625Y121017D01*
X307064Y121748D01*
X306332Y122309D01*
X305481Y122662D01*
X304567Y122782D01*
D02*
G37*
G36*
X294311Y123769D02*
X290493D01*
X290577Y123134D01*
X291015Y122077D01*
X291711Y121169D01*
X292619Y120472D01*
X293677Y120034D01*
X294311Y119951D01*
Y123769D01*
D02*
G37*
G36*
X149953Y123438D02*
X149271Y123302D01*
X148692Y122915D01*
X148305Y122336D01*
X148169Y121653D01*
X148305Y120971D01*
X148692Y120392D01*
X149271Y120005D01*
X149953Y119869D01*
X150636Y120005D01*
X151215Y120392D01*
X151377Y120634D01*
X152453D01*
Y119874D01*
X156405D01*
Y123433D01*
X152453D01*
Y122673D01*
X151377D01*
X151215Y122915D01*
X150636Y123302D01*
X149953Y123438D01*
D02*
G37*
G36*
X119500Y123921D02*
X118968Y123851D01*
X118007Y123453D01*
X117181Y122819D01*
X116547Y121993D01*
X116149Y121032D01*
X116079Y120500D01*
X119500D01*
Y123921D01*
D02*
G37*
G36*
X299130Y123769D02*
X295311D01*
Y119951D01*
X295946Y120034D01*
X297004Y120472D01*
X297911Y121169D01*
X298608Y122077D01*
X299046Y123134D01*
X299130Y123769D01*
D02*
G37*
G36*
X156118Y119110D02*
X154437D01*
Y117429D01*
X156118D01*
Y119110D01*
D02*
G37*
G36*
X153437D02*
X151756D01*
Y117429D01*
X153437D01*
Y119110D01*
D02*
G37*
G36*
X64519Y119981D02*
X62838D01*
Y118300D01*
X64519D01*
Y119981D01*
D02*
G37*
G36*
X61838D02*
X60157D01*
Y118300D01*
X61838D01*
Y119981D01*
D02*
G37*
%LPD*%
D10*
X52300Y78000D02*
G03*
X53687Y79387I0J1387D01*
G01*
X42200Y103000D02*
G03*
X40400Y101200I0J-1800D01*
G01*
Y80100D02*
G03*
X42500Y78000I2100J0D01*
G01*
X41121Y104921D02*
G03*
X37900Y101700I0J-3221D01*
G01*
Y78800D02*
G03*
X41100Y75600I3200J0D01*
G01*
X49258Y81796D02*
G03*
X48963Y81501I0J-295D01*
G01*
X49061Y86127D02*
G03*
X48963Y86028I0J-98D01*
G01*
X58781Y86496D02*
G03*
X58412Y86127I0J-369D01*
G01*
Y81796D02*
G03*
X58712Y81496I300J0D01*
G01*
X44882Y98792D02*
G03*
X45500Y97300I2110J0D01*
G01*
X53900Y75600D02*
G03*
X56100Y77800I0J2200D01*
G01*
Y82686D02*
G03*
X55100Y85100I-3414J0D01*
G01*
X54392Y85808D02*
G03*
X53687Y86100I-704J-704D01*
G01*
X280200Y72400D02*
Y87300D01*
X276009Y68209D02*
X280200Y72400D01*
X273721Y68209D02*
X276009D01*
X237600Y55600D02*
X260700D01*
X232100Y61100D02*
X237600Y55600D01*
X232100Y61100D02*
Y72800D01*
X261910Y56810D02*
Y58957D01*
X260700Y55600D02*
X261910Y56810D01*
X157579Y44882D02*
Y50394D01*
X160236Y53051D01*
Y59449D01*
X211848Y128900D02*
X212303Y128445D01*
X243247Y71653D02*
X245768D01*
X240300Y74600D02*
X243247Y71653D01*
X299800Y43700D02*
X299801Y43701D01*
X306693D01*
X300300Y37400D02*
X300302Y37402D01*
X305118D01*
X287500Y31102D02*
X306693D01*
X269685Y48917D02*
X287500Y31102D01*
X183858Y107742D02*
Y113583D01*
Y107742D02*
X191700Y99900D01*
X267600D01*
X280200Y87300D01*
X267028Y74902D02*
Y82672D01*
X251800Y97900D02*
X267028Y82672D01*
X189800Y97900D02*
X251800D01*
X180709Y106991D02*
X189800Y97900D01*
X180709Y106991D02*
Y113583D01*
X269685Y79921D02*
X269964Y80200D01*
X269587Y79823D02*
X269685Y79921D01*
X269964Y80200D02*
X273200D01*
X269587Y74902D02*
Y79823D01*
X267028Y56102D02*
X269685Y53445D01*
X267028Y56102D02*
Y58957D01*
X250394Y62992D02*
X250492Y63090D01*
X257776D01*
X250295Y71653D02*
X251181Y70768D01*
X257776D01*
X120000Y170000D02*
X123953Y166047D01*
X133658D01*
X154429Y145276D01*
X216831Y118898D02*
Y124016D01*
Y118898D02*
X220177Y115551D01*
X236319D01*
X216831Y138189D02*
Y143307D01*
X217028Y138386D02*
X236319D01*
X212303Y124016D02*
Y128445D01*
X212598Y133465D02*
Y137894D01*
X202165Y138189D02*
X212303D01*
X195472Y168504D02*
X201181D01*
X195472Y167072D02*
Y168504D01*
X192000Y163600D02*
X195472Y167072D01*
X192000Y151100D02*
Y163600D01*
Y151100D02*
X193307Y149793D01*
Y146260D02*
Y149793D01*
X179527Y168504D02*
X185630D01*
Y167070D02*
X190157Y162542D01*
Y146260D02*
Y162542D01*
X183858Y146260D02*
Y153342D01*
X181200Y156600D02*
X183862Y153938D01*
Y153300D02*
Y153938D01*
X198700Y155362D02*
Y155600D01*
X196438Y153100D02*
X198700Y155362D01*
X196457Y146260D02*
Y153081D01*
X159061Y112100D02*
X162900D01*
X158957Y112205D02*
Y116634D01*
X158661Y126378D02*
X160630Y128347D01*
X169095D01*
X158957Y121653D02*
Y126083D01*
Y131102D02*
X159350Y131496D01*
X169095D01*
X158957Y131102D02*
Y135531D01*
X154429Y145276D02*
X158661Y141043D01*
Y140551D02*
Y141043D01*
Y140551D02*
X161417Y137795D01*
X169095D01*
X158957Y145276D02*
X163287Y140945D01*
X169095D01*
X158957Y145276D02*
Y158443D01*
X67564Y113100D02*
Y143064D01*
X142300Y175100D02*
X158957Y158443D01*
X124900Y175100D02*
X142300D01*
X120000Y180000D02*
X124900Y175100D01*
X104500Y180000D02*
X120000D01*
X67564Y143064D02*
X104500Y180000D01*
X11811Y186004D02*
X15096D01*
X6398Y190532D02*
X11811D01*
Y145374D02*
X15226D01*
X6398Y149902D02*
X11811D01*
X16556Y109744D02*
X16700Y109600D01*
X11811Y109744D02*
X16556D01*
X5906Y114764D02*
X6398Y114272D01*
X11811D01*
X96459Y72540D02*
Y82042D01*
X96657Y82239D02*
Y84943D01*
X91339Y86439D02*
X93900Y89000D01*
X91339Y86319D02*
Y86439D01*
X44882Y112418D02*
X45000Y112536D01*
X44882Y106890D02*
Y112418D01*
X60000Y95700D02*
X62438D01*
X67185Y104294D02*
X70006D01*
X67185Y108624D02*
X70076D01*
X70000Y108700D02*
X70076Y108624D01*
X60300Y113100D02*
X63036D01*
X59100Y111900D02*
X60300Y113100D01*
X59100Y107900D02*
Y111900D01*
X58090Y106890D02*
X59100Y107900D01*
X56693Y106890D02*
X58090D01*
X58758Y104921D02*
X62461Y108624D01*
X56693Y104921D02*
X58758D01*
X61120Y102953D02*
X62461Y104294D01*
X56693Y102953D02*
X61120D01*
X62438Y95700D02*
Y100000D01*
X61453Y100984D02*
X62438Y100000D01*
X56693Y100984D02*
X61453D01*
X49258Y81796D02*
X53687D01*
X42200Y103000D02*
X44882D01*
X42500Y78000D02*
X52300D01*
X40400Y80100D02*
Y101200D01*
X44882Y102953D02*
Y103000D01*
X53687Y79387D02*
Y81796D01*
X41100Y75600D02*
X53900D01*
X37900Y78800D02*
Y101700D01*
X41121Y104921D02*
X44882D01*
X58781Y86496D02*
X66929D01*
X58712Y81496D02*
X66929D01*
X187008Y108392D02*
X187100Y108300D01*
X187008Y108392D02*
Y113583D01*
X190100Y113525D02*
X190157Y113583D01*
X190100Y108300D02*
Y113525D01*
X174409Y106662D02*
Y113583D01*
X177559D02*
X177600Y113542D01*
Y108700D02*
Y113542D01*
X172700Y106800D02*
X174162D01*
X170600Y108900D02*
X172700Y106800D01*
X196457Y108243D02*
Y113583D01*
X193307Y108207D02*
Y113583D01*
X193300Y108200D02*
X193307Y108207D01*
X150605Y112205D02*
X154429D01*
X212000Y102600D02*
Y102700D01*
X149953Y121653D02*
X154429D01*
X150002Y131102D02*
X154429D01*
X206600Y108000D02*
X212000Y102600D01*
X206600Y108000D02*
Y128900D01*
X211848D01*
X209700Y120900D02*
X211702Y118898D01*
X212303D01*
X163553Y122047D02*
X169095D01*
X163500Y122100D02*
X163553Y122047D01*
X198302Y118898D02*
X201772D01*
X195000Y120400D02*
X196800D01*
X198302Y118898D01*
X169095Y125197D02*
X175197D01*
X201169Y122650D02*
X201772Y122047D01*
X195650Y122650D02*
X201169D01*
X194900Y123400D02*
X195650Y122650D01*
X169095Y134646D02*
X174554D01*
X174800Y134400D01*
X196403Y125197D02*
X201772D01*
X194800Y126800D02*
X196403Y125197D01*
X180709Y140991D02*
Y146260D01*
X187008Y142392D02*
Y146260D01*
Y142392D02*
X188900Y140500D01*
X194400D01*
X196854Y134646D02*
X201772D01*
X5906Y180394D02*
Y185512D01*
X195300Y136000D02*
X195500D01*
X196854Y134646D01*
X198254Y128347D02*
X201772D01*
X196800Y129800D02*
X198254Y128347D01*
X194900Y129800D02*
X196800D01*
X198004Y131496D02*
X201772D01*
X196800Y132700D02*
X198004Y131496D01*
X193500Y132700D02*
X196800D01*
X170000Y146500D02*
X174169D01*
X174409Y146260D01*
X177559D02*
Y149041D01*
X176000Y150600D02*
X177559Y149041D01*
X170300Y150600D02*
X173540D01*
X173547Y150606D01*
X175272D01*
X175278Y150600D01*
X176000D01*
X5906Y140094D02*
Y144882D01*
Y140094D02*
X6000Y140000D01*
X5906Y104400D02*
Y109252D01*
X44882Y98792D02*
Y100984D01*
X102000Y68000D02*
Y68100D01*
X93900D02*
X102000D01*
X93900Y65060D02*
Y68100D01*
Y72540D01*
X54392Y85808D02*
X55100Y85100D01*
X56100Y77800D02*
Y82686D01*
X53687Y86100D02*
Y86127D01*
X49061D02*
X53687D01*
X256594Y126600D02*
X256800D01*
X256594D02*
Y131693D01*
X242577Y59900D02*
X245669Y62992D01*
X241600Y59900D02*
X242577D01*
D11*
X80590Y76772D02*
G03*
X80315Y76496I0J-276D01*
G01*
X80590Y76772D02*
X86221D01*
X96459Y65060D02*
X96500D01*
X58957Y59350D02*
X59055Y59449D01*
X51968Y59350D02*
X58957D01*
X51476Y59842D02*
X51968Y59350D01*
X47244Y59842D02*
X51476D01*
X42028Y59350D02*
X42520Y59842D01*
X37795Y59350D02*
X42028D01*
X37697Y59449D02*
X37795Y59350D01*
X32677Y59449D02*
X37697D01*
X32283Y59055D02*
X32677Y59449D01*
X9843Y59055D02*
X32283D01*
D12*
X84100Y58300D02*
G03*
X81327Y59449I-2774J-2774D01*
G01*
X84100Y58300D02*
G03*
X89653Y56000I5553J5553D01*
G01*
X96500Y55638D02*
G03*
X95626Y56000I-874J-874D01*
G01*
X96459Y60461D02*
G03*
X96500Y60362I140J0D01*
G01*
X72441Y59449D02*
X81327D01*
X89653Y56000D02*
X95626D01*
X96459Y60461D02*
Y65060D01*
D13*
X297244Y65551D02*
D03*
Y68110D02*
D03*
Y62992D02*
D03*
Y70669D02*
D03*
Y73228D02*
D03*
D14*
X11811Y114272D02*
D03*
Y109744D02*
D03*
Y149902D02*
D03*
Y145374D02*
D03*
Y190532D02*
D03*
Y186004D02*
D03*
X269685Y53445D02*
D03*
Y48917D02*
D03*
X37795Y54823D02*
D03*
Y59350D02*
D03*
X51968Y54823D02*
D03*
Y59350D02*
D03*
X49000Y81636D02*
D03*
Y86164D02*
D03*
D15*
X10884Y77756D02*
D03*
Y40354D02*
D03*
D16*
X9900Y59055D02*
D03*
D17*
X5906Y191024D02*
D03*
Y185512D02*
D03*
Y150394D02*
D03*
Y144882D02*
D03*
Y114764D02*
D03*
Y109252D02*
D03*
D18*
X250295Y71653D02*
D03*
X245768D02*
D03*
X162106Y44882D02*
D03*
X157579D02*
D03*
Y50394D02*
D03*
X162106D02*
D03*
X158957Y112205D02*
D03*
X154429D02*
D03*
X158957Y121653D02*
D03*
X154429D02*
D03*
X158957Y131102D02*
D03*
X154429D02*
D03*
Y145276D02*
D03*
X158957D02*
D03*
X216831Y138189D02*
D03*
X212303D02*
D03*
Y143307D02*
D03*
X216831D02*
D03*
X212303Y124016D02*
D03*
X216831D02*
D03*
Y118898D02*
D03*
X212303D02*
D03*
X67564Y113100D02*
D03*
X63036D02*
D03*
D19*
X305118Y37402D02*
D03*
D20*
X306693Y43701D02*
D03*
Y31102D02*
D03*
D21*
X306299Y63386D02*
D03*
Y72835D02*
D03*
D22*
Y52756D02*
D03*
Y83465D02*
D03*
D23*
X297736Y55512D02*
D03*
Y80709D02*
D03*
D24*
X211811Y49508D02*
D03*
Y41831D02*
D03*
X221260Y49508D02*
D03*
Y41831D02*
D03*
X178347Y49508D02*
D03*
Y41831D02*
D03*
X169291Y49508D02*
D03*
Y41831D02*
D03*
D25*
X185630Y168504D02*
D03*
X195472D02*
D03*
D26*
X256594Y115551D02*
D03*
Y108858D02*
D03*
X236319Y115551D02*
D03*
Y108858D02*
D03*
Y131693D02*
D03*
Y138386D02*
D03*
X256594Y131693D02*
D03*
Y138386D02*
D03*
D27*
X32677Y54724D02*
D03*
Y59449D02*
D03*
D28*
X202756Y59055D02*
D03*
X211811D02*
D03*
X220866D02*
D03*
X160236Y59449D02*
D03*
X169291D02*
D03*
X178347D02*
D03*
D29*
X211811Y81890D02*
D03*
X169291Y82284D02*
D03*
D30*
X86221Y81496D02*
D03*
Y76772D02*
D03*
X96500Y55638D02*
D03*
Y60362D02*
D03*
X174400Y106662D02*
D03*
Y101938D02*
D03*
X269685Y79921D02*
D03*
Y84646D02*
D03*
X263779Y53543D02*
D03*
Y48819D02*
D03*
D31*
X67062Y117800D02*
D03*
X62338D02*
D03*
X62438Y95700D02*
D03*
X67162D02*
D03*
X62438Y100000D02*
D03*
X67162D02*
D03*
X62461Y104294D02*
D03*
X67185D02*
D03*
Y108624D02*
D03*
X62461D02*
D03*
X58412Y81796D02*
D03*
X53687D02*
D03*
X58412Y86127D02*
D03*
X53687D02*
D03*
X96657Y77909D02*
D03*
X101381D02*
D03*
X96657Y82239D02*
D03*
X101381D02*
D03*
X179527Y168504D02*
D03*
X174803D02*
D03*
X201181D02*
D03*
X205906D02*
D03*
X212598Y133465D02*
D03*
X217323D02*
D03*
X196438Y153100D02*
D03*
X201162D02*
D03*
X183862Y153300D02*
D03*
X179138D02*
D03*
X158661Y140551D02*
D03*
X153937D02*
D03*
X158661Y116929D02*
D03*
X153937D02*
D03*
X158661Y126378D02*
D03*
X153937D02*
D03*
X158661Y135827D02*
D03*
X153937D02*
D03*
X250394Y62992D02*
D03*
X245669D02*
D03*
X212598Y128740D02*
D03*
X217323D02*
D03*
X42520Y59842D02*
D03*
X47244D02*
D03*
D32*
X91339Y81398D02*
D03*
Y86319D02*
D03*
D33*
X96459Y72540D02*
D03*
X93900D02*
D03*
X91341D02*
D03*
Y65060D02*
D03*
X93900D02*
D03*
X96459D02*
D03*
D34*
X73622Y75984D02*
D03*
Y87008D02*
D03*
D35*
X66929Y76496D02*
D03*
Y81496D02*
D03*
Y86496D02*
D03*
X80315D02*
D03*
Y81496D02*
D03*
Y76496D02*
D03*
D36*
X72441Y64449D02*
D03*
Y59449D02*
D03*
Y54449D02*
D03*
X59055D02*
D03*
Y59449D02*
D03*
D37*
X60630Y64449D02*
D03*
D38*
X44882Y106890D02*
D03*
Y104921D02*
D03*
Y102953D02*
D03*
Y100984D02*
D03*
X56693D02*
D03*
Y102953D02*
D03*
Y104921D02*
D03*
Y106890D02*
D03*
D39*
X50787Y103937D02*
D03*
D40*
X265748Y66929D02*
D03*
D41*
X273721Y70768D02*
D03*
Y68209D02*
D03*
Y65650D02*
D03*
Y63090D02*
D03*
X257776D02*
D03*
Y65650D02*
D03*
Y68209D02*
D03*
Y70768D02*
D03*
D42*
X269587Y58957D02*
D03*
X267028D02*
D03*
X264469D02*
D03*
X261910D02*
D03*
Y74902D02*
D03*
X264469D02*
D03*
X267028D02*
D03*
X269587D02*
D03*
D43*
X83964Y42961D02*
D03*
X54436D02*
D03*
Y125639D02*
D03*
X83964D02*
D03*
D44*
X110539Y69536D02*
D03*
X27861D02*
D03*
Y99064D02*
D03*
X110539D02*
D03*
D45*
Y47489D02*
D03*
X27861D02*
D03*
Y121111D02*
D03*
X110539D02*
D03*
D46*
X106011Y42961D02*
D03*
X32389D02*
D03*
Y125639D02*
D03*
X106011D02*
D03*
D47*
X196457Y146260D02*
D03*
X193307D02*
D03*
X190157D02*
D03*
X187008D02*
D03*
X183858D02*
D03*
X180709D02*
D03*
X177559D02*
D03*
X174409D02*
D03*
Y113583D02*
D03*
X177559D02*
D03*
X180709D02*
D03*
X183858D02*
D03*
X187008D02*
D03*
X190157D02*
D03*
X193307D02*
D03*
X196457D02*
D03*
D48*
X169095Y140945D02*
D03*
Y137795D02*
D03*
Y134646D02*
D03*
Y131496D02*
D03*
Y128347D02*
D03*
Y125197D02*
D03*
Y122047D02*
D03*
Y118898D02*
D03*
X201772D02*
D03*
Y122047D02*
D03*
Y125197D02*
D03*
Y128347D02*
D03*
Y131496D02*
D03*
Y134646D02*
D03*
Y137795D02*
D03*
Y140945D02*
D03*
D49*
X293635Y65816D02*
X293900Y65551D01*
X297244D01*
X285285Y65816D02*
X293635D01*
X284700Y65231D02*
X285285Y65816D01*
X255634D02*
X255800Y65650D01*
X257776D01*
X240585Y65816D02*
X255634D01*
X240000Y65231D02*
X240585Y65816D01*
X293635Y67845D02*
X293900Y68110D01*
X297244D01*
X285285Y67845D02*
X293635D01*
X284700Y68431D02*
X285285Y67845D01*
X255800Y68209D02*
X257776D01*
X255437Y67845D02*
X255800Y68209D01*
X240585Y67845D02*
X255437D01*
X240000Y68431D02*
X240585Y67845D01*
D50*
X162992Y49508D02*
X169291D01*
Y59449D01*
Y82284D01*
X185292Y49508D02*
X188292D01*
X178347D02*
X185108D01*
X211811Y59055D02*
Y81890D01*
X228000Y49300D02*
X232000D01*
X221260Y49508D02*
X221468Y49300D01*
X220866Y49902D02*
X221260Y49508D01*
X221468Y49300D02*
X228000D01*
X220866Y49902D02*
Y59055D01*
X130000Y70000D02*
X156000D01*
X211811Y49508D02*
Y59055D01*
X178347Y49508D02*
Y59449D01*
D51*
X290400Y56500D02*
Y60500D01*
X292892Y62992D01*
X297244D01*
X263779Y53543D02*
X264469D01*
X263779Y53200D02*
Y53543D01*
X263243D02*
X263779D01*
X261900Y52200D02*
X263243Y53543D01*
X259200Y52200D02*
X261900D01*
X264469Y53543D02*
Y58957D01*
D52*
X91339Y81398D02*
X91341D01*
Y72540D02*
Y81398D01*
X86221Y81496D02*
X91341D01*
D53*
X212000Y80500D02*
D03*
D54*
X169000D02*
D03*
D55*
X120000Y180000D02*
D03*
X130000Y70000D02*
D03*
D56*
X120000Y170000D02*
D03*
X120000Y160000D02*
D03*
X130000D02*
D03*
X130000Y170000D02*
D03*
X130000Y180000D02*
D03*
Y150000D02*
D03*
X130000Y140000D02*
D03*
X130000Y130000D02*
D03*
X120000D02*
D03*
X120000Y140000D02*
D03*
X130000Y120000D02*
D03*
X130000Y110000D02*
D03*
X130000Y100000D02*
D03*
X120000D02*
D03*
X120000Y110000D02*
D03*
X130000Y90000D02*
D03*
X120000D02*
D03*
X120000Y150000D02*
D03*
Y120000D02*
D03*
X130000Y50000D02*
D03*
X130000Y60000D02*
D03*
D57*
X304498Y101552D02*
D03*
X304567Y119252D02*
D03*
X304498Y139552D02*
D03*
X304567Y157252D02*
D03*
X304498Y177552D02*
D03*
X304567Y195252D02*
D03*
D58*
X294812Y124269D02*
D03*
X294742Y96604D02*
D03*
X294812Y162269D02*
D03*
X294742Y134604D02*
D03*
X294812Y200269D02*
D03*
X294742Y172604D02*
D03*
D59*
X240000Y68431D02*
D03*
Y65231D02*
D03*
X284700D02*
D03*
Y68431D02*
D03*
X185000Y160000D02*
D03*
X195000D02*
D03*
X207000D02*
D03*
Y178000D02*
D03*
X195000D02*
D03*
X185000D02*
D03*
X174000D02*
D03*
X255300Y74300D02*
D03*
X289400D02*
D03*
X283700D02*
D03*
X283800Y59600D02*
D03*
X276200Y74200D02*
D03*
X276000Y59800D02*
D03*
X246200Y78000D02*
D03*
X255200Y60200D02*
D03*
X241600Y59900D02*
D03*
X235300Y67100D02*
D03*
X232100Y72800D02*
D03*
X188292Y49508D02*
D03*
X185108D02*
D03*
X196200Y68300D02*
D03*
X232000Y49300D02*
D03*
X228000D02*
D03*
X290500Y56400D02*
D03*
X290400Y60500D02*
D03*
X240300Y74600D02*
D03*
X299800Y43700D02*
D03*
X300300Y37400D02*
D03*
X273200Y80200D02*
D03*
X181200Y156600D02*
D03*
X198700Y155600D02*
D03*
X162900Y112100D02*
D03*
X15096Y186004D02*
D03*
X15226Y145374D02*
D03*
X16700Y109600D02*
D03*
X96657Y84943D02*
D03*
X93900Y89000D02*
D03*
X45000Y112536D02*
D03*
X60000Y95700D02*
D03*
X70006Y104294D02*
D03*
X70000Y108700D02*
D03*
X187100Y108300D02*
D03*
X190100D02*
D03*
X177600Y108700D02*
D03*
X170600Y108900D02*
D03*
X196457Y108243D02*
D03*
X193300Y108200D02*
D03*
X150605Y112205D02*
D03*
X212000Y102700D02*
D03*
X209300Y128900D02*
D03*
X149953Y121653D02*
D03*
X150002Y131102D02*
D03*
X209700Y120900D02*
D03*
X163500Y122100D02*
D03*
X195000Y120400D02*
D03*
X175197Y125197D02*
D03*
X194900Y123400D02*
D03*
X174800Y134400D02*
D03*
X194800Y126800D02*
D03*
X180709Y140991D02*
D03*
X194400Y140500D02*
D03*
X6000Y180300D02*
D03*
X195300Y136000D02*
D03*
X194900Y129800D02*
D03*
X193500Y132700D02*
D03*
X170000Y146500D02*
D03*
X170300Y150600D02*
D03*
X6000Y140000D02*
D03*
X196200Y71700D02*
D03*
X10000Y210000D02*
D03*
X30000D02*
D03*
X50000D02*
D03*
X70000D02*
D03*
X90000D02*
D03*
X110000D02*
D03*
X130000D02*
D03*
X150000D02*
D03*
X170000D02*
D03*
X190000D02*
D03*
X210000D02*
D03*
X230000D02*
D03*
X250000D02*
D03*
X270000D02*
D03*
X290000D02*
D03*
X306000D02*
D03*
Y182000D02*
D03*
Y110000D02*
D03*
Y90000D02*
D03*
Y20000D02*
D03*
Y10000D02*
D03*
X290000D02*
D03*
X270000D02*
D03*
X250000D02*
D03*
X230000D02*
D03*
X210000D02*
D03*
X190000D02*
D03*
X170000D02*
D03*
X150000D02*
D03*
X130000D02*
D03*
X110000D02*
D03*
X90000D02*
D03*
X70000D02*
D03*
X50000D02*
D03*
X30000D02*
D03*
X10000D02*
D03*
Y30000D02*
D03*
Y90000D02*
D03*
X40000Y140000D02*
D03*
Y170000D02*
D03*
X8000D02*
D03*
Y134000D02*
D03*
X34000Y120000D02*
D03*
X50000D02*
D03*
X64000Y122000D02*
D03*
X72000D02*
D03*
X90000Y120000D02*
D03*
X106000D02*
D03*
Y100000D02*
D03*
Y80000D02*
D03*
Y60000D02*
D03*
Y48000D02*
D03*
X90000D02*
D03*
X70000Y46000D02*
D03*
X50000Y48000D02*
D03*
X34000D02*
D03*
Y66000D02*
D03*
X32800Y79700D02*
D03*
X33100Y100400D02*
D03*
X24000Y64000D02*
D03*
Y54000D02*
D03*
X42000Y66000D02*
D03*
X48000D02*
D03*
X79700Y65200D02*
D03*
X86000Y66000D02*
D03*
X80000Y54000D02*
D03*
X86200Y51400D02*
D03*
X96700Y49900D02*
D03*
X89400Y61300D02*
D03*
X102500Y54800D02*
D03*
X102000Y68000D02*
D03*
X86000Y72000D02*
D03*
Y86000D02*
D03*
X62000Y76000D02*
D03*
Y92000D02*
D03*
X54000D02*
D03*
X56700Y71100D02*
D03*
X48500Y70500D02*
D03*
X42300D02*
D03*
X35300Y72600D02*
D03*
X32600Y86500D02*
D03*
X32900Y93300D02*
D03*
X34000Y106000D02*
D03*
X38000Y110000D02*
D03*
X45500Y97300D02*
D03*
X44300Y89500D02*
D03*
X44200Y82700D02*
D03*
X306000Y146000D02*
D03*
X5906Y104400D02*
D03*
X256800Y126600D02*
D03*
X259200Y52200D02*
D03*
M02*
