%FSLAX25Y25*%
%MOIN*%
G70*
G01*
G75*
G04 Layer_Color=8388736*
%ADD10C,0.01000*%
%ADD11C,0.01118*%
%ADD12C,0.01118*%
%ADD13R,0.05315X0.01575*%
%ADD14R,0.02559X0.02953*%
%ADD15R,0.20669X0.07874*%
%ADD16R,0.18701X0.02992*%
%ADD17R,0.02756X0.02756*%
%ADD18R,0.02953X0.02559*%
%ADD19R,0.03150X0.03937*%
%ADD20R,0.03543X0.04724*%
%ADD21R,0.07480X0.07480*%
%ADD22R,0.07480X0.06299*%
%ADD23R,0.06299X0.08268*%
%ADD24R,0.05906X0.03347*%
%ADD25R,0.03937X0.07087*%
%ADD26R,0.05709X0.03937*%
%ADD27R,0.02362X0.03150*%
%ADD28R,0.03543X0.09449*%
%ADD29R,0.12992X0.09449*%
%ADD30R,0.02362X0.02362*%
%ADD31R,0.02362X0.02362*%
%ADD32R,0.02362X0.02953*%
%ADD33R,0.01378X0.03347*%
%ADD34O,0.02362X0.07087*%
%ADD35O,0.05512X0.02362*%
%ADD36O,0.07087X0.02362*%
%ADD37O,0.10236X0.02362*%
%ADD38O,0.03347X0.00984*%
%ADD39R,0.06496X0.09370*%
%ADD40R,0.08189X0.08189*%
%ADD41O,0.02559X0.01181*%
%ADD42O,0.01181X0.02559*%
%ADD43R,0.10236X0.03937*%
%ADD44R,0.03937X0.10236*%
%ADD45R,0.03937X0.12992*%
%ADD46R,0.12992X0.03937*%
%ADD47O,0.02165X0.06693*%
%ADD48O,0.06693X0.02165*%
%ADD49C,0.01329*%
%ADD50C,0.02500*%
%ADD51C,0.01500*%
%ADD52C,0.01079*%
%ADD53R,0.36000X0.29000*%
%ADD54R,0.38000X0.29000*%
%ADD55R,0.05906X0.05906*%
%ADD56C,0.05906*%
%ADD57C,0.06000*%
%ADD58C,0.06693*%
%ADD59C,0.02500*%
%ADD60C,0.04000*%
%ADD61C,0.07543*%
G04:AMPARAMS|DCode=62|XSize=95.433mil|YSize=95.433mil|CornerRadius=0mil|HoleSize=0mil|Usage=FLASHONLY|Rotation=0.000|XOffset=0mil|YOffset=0mil|HoleType=Round|Shape=Relief|Width=10mil|Gap=10mil|Entries=4|*
%AMTHD62*
7,0,0,0.09543,0.07543,0.01000,45*
%
%ADD62THD62*%
G04:AMPARAMS|DCode=63|XSize=99.37mil|YSize=99.37mil|CornerRadius=0mil|HoleSize=0mil|Usage=FLASHONLY|Rotation=0.000|XOffset=0mil|YOffset=0mil|HoleType=Round|Shape=Relief|Width=10mil|Gap=10mil|Entries=4|*
%AMTHD63*
7,0,0,0.09937,0.07937,0.01000,45*
%
%ADD63THD63*%
G04:AMPARAMS|DCode=64|XSize=111.181mil|YSize=111.181mil|CornerRadius=0mil|HoleSize=0mil|Usage=FLASHONLY|Rotation=0.000|XOffset=0mil|YOffset=0mil|HoleType=Round|Shape=Relief|Width=10mil|Gap=10mil|Entries=4|*
%AMTHD64*
7,0,0,0.11118,0.09118,0.01000,45*
%
%ADD64THD64*%
%ADD65C,0.07937*%
%ADD66C,0.09118*%
%ADD67C,0.05500*%
%ADD68C,0.00984*%
%ADD69C,0.02362*%
%ADD70C,0.00394*%
%ADD71C,0.00787*%
%ADD72R,0.05709X0.01969*%
%ADD73R,0.03359X0.03753*%
%ADD74R,0.21469X0.08674*%
%ADD75R,0.19501X0.03792*%
%ADD76R,0.03556X0.03556*%
%ADD77R,0.03753X0.03359*%
%ADD78R,0.03950X0.04737*%
%ADD79R,0.04343X0.05524*%
%ADD80R,0.08280X0.08280*%
%ADD81R,0.08280X0.07099*%
%ADD82R,0.07099X0.09068*%
%ADD83R,0.06706X0.04147*%
%ADD84R,0.04737X0.07887*%
%ADD85R,0.06509X0.04737*%
%ADD86R,0.03162X0.03950*%
%ADD87R,0.04343X0.10249*%
%ADD88R,0.13792X0.10249*%
%ADD89R,0.03162X0.03162*%
%ADD90R,0.03162X0.03162*%
%ADD91R,0.03162X0.03753*%
%ADD92R,0.02178X0.04147*%
%ADD93O,0.03162X0.07887*%
%ADD94O,0.06312X0.03162*%
%ADD95O,0.07887X0.03162*%
%ADD96O,0.11036X0.03162*%
%ADD97O,0.03740X0.01378*%
%ADD98R,0.06890X0.09764*%
%ADD99R,0.08989X0.08989*%
%ADD100O,0.03359X0.01981*%
%ADD101O,0.01981X0.03359*%
%ADD102R,0.11036X0.04737*%
%ADD103R,0.04737X0.11036*%
%ADD104R,0.04737X0.13792*%
%ADD105R,0.13792X0.04737*%
%ADD106O,0.02559X0.07087*%
%ADD107O,0.07087X0.02559*%
%ADD108R,0.06706X0.06706*%
%ADD109C,0.06706*%
%ADD110C,0.06800*%
%ADD111C,0.07493*%
D72*
X297244Y65551D02*
D03*
Y68110D02*
D03*
Y62992D02*
D03*
Y70669D02*
D03*
Y73228D02*
D03*
D73*
X11811Y114272D02*
D03*
Y109744D02*
D03*
Y149902D02*
D03*
Y145374D02*
D03*
Y190532D02*
D03*
Y186004D02*
D03*
X269685Y53445D02*
D03*
Y48917D02*
D03*
X37795Y54823D02*
D03*
Y59350D02*
D03*
X51968Y54823D02*
D03*
Y59350D02*
D03*
X49000Y81636D02*
D03*
Y86164D02*
D03*
D74*
X10884Y77756D02*
D03*
Y40354D02*
D03*
D75*
X9900Y59055D02*
D03*
D76*
X5906Y191024D02*
D03*
Y185512D02*
D03*
Y150394D02*
D03*
Y144882D02*
D03*
Y114764D02*
D03*
Y109252D02*
D03*
D77*
X250295Y71653D02*
D03*
X245768D02*
D03*
X162106Y44882D02*
D03*
X157579D02*
D03*
Y50394D02*
D03*
X162106D02*
D03*
X158957Y112205D02*
D03*
X154429D02*
D03*
X158957Y121653D02*
D03*
X154429D02*
D03*
X158957Y131102D02*
D03*
X154429D02*
D03*
Y145276D02*
D03*
X158957D02*
D03*
X216831Y138189D02*
D03*
X212303D02*
D03*
Y143307D02*
D03*
X216831D02*
D03*
X212303Y124016D02*
D03*
X216831D02*
D03*
Y118898D02*
D03*
X212303D02*
D03*
X67564Y113100D02*
D03*
X63036D02*
D03*
D78*
X305118Y37402D02*
D03*
D79*
X306693Y43701D02*
D03*
Y31102D02*
D03*
D80*
X306299Y63386D02*
D03*
Y72835D02*
D03*
D81*
Y52756D02*
D03*
Y83465D02*
D03*
D82*
X297736Y55512D02*
D03*
Y80709D02*
D03*
D83*
X211811Y49508D02*
D03*
Y41831D02*
D03*
X221260Y49508D02*
D03*
Y41831D02*
D03*
X178347Y49508D02*
D03*
Y41831D02*
D03*
X169291Y49508D02*
D03*
Y41831D02*
D03*
D84*
X185630Y168504D02*
D03*
X195472D02*
D03*
D85*
X256594Y115551D02*
D03*
Y108858D02*
D03*
X236319Y115551D02*
D03*
Y108858D02*
D03*
Y131693D02*
D03*
Y138386D02*
D03*
X256594Y131693D02*
D03*
Y138386D02*
D03*
D86*
X32677Y54724D02*
D03*
Y59449D02*
D03*
D87*
X202756Y59055D02*
D03*
X211811D02*
D03*
X220866D02*
D03*
X160236Y59449D02*
D03*
X169291D02*
D03*
X178347D02*
D03*
D88*
X211811Y81890D02*
D03*
X169291Y82284D02*
D03*
D89*
X86221Y81496D02*
D03*
Y76772D02*
D03*
X96500Y55638D02*
D03*
Y60362D02*
D03*
X174400Y106662D02*
D03*
Y101938D02*
D03*
X269685Y79921D02*
D03*
Y84646D02*
D03*
X263779Y53543D02*
D03*
Y48819D02*
D03*
D90*
X67062Y117800D02*
D03*
X62338D02*
D03*
X62438Y95700D02*
D03*
X67162D02*
D03*
X62438Y100000D02*
D03*
X67162D02*
D03*
X62461Y104294D02*
D03*
X67185D02*
D03*
Y108624D02*
D03*
X62461D02*
D03*
X58412Y81796D02*
D03*
X53687D02*
D03*
X58412Y86127D02*
D03*
X53687D02*
D03*
X96657Y77909D02*
D03*
X101381D02*
D03*
X96657Y82239D02*
D03*
X101381D02*
D03*
X179527Y168504D02*
D03*
X174803D02*
D03*
X201181D02*
D03*
X205906D02*
D03*
X212598Y133465D02*
D03*
X217323D02*
D03*
X196438Y153100D02*
D03*
X201162D02*
D03*
X183862Y153300D02*
D03*
X179138D02*
D03*
X158661Y140551D02*
D03*
X153937D02*
D03*
X158661Y116929D02*
D03*
X153937D02*
D03*
X158661Y126378D02*
D03*
X153937D02*
D03*
X158661Y135827D02*
D03*
X153937D02*
D03*
X250394Y62992D02*
D03*
X245669D02*
D03*
X212598Y128740D02*
D03*
X217323D02*
D03*
X42520Y59842D02*
D03*
X47244D02*
D03*
D91*
X91339Y81398D02*
D03*
Y86319D02*
D03*
D92*
X96459Y72540D02*
D03*
X93900D02*
D03*
X91341D02*
D03*
Y65060D02*
D03*
X93900D02*
D03*
X96459D02*
D03*
D93*
X73622Y75984D02*
D03*
Y87008D02*
D03*
D94*
X66929Y76496D02*
D03*
Y81496D02*
D03*
Y86496D02*
D03*
X80315D02*
D03*
Y81496D02*
D03*
Y76496D02*
D03*
D95*
X72441Y64449D02*
D03*
Y59449D02*
D03*
Y54449D02*
D03*
X59055D02*
D03*
Y59449D02*
D03*
D96*
X60630Y64449D02*
D03*
D97*
X44882Y106890D02*
D03*
Y104921D02*
D03*
Y102953D02*
D03*
Y100984D02*
D03*
X56693D02*
D03*
Y102953D02*
D03*
Y104921D02*
D03*
Y106890D02*
D03*
D98*
X50787Y103937D02*
D03*
D99*
X265748Y66929D02*
D03*
D100*
X273721Y70768D02*
D03*
Y68209D02*
D03*
Y65650D02*
D03*
Y63090D02*
D03*
X257776D02*
D03*
Y65650D02*
D03*
Y68209D02*
D03*
Y70768D02*
D03*
D101*
X269587Y58957D02*
D03*
X267028D02*
D03*
X264469D02*
D03*
X261910D02*
D03*
Y74902D02*
D03*
X264469D02*
D03*
X267028D02*
D03*
X269587D02*
D03*
D102*
X83964Y42961D02*
D03*
X54436D02*
D03*
Y125639D02*
D03*
X83964D02*
D03*
D103*
X110539Y69536D02*
D03*
X27861D02*
D03*
Y99064D02*
D03*
X110539D02*
D03*
D104*
Y47489D02*
D03*
X27861D02*
D03*
Y121111D02*
D03*
X110539D02*
D03*
D105*
X106011Y42961D02*
D03*
X32389D02*
D03*
Y125639D02*
D03*
X106011D02*
D03*
D106*
X196457Y146260D02*
D03*
X193307D02*
D03*
X190157D02*
D03*
X187008D02*
D03*
X183858D02*
D03*
X180709D02*
D03*
X177559D02*
D03*
X174409D02*
D03*
Y113583D02*
D03*
X177559D02*
D03*
X180709D02*
D03*
X183858D02*
D03*
X187008D02*
D03*
X190157D02*
D03*
X193307D02*
D03*
X196457D02*
D03*
D107*
X169095Y140945D02*
D03*
Y137795D02*
D03*
Y134646D02*
D03*
Y131496D02*
D03*
Y128347D02*
D03*
Y125197D02*
D03*
Y122047D02*
D03*
Y118898D02*
D03*
X201772D02*
D03*
Y122047D02*
D03*
Y125197D02*
D03*
Y128347D02*
D03*
Y131496D02*
D03*
Y134646D02*
D03*
Y137795D02*
D03*
Y140945D02*
D03*
D108*
X120000Y180000D02*
D03*
X130000Y70000D02*
D03*
D109*
X120000Y170000D02*
D03*
X120000Y160000D02*
D03*
X130000D02*
D03*
X130000Y170000D02*
D03*
X130000Y180000D02*
D03*
Y150000D02*
D03*
X130000Y140000D02*
D03*
X130000Y130000D02*
D03*
X120000D02*
D03*
X120000Y140000D02*
D03*
X130000Y120000D02*
D03*
X130000Y110000D02*
D03*
X130000Y100000D02*
D03*
X120000D02*
D03*
X120000Y110000D02*
D03*
X130000Y90000D02*
D03*
X120000D02*
D03*
X120000Y150000D02*
D03*
Y120000D02*
D03*
X130000Y50000D02*
D03*
X130000Y60000D02*
D03*
D110*
X304498Y101552D02*
D03*
X304567Y119252D02*
D03*
X304498Y139552D02*
D03*
X304567Y157252D02*
D03*
X304498Y177552D02*
D03*
X304567Y195252D02*
D03*
D111*
X294812Y124269D02*
D03*
X294742Y96604D02*
D03*
X294812Y162269D02*
D03*
X294742Y134604D02*
D03*
X294812Y200269D02*
D03*
X294742Y172604D02*
D03*
M02*
