%FSLAX25Y25*%
%MOIN*%
G70*
G01*
G75*
G04 Layer_Physical_Order=4*
G04 Layer_Color=16711680*
%ADD10C,0.01000*%
%ADD11C,0.01118*%
%ADD12C,0.01118*%
%ADD13R,0.05315X0.01575*%
%ADD14R,0.02559X0.02953*%
%ADD15R,0.20669X0.07874*%
%ADD16R,0.18701X0.02992*%
%ADD17R,0.02756X0.02756*%
%ADD18R,0.02953X0.02559*%
%ADD19R,0.03150X0.03937*%
%ADD20R,0.03543X0.04724*%
%ADD21R,0.07480X0.07480*%
%ADD22R,0.07480X0.06299*%
%ADD23R,0.06299X0.08268*%
%ADD24R,0.05906X0.03347*%
%ADD25R,0.03937X0.07087*%
%ADD26R,0.05709X0.03937*%
%ADD27R,0.02362X0.03150*%
%ADD28R,0.03543X0.09449*%
%ADD29R,0.12992X0.09449*%
%ADD30R,0.02362X0.02362*%
%ADD31R,0.02362X0.02362*%
%ADD32R,0.02362X0.02953*%
%ADD33R,0.01378X0.03347*%
%ADD34O,0.02362X0.07087*%
%ADD35O,0.05512X0.02362*%
%ADD36O,0.07087X0.02362*%
%ADD37O,0.10236X0.02362*%
%ADD38O,0.03347X0.00984*%
%ADD39R,0.06496X0.09370*%
%ADD40R,0.08189X0.08189*%
%ADD41O,0.02559X0.01181*%
%ADD42O,0.01181X0.02559*%
%ADD43R,0.10236X0.03937*%
%ADD44R,0.03937X0.10236*%
%ADD45R,0.03937X0.12992*%
%ADD46R,0.12992X0.03937*%
%ADD47O,0.02165X0.06693*%
%ADD48O,0.06693X0.02165*%
%ADD49C,0.01329*%
%ADD50C,0.02500*%
%ADD51C,0.01500*%
%ADD52C,0.01079*%
%ADD53R,0.36000X0.29000*%
%ADD54R,0.38000X0.29000*%
%ADD55R,0.05906X0.05906*%
%ADD56C,0.05906*%
%ADD57C,0.06000*%
%ADD58C,0.06693*%
%ADD59C,0.02500*%
%ADD60C,0.04000*%
%ADD61C,0.07543*%
G04:AMPARAMS|DCode=62|XSize=95.433mil|YSize=95.433mil|CornerRadius=0mil|HoleSize=0mil|Usage=FLASHONLY|Rotation=0.000|XOffset=0mil|YOffset=0mil|HoleType=Round|Shape=Relief|Width=10mil|Gap=10mil|Entries=4|*
%AMTHD62*
7,0,0,0.09543,0.07543,0.01000,45*
%
%ADD62THD62*%
G04:AMPARAMS|DCode=63|XSize=99.37mil|YSize=99.37mil|CornerRadius=0mil|HoleSize=0mil|Usage=FLASHONLY|Rotation=0.000|XOffset=0mil|YOffset=0mil|HoleType=Round|Shape=Relief|Width=10mil|Gap=10mil|Entries=4|*
%AMTHD63*
7,0,0,0.09937,0.07937,0.01000,45*
%
%ADD63THD63*%
G04:AMPARAMS|DCode=64|XSize=111.181mil|YSize=111.181mil|CornerRadius=0mil|HoleSize=0mil|Usage=FLASHONLY|Rotation=0.000|XOffset=0mil|YOffset=0mil|HoleType=Round|Shape=Relief|Width=10mil|Gap=10mil|Entries=4|*
%AMTHD64*
7,0,0,0.11118,0.09118,0.01000,45*
%
%ADD64THD64*%
%ADD65C,0.07937*%
%ADD66C,0.09118*%
%ADD67C,0.05500*%
G36*
X176000Y163540D02*
Y162000D01*
X177540D01*
X180788Y158752D01*
X180643Y158273D01*
X180517Y158248D01*
X179938Y157862D01*
X179551Y157283D01*
X179416Y156600D01*
X179465Y156354D01*
X179024Y156118D01*
X144621Y190521D01*
X144290Y190742D01*
X143900Y190820D01*
X39200D01*
X38810Y190742D01*
X38479Y190521D01*
X5279Y157321D01*
X5058Y156990D01*
X4980Y156600D01*
Y141423D01*
X4738Y141262D01*
X4479Y140873D01*
X4000Y141018D01*
Y179282D01*
X4479Y179427D01*
X4738Y179038D01*
X5317Y178651D01*
X6000Y178516D01*
X6683Y178651D01*
X7262Y179038D01*
X7649Y179617D01*
X7784Y180300D01*
X7762Y180410D01*
X12944Y185592D01*
X13423Y185447D01*
X13448Y185321D01*
X13834Y184742D01*
X14413Y184355D01*
X15096Y184220D01*
X15779Y184355D01*
X16358Y184742D01*
X16745Y185321D01*
X16880Y186004D01*
X16745Y186687D01*
X16358Y187266D01*
X15779Y187652D01*
X15653Y187677D01*
X15508Y188156D01*
X19633Y192280D01*
X147260D01*
X176000Y163540D01*
D02*
G37*
G36*
X312000Y4000D02*
X4000D01*
Y35417D01*
X10384D01*
Y40354D01*
Y45291D01*
X4000D01*
Y72819D01*
X10384D01*
Y77756D01*
Y82693D01*
X4000D01*
Y103241D01*
X4479Y103386D01*
X4644Y103138D01*
X5223Y102752D01*
X5906Y102616D01*
X6588Y102752D01*
X7167Y103138D01*
X7554Y103717D01*
X7690Y104400D01*
X7554Y105083D01*
X7167Y105662D01*
X7120Y105693D01*
Y123978D01*
X68822Y185680D01*
X141678D01*
X182780Y144578D01*
Y141902D01*
X182302Y141757D01*
X181970Y142253D01*
X181728Y142415D01*
Y143791D01*
X181651Y144182D01*
X181430Y144512D01*
X169971Y155971D01*
X169640Y156192D01*
X169250Y156270D01*
X145172D01*
X133065Y168377D01*
X133364Y169099D01*
X133483Y170000D01*
X133364Y170901D01*
X133016Y171741D01*
X132463Y172462D01*
X131741Y173016D01*
X130901Y173364D01*
X130000Y173482D01*
X129099Y173364D01*
X128259Y173016D01*
X127537Y172462D01*
X126984Y171741D01*
X126636Y170901D01*
X126517Y170000D01*
X126636Y169099D01*
X126984Y168259D01*
X127537Y167537D01*
X128259Y166984D01*
X129099Y166636D01*
X130000Y166517D01*
X130901Y166636D01*
X131623Y166935D01*
X133124Y165434D01*
X132932Y164972D01*
X123953D01*
X123563Y164895D01*
X123232Y164674D01*
X121623Y163065D01*
X120901Y163364D01*
X120000Y163482D01*
X119099Y163364D01*
X118259Y163016D01*
X117537Y162462D01*
X116984Y161741D01*
X116636Y160901D01*
X116517Y160000D01*
X116636Y159099D01*
X116984Y158259D01*
X117537Y157537D01*
X118259Y156984D01*
X119099Y156636D01*
X120000Y156518D01*
X120901Y156636D01*
X121741Y156984D01*
X122462Y157537D01*
X123016Y158259D01*
X123364Y159099D01*
X123483Y160000D01*
X123364Y160901D01*
X123065Y161623D01*
X124375Y162933D01*
X127378D01*
X127538Y162462D01*
X126984Y161741D01*
X126636Y160901D01*
X126517Y160000D01*
X126636Y159099D01*
X126984Y158259D01*
X127538Y157537D01*
X128259Y156984D01*
X129099Y156636D01*
X130000Y156518D01*
X130901Y156636D01*
X131623Y156935D01*
X137076Y151481D01*
X136885Y151020D01*
X133315D01*
X133016Y151741D01*
X132463Y152462D01*
X131741Y153016D01*
X130901Y153364D01*
X130000Y153482D01*
X129099Y153364D01*
X128259Y153016D01*
X127538Y152462D01*
X126984Y151741D01*
X126636Y150901D01*
X126517Y150000D01*
X126636Y149099D01*
X126984Y148259D01*
X127538Y147538D01*
X127378Y147067D01*
X124375D01*
X123065Y148377D01*
X123364Y149099D01*
X123483Y150000D01*
X123364Y150901D01*
X123016Y151741D01*
X122462Y152462D01*
X121741Y153016D01*
X120901Y153364D01*
X120000Y153482D01*
X119099Y153364D01*
X118259Y153016D01*
X117537Y152462D01*
X116984Y151741D01*
X116636Y150901D01*
X116517Y150000D01*
X116636Y149099D01*
X116984Y148259D01*
X117537Y147537D01*
X118259Y146984D01*
X119099Y146636D01*
X120000Y146517D01*
X120901Y146636D01*
X121623Y146935D01*
X123232Y145326D01*
X123346Y145250D01*
Y144750D01*
X123232Y144674D01*
X121623Y143065D01*
X120901Y143364D01*
X120000Y143482D01*
X119099Y143364D01*
X118259Y143016D01*
X117537Y142462D01*
X116984Y141741D01*
X116636Y140901D01*
X116517Y140000D01*
X116636Y139099D01*
X116984Y138259D01*
X117537Y137537D01*
X118259Y136984D01*
X119099Y136636D01*
X120000Y136517D01*
X120901Y136636D01*
X121741Y136984D01*
X122462Y137537D01*
X123016Y138259D01*
X123364Y139099D01*
X123483Y140000D01*
X123364Y140901D01*
X123065Y141623D01*
X124375Y142933D01*
X127378D01*
X127537Y142462D01*
X126984Y141741D01*
X126636Y140901D01*
X126517Y140000D01*
X126636Y139099D01*
X126984Y138259D01*
X127537Y137537D01*
X128259Y136984D01*
X129099Y136636D01*
X130000Y136517D01*
X130901Y136636D01*
X131741Y136984D01*
X132463Y137537D01*
X133016Y138259D01*
X133315Y138980D01*
X152078D01*
X154724Y136334D01*
X154533Y135872D01*
X124852D01*
X124462Y135794D01*
X124131Y135573D01*
X121623Y133065D01*
X120901Y133364D01*
X120000Y133483D01*
X119099Y133364D01*
X118259Y133016D01*
X117537Y132463D01*
X116984Y131741D01*
X116636Y130901D01*
X116517Y130000D01*
X116636Y129099D01*
X116984Y128259D01*
X117537Y127538D01*
X118259Y126984D01*
X119099Y126636D01*
X120000Y126517D01*
X120901Y126636D01*
X121741Y126984D01*
X122462Y127538D01*
X123016Y128259D01*
X123364Y129099D01*
X123483Y130000D01*
X123364Y130901D01*
X123065Y131623D01*
X125275Y133833D01*
X128949D01*
X129047Y133342D01*
X128259Y133016D01*
X127538Y132463D01*
X126984Y131741D01*
X126636Y130901D01*
X126517Y130000D01*
X126636Y129099D01*
X126984Y128259D01*
X127538Y127538D01*
X128259Y126984D01*
X129099Y126636D01*
X130000Y126517D01*
X130901Y126636D01*
X131741Y126984D01*
X132463Y127538D01*
X133016Y128259D01*
X133364Y129099D01*
X133483Y130000D01*
X133364Y130901D01*
X133065Y131623D01*
X133775Y132333D01*
X148189D01*
X148425Y131892D01*
X148354Y131785D01*
X148218Y131102D01*
X148354Y130420D01*
X148741Y129841D01*
X149320Y129454D01*
X150002Y129318D01*
X150288Y129375D01*
X162181Y117482D01*
X161990Y117020D01*
X156029D01*
X151681Y121368D01*
X151738Y121653D01*
X151602Y122336D01*
X151215Y122915D01*
X150636Y123302D01*
X149953Y123438D01*
X149271Y123302D01*
X148692Y122915D01*
X148305Y122336D01*
X148169Y121653D01*
X148305Y120971D01*
X148692Y120392D01*
X149271Y120005D01*
X149953Y119869D01*
X150239Y119926D01*
X154334Y115831D01*
X154142Y115370D01*
X152750D01*
X152360Y115292D01*
X152029Y115071D01*
X150890Y113932D01*
X150605Y113989D01*
X149922Y113853D01*
X149343Y113466D01*
X148956Y112888D01*
X148820Y112205D01*
X148956Y111522D01*
X149343Y110943D01*
X149922Y110556D01*
X150605Y110421D01*
X151287Y110556D01*
X151866Y110943D01*
X152253Y111522D01*
X152389Y112205D01*
X152332Y112490D01*
X153172Y113330D01*
X161087D01*
X161323Y112890D01*
X161251Y112783D01*
X161116Y112100D01*
X161251Y111417D01*
X161638Y110838D01*
X162217Y110451D01*
X162900Y110316D01*
X163583Y110451D01*
X164162Y110838D01*
X164323Y111080D01*
X170041D01*
X170090Y110583D01*
X169917Y110548D01*
X169338Y110162D01*
X168951Y109583D01*
X168816Y108900D01*
X168951Y108217D01*
X169156Y107911D01*
X168921Y107470D01*
X143972D01*
X133065Y118377D01*
X133364Y119099D01*
X133483Y120000D01*
X133364Y120901D01*
X133016Y121741D01*
X132463Y122462D01*
X131741Y123016D01*
X130901Y123364D01*
X130000Y123483D01*
X129099Y123364D01*
X128259Y123016D01*
X127538Y122462D01*
X126984Y121741D01*
X126636Y120901D01*
X126517Y120000D01*
X126636Y119099D01*
X126984Y118259D01*
X127538Y117537D01*
X128259Y116984D01*
X129099Y116636D01*
X130000Y116517D01*
X130901Y116636D01*
X131623Y116935D01*
X142829Y105729D01*
X143160Y105508D01*
X143063Y105020D01*
X136422D01*
X133065Y108377D01*
X133364Y109099D01*
X133483Y110000D01*
X133364Y110901D01*
X133016Y111741D01*
X132463Y112462D01*
X131741Y113016D01*
X130901Y113364D01*
X130000Y113482D01*
X129099Y113364D01*
X128259Y113016D01*
X127537Y112462D01*
X126984Y111741D01*
X126636Y110901D01*
X126517Y110000D01*
X126636Y109099D01*
X126984Y108259D01*
X127537Y107537D01*
X128259Y106984D01*
X129099Y106636D01*
X130000Y106517D01*
X130901Y106636D01*
X131623Y106935D01*
X135279Y103279D01*
X135610Y103058D01*
X136000Y102980D01*
X185982D01*
X186091Y102433D01*
X184678Y101020D01*
X133315D01*
X133016Y101741D01*
X132463Y102462D01*
X131741Y103016D01*
X130901Y103364D01*
X130000Y103482D01*
X129099Y103364D01*
X128259Y103016D01*
X127538Y102462D01*
X126984Y101741D01*
X126636Y100901D01*
X126517Y100000D01*
X126636Y99099D01*
X126984Y98259D01*
X127538Y97537D01*
X128259Y96984D01*
X129099Y96636D01*
X130000Y96517D01*
X130901Y96636D01*
X131741Y96984D01*
X132463Y97537D01*
X133016Y98259D01*
X133315Y98980D01*
X185100D01*
X185155Y98991D01*
X185390Y98550D01*
X177860Y91020D01*
X133315D01*
X133016Y91741D01*
X132463Y92462D01*
X131741Y93016D01*
X130901Y93364D01*
X130000Y93483D01*
X129099Y93364D01*
X128259Y93016D01*
X127538Y92462D01*
X126984Y91741D01*
X126636Y90901D01*
X126517Y90000D01*
X126636Y89099D01*
X126984Y88259D01*
X127538Y87537D01*
X128259Y86984D01*
X129099Y86636D01*
X130000Y86518D01*
X130901Y86636D01*
X131741Y86984D01*
X132463Y87537D01*
X133016Y88259D01*
X133315Y88980D01*
X178282D01*
X178672Y89058D01*
X179003Y89279D01*
X196228Y106504D01*
X196457Y106459D01*
X197140Y106595D01*
X197718Y106982D01*
X198105Y107561D01*
X198241Y108243D01*
X198105Y108926D01*
X197718Y109505D01*
X197140Y109892D01*
X196457Y110028D01*
X195774Y109892D01*
X195195Y109505D01*
X195114Y109384D01*
X194614D01*
X194562Y109462D01*
X193983Y109848D01*
X193300Y109984D01*
X192617Y109848D01*
X192038Y109462D01*
X191983Y109379D01*
X191483D01*
X191362Y109562D01*
X190783Y109949D01*
X190100Y110084D01*
X189417Y109949D01*
X188838Y109562D01*
X188362D01*
X187783Y109949D01*
X187100Y110084D01*
X186417Y109949D01*
X185838Y109562D01*
X185451Y108983D01*
X185316Y108300D01*
X185372Y108014D01*
X184828Y107470D01*
X179413D01*
X179177Y107911D01*
X179248Y108017D01*
X179384Y108700D01*
X179248Y109383D01*
X178862Y109962D01*
X178283Y110348D01*
X177600Y110484D01*
X177314Y110427D01*
X174921Y112821D01*
X174875Y112852D01*
X175020Y113330D01*
X299666D01*
X300056Y113408D01*
X300387Y113629D01*
X302908Y116151D01*
X303654Y115842D01*
X304567Y115721D01*
X305481Y115842D01*
X306332Y116194D01*
X307064Y116755D01*
X307625Y117487D01*
X307977Y118338D01*
X308098Y119252D01*
X307977Y120165D01*
X307625Y121017D01*
X307064Y121748D01*
X306332Y122309D01*
X305481Y122662D01*
X304567Y122782D01*
X303654Y122662D01*
X302802Y122309D01*
X302071Y121748D01*
X301510Y121017D01*
X301157Y120165D01*
X301037Y119252D01*
X301157Y118338D01*
X301466Y117593D01*
X299243Y115370D01*
X264780D01*
X264589Y115831D01*
X302908Y154151D01*
X303654Y153842D01*
X304567Y153721D01*
X305481Y153842D01*
X306332Y154194D01*
X307064Y154755D01*
X307625Y155487D01*
X307977Y156338D01*
X308098Y157252D01*
X307977Y158165D01*
X307625Y159017D01*
X307064Y159748D01*
X306332Y160309D01*
X305481Y160662D01*
X304567Y160782D01*
X303654Y160662D01*
X302802Y160309D01*
X302071Y159748D01*
X301510Y159017D01*
X301157Y158165D01*
X301037Y157252D01*
X301157Y156338D01*
X301466Y155593D01*
X262893Y117020D01*
X228430D01*
X228239Y117482D01*
X302908Y192151D01*
X303654Y191842D01*
X304567Y191721D01*
X305481Y191842D01*
X306332Y192194D01*
X307064Y192755D01*
X307625Y193487D01*
X307977Y194338D01*
X308098Y195252D01*
X307977Y196165D01*
X307625Y197017D01*
X307064Y197748D01*
X306332Y198309D01*
X305481Y198662D01*
X304567Y198782D01*
X303654Y198662D01*
X302802Y198309D01*
X302071Y197748D01*
X301510Y197017D01*
X301157Y196165D01*
X301037Y195252D01*
X301157Y194338D01*
X301466Y193593D01*
X226793Y118920D01*
X210747D01*
X210602Y119398D01*
X210962Y119638D01*
X211349Y120217D01*
X211484Y120900D01*
X211349Y121583D01*
X210962Y122162D01*
X210383Y122548D01*
X209700Y122684D01*
X209017Y122548D01*
X208438Y122162D01*
X208051Y121583D01*
X207916Y120900D01*
X208051Y120217D01*
X208438Y119638D01*
X208798Y119398D01*
X208653Y118920D01*
X196646D01*
X196410Y119360D01*
X196649Y119717D01*
X196784Y120400D01*
X196649Y121083D01*
X196262Y121662D01*
X196162Y121729D01*
Y122138D01*
X196548Y122717D01*
X196684Y123400D01*
X196548Y124083D01*
X196162Y124662D01*
X195830Y124883D01*
Y125383D01*
X196062Y125538D01*
X196449Y126117D01*
X196584Y126800D01*
X196449Y127483D01*
X196062Y128062D01*
D01*
X196162Y128538D01*
D01*
X196548Y129117D01*
X196684Y129800D01*
X196548Y130483D01*
X196162Y131062D01*
X195583Y131448D01*
X195305Y131504D01*
X195114Y131966D01*
X195149Y132017D01*
X195284Y132700D01*
X195149Y133383D01*
X194846Y133835D01*
X195124Y134251D01*
X195300Y134216D01*
X195983Y134352D01*
X196562Y134738D01*
X196949Y135317D01*
X197084Y136000D01*
X196949Y136683D01*
X196562Y137262D01*
X195983Y137648D01*
X195300Y137784D01*
X195181Y137761D01*
X194630Y138312D01*
X194775Y138790D01*
X195083Y138851D01*
X195662Y139238D01*
X195757Y139380D01*
X197378D01*
X207573Y129186D01*
X207516Y128900D01*
X207651Y128217D01*
X208038Y127638D01*
X208617Y127252D01*
X209300Y127116D01*
X209983Y127252D01*
X210562Y127638D01*
X210948Y128217D01*
X211084Y128900D01*
X210948Y129583D01*
X210562Y130162D01*
X209983Y130549D01*
X209300Y130684D01*
X209014Y130628D01*
X198521Y141121D01*
X198190Y141342D01*
X197800Y141420D01*
X195890D01*
X195662Y141762D01*
X195083Y142148D01*
X194400Y142284D01*
X193717Y142148D01*
X193138Y141762D01*
X192752Y141183D01*
X192690Y140875D01*
X192212Y140730D01*
X188520Y144422D01*
Y153482D01*
X188442Y153872D01*
X188221Y154203D01*
X180886Y161538D01*
X181077Y162000D01*
X205000D01*
Y176000D01*
X176000D01*
Y167077D01*
X175538Y166886D01*
X148403Y194021D01*
X148072Y194242D01*
X147682Y194320D01*
X19210D01*
X18820Y194242D01*
X18489Y194021D01*
X6461Y181993D01*
X6000Y182084D01*
X5317Y181948D01*
X4738Y181562D01*
X4479Y181173D01*
X4000Y181318D01*
Y214000D01*
X312000D01*
Y4000D01*
D02*
G37*
G36*
X184980Y147278D02*
Y146028D01*
X184535Y145730D01*
X184519Y145723D01*
X142821Y187421D01*
X142490Y187642D01*
X142100Y187720D01*
X68400D01*
X68010Y187642D01*
X67679Y187421D01*
X5379Y125121D01*
X5158Y124790D01*
X5080Y124400D01*
Y105953D01*
X4644Y105662D01*
X4479Y105414D01*
X4000Y105559D01*
Y138982D01*
X4479Y139127D01*
X4738Y138738D01*
X5317Y138352D01*
X6000Y138216D01*
X6683Y138352D01*
X7262Y138738D01*
X7649Y139317D01*
X7784Y140000D01*
X7649Y140683D01*
X7262Y141262D01*
X7020Y141423D01*
Y156178D01*
X39622Y188780D01*
X143478D01*
X184980Y147278D01*
D02*
G37*
%LPC*%
G36*
X60000Y97484D02*
X59317Y97348D01*
X58738Y96962D01*
X58351Y96383D01*
X58216Y95700D01*
X58351Y95017D01*
X58738Y94438D01*
X59317Y94051D01*
X60000Y93916D01*
X60683Y94051D01*
X61262Y94438D01*
X61648Y95017D01*
X61784Y95700D01*
X61648Y96383D01*
X61262Y96962D01*
X60683Y97348D01*
X60000Y97484D01*
D02*
G37*
G36*
X123921Y99500D02*
X120500D01*
Y96079D01*
X121032Y96149D01*
X121993Y96547D01*
X122819Y97181D01*
X123453Y98007D01*
X123851Y98968D01*
X123921Y99500D01*
D02*
G37*
G36*
X119500D02*
X116079D01*
X116149Y98968D01*
X116547Y98007D01*
X117181Y97181D01*
X118007Y96547D01*
X118968Y96149D01*
X119500Y96079D01*
Y99500D01*
D02*
G37*
G36*
X294742Y100484D02*
X293738Y100352D01*
X292802Y99964D01*
X291999Y99348D01*
X291382Y98544D01*
X290994Y97608D01*
X290862Y96604D01*
X290994Y95600D01*
X291382Y94665D01*
X291999Y93861D01*
X292802Y93244D01*
X293738Y92857D01*
X294742Y92725D01*
X295746Y92857D01*
X296682Y93244D01*
X297485Y93861D01*
X298102Y94665D01*
X298489Y95600D01*
X298621Y96604D01*
X298489Y97608D01*
X298102Y98544D01*
X297485Y99348D01*
X296682Y99964D01*
X295746Y100352D01*
X294742Y100484D01*
D02*
G37*
G36*
X93900Y90784D02*
X93217Y90649D01*
X92638Y90262D01*
X92251Y89683D01*
X92116Y89000D01*
X92251Y88317D01*
X92638Y87738D01*
X93217Y87352D01*
X93900Y87216D01*
X94583Y87352D01*
X95162Y87738D01*
X95548Y88317D01*
X95684Y89000D01*
X95548Y89683D01*
X95162Y90262D01*
X94583Y90649D01*
X93900Y90784D01*
D02*
G37*
G36*
X119500Y93921D02*
X118968Y93851D01*
X118007Y93453D01*
X117181Y92819D01*
X116547Y91993D01*
X116149Y91032D01*
X116079Y90500D01*
X119500D01*
Y93921D01*
D02*
G37*
G36*
X120500D02*
Y90500D01*
X123921D01*
X123851Y91032D01*
X123453Y91993D01*
X122819Y92819D01*
X121993Y93453D01*
X121032Y93851D01*
X120500Y93921D01*
D02*
G37*
G36*
X303998Y101052D02*
X300529D01*
X300601Y100508D01*
X301004Y99535D01*
X301645Y98699D01*
X302480Y98058D01*
X303453Y97655D01*
X303998Y97583D01*
Y101052D01*
D02*
G37*
G36*
X119500Y109500D02*
X116079D01*
X116149Y108968D01*
X116547Y108007D01*
X117181Y107181D01*
X118007Y106547D01*
X118968Y106149D01*
X119500Y106079D01*
Y109500D01*
D02*
G37*
G36*
X70006Y106078D02*
X69323Y105942D01*
X68745Y105555D01*
X68358Y104976D01*
X68222Y104294D01*
X68358Y103611D01*
X68745Y103032D01*
X69323Y102645D01*
X70006Y102509D01*
X70689Y102645D01*
X71268Y103032D01*
X71655Y103611D01*
X71791Y104294D01*
X71655Y104976D01*
X71268Y105555D01*
X70689Y105942D01*
X70006Y106078D01*
D02*
G37*
G36*
X70000Y110484D02*
X69317Y110348D01*
X68738Y109962D01*
X68352Y109383D01*
X68216Y108700D01*
X68352Y108017D01*
X68738Y107438D01*
X69317Y107052D01*
X70000Y106916D01*
X70683Y107052D01*
X71262Y107438D01*
X71649Y108017D01*
X71784Y108700D01*
X71649Y109383D01*
X71262Y109962D01*
X70683Y110348D01*
X70000Y110484D01*
D02*
G37*
G36*
X123921Y109500D02*
X120500D01*
Y106079D01*
X121032Y106149D01*
X121993Y106547D01*
X122819Y107181D01*
X123453Y108007D01*
X123851Y108968D01*
X123921Y109500D01*
D02*
G37*
G36*
X304998Y105521D02*
Y102052D01*
X308466D01*
X308395Y102596D01*
X307992Y103569D01*
X307350Y104405D01*
X306515Y105046D01*
X305542Y105449D01*
X304998Y105521D01*
D02*
G37*
G36*
X119500Y103921D02*
X118968Y103851D01*
X118007Y103453D01*
X117181Y102819D01*
X116547Y101993D01*
X116149Y101032D01*
X116079Y100500D01*
X119500D01*
Y103921D01*
D02*
G37*
G36*
X308466Y101052D02*
X304998D01*
Y97583D01*
X305542Y97655D01*
X306515Y98058D01*
X307350Y98699D01*
X307992Y99535D01*
X308395Y100508D01*
X308466Y101052D01*
D02*
G37*
G36*
X303998Y105521D02*
X303453Y105449D01*
X302480Y105046D01*
X301645Y104405D01*
X301004Y103569D01*
X300601Y102596D01*
X300529Y102052D01*
X303998D01*
Y105521D01*
D02*
G37*
G36*
X120500Y103921D02*
Y100500D01*
X123921D01*
X123851Y101032D01*
X123453Y101993D01*
X122819Y102819D01*
X121993Y103453D01*
X121032Y103851D01*
X120500Y103921D01*
D02*
G37*
G36*
X123921Y89500D02*
X120500D01*
Y86079D01*
X121032Y86149D01*
X121993Y86547D01*
X122819Y87181D01*
X123453Y88007D01*
X123851Y88968D01*
X123921Y89500D01*
D02*
G37*
G36*
X188292Y51292D02*
X185108D01*
X184425Y51156D01*
X183846Y50770D01*
X183459Y50191D01*
X183324Y49508D01*
X183459Y48825D01*
X183846Y48246D01*
X184425Y47859D01*
X185108Y47724D01*
X188292D01*
X188975Y47859D01*
X189554Y48246D01*
X189941Y48825D01*
X190076Y49508D01*
X189941Y50191D01*
X189554Y50770D01*
X188975Y51156D01*
X188292Y51292D01*
D02*
G37*
G36*
X232000Y51084D02*
X228000D01*
X227317Y50949D01*
X226738Y50562D01*
X226351Y49983D01*
X226216Y49300D01*
X226351Y48617D01*
X226738Y48038D01*
X227317Y47651D01*
X228000Y47516D01*
X232000D01*
X232683Y47651D01*
X233262Y48038D01*
X233648Y48617D01*
X233784Y49300D01*
X233648Y49983D01*
X233262Y50562D01*
X232683Y50949D01*
X232000Y51084D01*
D02*
G37*
G36*
X290400Y62284D02*
X289717Y62148D01*
X289138Y61762D01*
X288752Y61183D01*
X288616Y60500D01*
X288752Y59817D01*
X289125Y59258D01*
Y57493D01*
X288851Y57083D01*
X288716Y56400D01*
X288851Y55717D01*
X289238Y55138D01*
X289817Y54751D01*
X290500Y54616D01*
X291183Y54751D01*
X291762Y55138D01*
X292148Y55717D01*
X292284Y56400D01*
X292148Y57083D01*
X291762Y57662D01*
X291674Y57720D01*
Y59258D01*
X292049Y59817D01*
X292184Y60500D01*
X292049Y61183D01*
X291662Y61762D01*
X291083Y62148D01*
X290400Y62284D01*
D02*
G37*
G36*
X259200Y53984D02*
X258517Y53848D01*
X257938Y53462D01*
X257552Y52883D01*
X257416Y52200D01*
X257552Y51517D01*
X257938Y50938D01*
X258517Y50551D01*
X259200Y50416D01*
X259883Y50551D01*
X260462Y50938D01*
X260848Y51517D01*
X260984Y52200D01*
X260848Y52883D01*
X260462Y53462D01*
X259883Y53848D01*
X259200Y53984D01*
D02*
G37*
G36*
X300300Y39184D02*
X299617Y39048D01*
X299038Y38662D01*
X298652Y38083D01*
X298516Y37400D01*
X298652Y36717D01*
X299038Y36138D01*
X299617Y35752D01*
X300300Y35616D01*
X300983Y35752D01*
X301562Y36138D01*
X301948Y36717D01*
X302084Y37400D01*
X301948Y38083D01*
X301562Y38662D01*
X300983Y39048D01*
X300300Y39184D01*
D02*
G37*
G36*
X22219Y39854D02*
X11384D01*
Y35417D01*
X22219D01*
Y39854D01*
D02*
G37*
G36*
X130000Y53483D02*
X129099Y53364D01*
X128259Y53016D01*
X127538Y52463D01*
X126984Y51741D01*
X126636Y50901D01*
X126517Y50000D01*
X126636Y49099D01*
X126984Y48259D01*
X127538Y47537D01*
X128259Y46984D01*
X129099Y46636D01*
X130000Y46518D01*
X130901Y46636D01*
X131741Y46984D01*
X132463Y47537D01*
X133016Y48259D01*
X133364Y49099D01*
X133483Y50000D01*
X133364Y50901D01*
X133016Y51741D01*
X132463Y52463D01*
X131741Y53016D01*
X130901Y53364D01*
X130000Y53483D01*
D02*
G37*
G36*
X22219Y45291D02*
X11384D01*
Y40854D01*
X22219D01*
Y45291D01*
D02*
G37*
G36*
X130000Y63482D02*
X129099Y63364D01*
X128259Y63016D01*
X127537Y62462D01*
X126984Y61741D01*
X126636Y60901D01*
X126517Y60000D01*
X126636Y59099D01*
X126984Y58259D01*
X127537Y57537D01*
X128259Y56984D01*
X129099Y56636D01*
X130000Y56517D01*
X130901Y56636D01*
X131741Y56984D01*
X132463Y57537D01*
X133016Y58259D01*
X133364Y59099D01*
X133483Y60000D01*
X133364Y60901D01*
X133016Y61741D01*
X132463Y62462D01*
X131741Y63016D01*
X130901Y63364D01*
X130000Y63482D01*
D02*
G37*
G36*
X273200Y81984D02*
X272517Y81849D01*
X271938Y81462D01*
X271551Y80883D01*
X271416Y80200D01*
X271551Y79517D01*
X271938Y78938D01*
X272517Y78552D01*
X273200Y78416D01*
X273883Y78552D01*
X274462Y78938D01*
X274849Y79517D01*
X274984Y80200D01*
X274849Y80883D01*
X274462Y81462D01*
X273883Y81849D01*
X273200Y81984D01*
D02*
G37*
G36*
X22219Y82693D02*
X11384D01*
Y78256D01*
X22219D01*
Y82693D01*
D02*
G37*
G36*
X119500Y89500D02*
X116079D01*
X116149Y88968D01*
X116547Y88007D01*
X117181Y87181D01*
X118007Y86547D01*
X118968Y86149D01*
X119500Y86079D01*
Y89500D01*
D02*
G37*
G36*
X96657Y86728D02*
X95974Y86592D01*
X95395Y86205D01*
X95008Y85626D01*
X94872Y84943D01*
X95008Y84260D01*
X95395Y83682D01*
X95974Y83295D01*
X96657Y83159D01*
X97339Y83295D01*
X97918Y83682D01*
X98305Y84260D01*
X98441Y84943D01*
X98305Y85626D01*
X97918Y86205D01*
X97339Y86592D01*
X96657Y86728D01*
D02*
G37*
G36*
X196200Y73484D02*
X195517Y73348D01*
X194938Y72962D01*
X194552Y72383D01*
X194416Y71700D01*
X194552Y71017D01*
X194938Y70438D01*
X195220Y70250D01*
Y69750D01*
X194938Y69562D01*
X194552Y68983D01*
X194416Y68300D01*
X194552Y67617D01*
X194938Y67038D01*
X195517Y66651D01*
X196200Y66516D01*
X196883Y66651D01*
X197462Y67038D01*
X197848Y67617D01*
X197984Y68300D01*
X197848Y68983D01*
X197462Y69562D01*
X197180Y69750D01*
Y70250D01*
X197462Y70438D01*
X197848Y71017D01*
X197984Y71700D01*
X197848Y72383D01*
X197462Y72962D01*
X196883Y73348D01*
X196200Y73484D01*
D02*
G37*
G36*
X212000Y104484D02*
X211317Y104349D01*
X210738Y103962D01*
X210351Y103383D01*
X210216Y102700D01*
X210351Y102017D01*
X210738Y101438D01*
X211317Y101051D01*
X212000Y100916D01*
X212286Y100972D01*
X231080Y82178D01*
Y74223D01*
X230838Y74062D01*
X230451Y73483D01*
X230316Y72800D01*
X230451Y72117D01*
X230838Y71538D01*
X231417Y71152D01*
X232100Y71016D01*
X232221Y71040D01*
X232457Y70599D01*
X232079Y70221D01*
X231858Y69890D01*
X231780Y69500D01*
Y60300D01*
X231858Y59910D01*
X232079Y59579D01*
X248679Y42979D01*
X249010Y42758D01*
X249400Y42680D01*
X298377D01*
X298538Y42438D01*
X299117Y42052D01*
X299800Y41916D01*
X300483Y42052D01*
X301062Y42438D01*
X301448Y43017D01*
X301584Y43700D01*
X301448Y44383D01*
X301062Y44962D01*
X300483Y45349D01*
X299800Y45484D01*
X299117Y45349D01*
X298538Y44962D01*
X298377Y44720D01*
X249822D01*
X233820Y60722D01*
Y69078D01*
X238322Y73580D01*
X238877D01*
X239038Y73338D01*
X239383Y73108D01*
X239269Y72621D01*
X238891Y72571D01*
X237857Y72143D01*
X236969Y71462D01*
X236288Y70574D01*
X235859Y69540D01*
X235713Y68431D01*
X235859Y67321D01*
X236063Y66831D01*
X235859Y66340D01*
X235713Y65231D01*
X235859Y64121D01*
X236288Y63087D01*
X236969Y62200D01*
X237857Y61518D01*
X238891Y61090D01*
X240000Y60944D01*
X241109Y61090D01*
X242143Y61518D01*
X242927Y62120D01*
X281773D01*
X282557Y61518D01*
X283591Y61090D01*
X284700Y60944D01*
X285809Y61090D01*
X286843Y61518D01*
X287731Y62200D01*
X288412Y63087D01*
X288841Y64121D01*
X288987Y65231D01*
X288841Y66340D01*
X288637Y66831D01*
X288841Y67321D01*
X288987Y68431D01*
X288841Y69540D01*
X288412Y70574D01*
X287731Y71462D01*
X286843Y72143D01*
X285809Y72571D01*
X284700Y72717D01*
X283591Y72571D01*
X282557Y72143D01*
X281773Y71542D01*
X242927D01*
X242143Y72143D01*
X241170Y72546D01*
X241143Y72823D01*
X241177Y73081D01*
X241562Y73338D01*
X241949Y73917D01*
X242084Y74600D01*
X241949Y75283D01*
X241562Y75862D01*
X240983Y76249D01*
X240300Y76384D01*
X239617Y76249D01*
X239038Y75862D01*
X238877Y75620D01*
X237900D01*
X237510Y75542D01*
X237179Y75321D01*
X234301Y72443D01*
X233860Y72679D01*
X233884Y72800D01*
X233749Y73483D01*
X233362Y74062D01*
X233120Y74223D01*
Y82600D01*
X233042Y82990D01*
X232821Y83321D01*
X213727Y102414D01*
X213784Y102700D01*
X213649Y103383D01*
X213262Y103962D01*
X212683Y104349D01*
X212000Y104484D01*
D02*
G37*
G36*
X22219Y77256D02*
X11384D01*
Y72819D01*
X22219D01*
Y77256D01*
D02*
G37*
G36*
X133453Y73453D02*
X126547D01*
Y66547D01*
X133453D01*
Y73453D01*
D02*
G37*
G36*
X16700Y111384D02*
X16017Y111249D01*
X15438Y110862D01*
X15052Y110283D01*
X14916Y109600D01*
X15052Y108917D01*
X15438Y108338D01*
X16017Y107951D01*
X16700Y107816D01*
X17383Y107951D01*
X17962Y108338D01*
X18349Y108917D01*
X18484Y109600D01*
X18349Y110283D01*
X17962Y110862D01*
X17383Y111249D01*
X16700Y111384D01*
D02*
G37*
G36*
X120000Y173482D02*
X119099Y173364D01*
X118259Y173016D01*
X117537Y172462D01*
X116984Y171741D01*
X116636Y170901D01*
X116517Y170000D01*
X116636Y169099D01*
X116984Y168259D01*
X117537Y167537D01*
X118259Y166984D01*
X119099Y166636D01*
X120000Y166517D01*
X120901Y166636D01*
X121741Y166984D01*
X122462Y167537D01*
X123016Y168259D01*
X123364Y169099D01*
X123483Y170000D01*
X123364Y170901D01*
X123016Y171741D01*
X122462Y172462D01*
X121741Y173016D01*
X120901Y173364D01*
X120000Y173482D01*
D02*
G37*
G36*
X295311Y166587D02*
Y162769D01*
X299130D01*
X299046Y163404D01*
X298608Y164461D01*
X297911Y165369D01*
X297004Y166066D01*
X295946Y166504D01*
X295311Y166587D01*
D02*
G37*
G36*
X303998Y177052D02*
X300529D01*
X300601Y176508D01*
X301004Y175535D01*
X301645Y174699D01*
X302480Y174058D01*
X303453Y173655D01*
X303998Y173583D01*
Y177052D01*
D02*
G37*
G36*
X294742Y176484D02*
X293738Y176352D01*
X292802Y175964D01*
X291999Y175348D01*
X291382Y174544D01*
X290994Y173608D01*
X290862Y172604D01*
X290994Y171600D01*
X291382Y170665D01*
X291999Y169861D01*
X292802Y169244D01*
X293738Y168857D01*
X294742Y168725D01*
X295746Y168857D01*
X296682Y169244D01*
X297485Y169861D01*
X298102Y170665D01*
X298489Y171600D01*
X298621Y172604D01*
X298489Y173608D01*
X298102Y174544D01*
X297485Y175348D01*
X296682Y175964D01*
X295746Y176352D01*
X294742Y176484D01*
D02*
G37*
G36*
X294311Y161769D02*
X290493D01*
X290577Y161134D01*
X291015Y160077D01*
X291711Y159169D01*
X292619Y158472D01*
X293677Y158034D01*
X294311Y157951D01*
Y161769D01*
D02*
G37*
G36*
X198700Y157384D02*
X198017Y157248D01*
X197438Y156862D01*
X197052Y156283D01*
X196916Y155600D01*
X197052Y154917D01*
X197438Y154338D01*
X198017Y153952D01*
X198700Y153816D01*
X199383Y153952D01*
X199962Y154338D01*
X200348Y154917D01*
X200484Y155600D01*
X200348Y156283D01*
X199962Y156862D01*
X199383Y157248D01*
X198700Y157384D01*
D02*
G37*
G36*
X294311Y166587D02*
X293677Y166504D01*
X292619Y166066D01*
X291711Y165369D01*
X291015Y164461D01*
X290577Y163404D01*
X290493Y162769D01*
X294311D01*
Y166587D01*
D02*
G37*
G36*
X299130Y161769D02*
X295311D01*
Y157951D01*
X295946Y158034D01*
X297004Y158472D01*
X297911Y159169D01*
X298608Y160077D01*
X299046Y161134D01*
X299130Y161769D01*
D02*
G37*
G36*
X308466Y177052D02*
X304998D01*
Y173583D01*
X305542Y173655D01*
X306515Y174058D01*
X307350Y174699D01*
X307992Y175535D01*
X308395Y176508D01*
X308466Y177052D01*
D02*
G37*
G36*
X299130Y199769D02*
X295311D01*
Y195951D01*
X295946Y196034D01*
X297004Y196472D01*
X297911Y197169D01*
X298608Y198077D01*
X299046Y199134D01*
X299130Y199769D01*
D02*
G37*
G36*
X294311D02*
X290493D01*
X290577Y199134D01*
X291015Y198077D01*
X291711Y197169D01*
X292619Y196472D01*
X293677Y196034D01*
X294311Y195951D01*
Y199769D01*
D02*
G37*
G36*
X295311Y204587D02*
Y200769D01*
X299130D01*
X299046Y201404D01*
X298608Y202461D01*
X297911Y203369D01*
X297004Y204066D01*
X295946Y204503D01*
X295311Y204587D01*
D02*
G37*
G36*
X294311D02*
X293677Y204503D01*
X292619Y204066D01*
X291711Y203369D01*
X291015Y202461D01*
X290577Y201404D01*
X290493Y200769D01*
X294311D01*
Y204587D01*
D02*
G37*
G36*
X123453Y183453D02*
X116547D01*
Y176547D01*
X123453D01*
Y183453D01*
D02*
G37*
G36*
X130000Y183483D02*
X129099Y183364D01*
X128259Y183016D01*
X127538Y182463D01*
X126984Y181741D01*
X126636Y180901D01*
X126517Y180000D01*
X126636Y179099D01*
X126984Y178259D01*
X127538Y177538D01*
X128259Y176984D01*
X129099Y176636D01*
X130000Y176517D01*
X130901Y176636D01*
X131741Y176984D01*
X132463Y177538D01*
X133016Y178259D01*
X133364Y179099D01*
X133483Y180000D01*
X133364Y180901D01*
X133016Y181741D01*
X132463Y182463D01*
X131741Y183016D01*
X130901Y183364D01*
X130000Y183483D01*
D02*
G37*
G36*
X304998Y181521D02*
Y178052D01*
X308466D01*
X308395Y178596D01*
X307992Y179569D01*
X307350Y180405D01*
X306515Y181046D01*
X305542Y181449D01*
X304998Y181521D01*
D02*
G37*
G36*
X303998D02*
X303453Y181449D01*
X302480Y181046D01*
X301645Y180405D01*
X301004Y179569D01*
X300601Y178596D01*
X300529Y178052D01*
X303998D01*
Y181521D01*
D02*
G37*
G36*
X15226Y147158D02*
X14543Y147022D01*
X13964Y146636D01*
X13577Y146057D01*
X13442Y145374D01*
X13577Y144691D01*
X13964Y144112D01*
X14543Y143726D01*
X15226Y143590D01*
X15909Y143726D01*
X16488Y144112D01*
X16874Y144691D01*
X17010Y145374D01*
X16874Y146057D01*
X16488Y146636D01*
X15909Y147022D01*
X15226Y147158D01*
D02*
G37*
G36*
X294311Y123769D02*
X290493D01*
X290577Y123134D01*
X291015Y122077D01*
X291711Y121169D01*
X292619Y120472D01*
X293677Y120034D01*
X294311Y119951D01*
Y123769D01*
D02*
G37*
G36*
X123921Y119500D02*
X120500D01*
Y116079D01*
X121032Y116149D01*
X121993Y116547D01*
X122819Y117181D01*
X123453Y118007D01*
X123851Y118968D01*
X123921Y119500D01*
D02*
G37*
G36*
X119500Y123921D02*
X118968Y123851D01*
X118007Y123453D01*
X117181Y122819D01*
X116547Y121993D01*
X116149Y121032D01*
X116079Y120500D01*
X119500D01*
Y123921D01*
D02*
G37*
G36*
X299130Y123769D02*
X295311D01*
Y119951D01*
X295946Y120034D01*
X297004Y120472D01*
X297911Y121169D01*
X298608Y122077D01*
X299046Y123134D01*
X299130Y123769D01*
D02*
G37*
G36*
X120500Y113921D02*
Y110500D01*
X123921D01*
X123851Y111032D01*
X123453Y111993D01*
X122819Y112819D01*
X121993Y113453D01*
X121032Y113851D01*
X120500Y113921D01*
D02*
G37*
G36*
X119500D02*
X118968Y113851D01*
X118007Y113453D01*
X117181Y112819D01*
X116547Y111993D01*
X116149Y111032D01*
X116079Y110500D01*
X119500D01*
Y113921D01*
D02*
G37*
G36*
Y119500D02*
X116079D01*
X116149Y118968D01*
X116547Y118007D01*
X117181Y117181D01*
X118007Y116547D01*
X118968Y116149D01*
X119500Y116079D01*
Y119500D01*
D02*
G37*
G36*
X45000Y114321D02*
X44317Y114185D01*
X43738Y113798D01*
X43352Y113219D01*
X43216Y112536D01*
X43352Y111853D01*
X43738Y111275D01*
X44317Y110888D01*
X45000Y110752D01*
X45683Y110888D01*
X46262Y111275D01*
X46648Y111853D01*
X46784Y112536D01*
X46648Y113219D01*
X46262Y113798D01*
X45683Y114185D01*
X45000Y114321D01*
D02*
G37*
G36*
X120500Y123921D02*
Y120500D01*
X123921D01*
X123851Y121032D01*
X123453Y121993D01*
X122819Y122819D01*
X121993Y123453D01*
X121032Y123851D01*
X120500Y123921D01*
D02*
G37*
G36*
X308466Y139052D02*
X304998D01*
Y135583D01*
X305542Y135655D01*
X306515Y136058D01*
X307350Y136699D01*
X307992Y137535D01*
X308395Y138508D01*
X308466Y139052D01*
D02*
G37*
G36*
X303998D02*
X300529D01*
X300601Y138508D01*
X301004Y137535D01*
X301645Y136699D01*
X302480Y136058D01*
X303453Y135655D01*
X303998Y135583D01*
Y139052D01*
D02*
G37*
G36*
X304998Y143521D02*
Y140052D01*
X308466D01*
X308395Y140596D01*
X307992Y141569D01*
X307350Y142405D01*
X306515Y143046D01*
X305542Y143449D01*
X304998Y143521D01*
D02*
G37*
G36*
X303998D02*
X303453Y143449D01*
X302480Y143046D01*
X301645Y142405D01*
X301004Y141569D01*
X300601Y140596D01*
X300529Y140052D01*
X303998D01*
Y143521D01*
D02*
G37*
G36*
X295311Y128587D02*
Y124769D01*
X299130D01*
X299046Y125404D01*
X298608Y126461D01*
X297911Y127369D01*
X297004Y128066D01*
X295946Y128504D01*
X295311Y128587D01*
D02*
G37*
G36*
X294311D02*
X293677Y128504D01*
X292619Y128066D01*
X291711Y127369D01*
X291015Y126461D01*
X290577Y125404D01*
X290493Y124769D01*
X294311D01*
Y128587D01*
D02*
G37*
G36*
X294742Y138484D02*
X293738Y138352D01*
X292802Y137964D01*
X291999Y137348D01*
X291382Y136544D01*
X290994Y135608D01*
X290862Y134604D01*
X290994Y133600D01*
X291382Y132665D01*
X291999Y131861D01*
X292802Y131244D01*
X293738Y130857D01*
X294742Y130725D01*
X295746Y130857D01*
X296682Y131244D01*
X297485Y131861D01*
X298102Y132665D01*
X298489Y133600D01*
X298621Y134604D01*
X298489Y135608D01*
X298102Y136544D01*
X297485Y137348D01*
X296682Y137964D01*
X295746Y138352D01*
X294742Y138484D01*
D02*
G37*
G36*
X256800Y128384D02*
X256117Y128249D01*
X255538Y127862D01*
X255152Y127283D01*
X255016Y126600D01*
X255152Y125917D01*
X255538Y125338D01*
X256117Y124952D01*
X256800Y124816D01*
X257483Y124952D01*
X258062Y125338D01*
X258449Y125917D01*
X258584Y126600D01*
X258449Y127283D01*
X258062Y127862D01*
X257483Y128249D01*
X256800Y128384D01*
D02*
G37*
%LPD*%
D10*
X237900Y74600D02*
X240300D01*
X232800Y69500D02*
X237900Y74600D01*
X232800Y60300D02*
Y69500D01*
Y60300D02*
X249400Y43700D01*
X212000Y102700D02*
X232100Y82600D01*
Y72800D02*
Y82600D01*
X249400Y43700D02*
X299800D01*
X190100Y108118D02*
Y108300D01*
X162900Y112100D02*
X174200D01*
X177600Y108700D01*
X185250Y106450D02*
X187100Y108300D01*
X143550Y106450D02*
X185250D01*
X185982Y104000D02*
X190100Y108118D01*
X130000Y120000D02*
X143550Y106450D01*
X136000Y104000D02*
X185982D01*
X130000Y110000D02*
X136000Y104000D01*
X130000Y100000D02*
X185100D01*
X193300Y108200D01*
X196457Y108175D02*
Y108243D01*
X178282Y90000D02*
X196457Y108175D01*
X130000Y90000D02*
X178282D01*
X150605Y112205D02*
X152750Y114350D01*
X149953Y121653D02*
X155607Y116000D01*
X150002Y131102D02*
X163205Y117900D01*
X152248Y133352D02*
X163500Y122100D01*
X133352Y133352D02*
X152248D01*
X130000Y130000D02*
X133352Y133352D01*
X169100Y120400D02*
X195000D01*
X154648Y134852D02*
X169100Y120400D01*
X124852Y134852D02*
X154648D01*
X120000Y130000D02*
X124852Y134852D01*
X167303Y125197D02*
X175197D01*
X152500Y140000D02*
X167303Y125197D01*
X130000Y140000D02*
X152500D01*
X152641Y143953D02*
X169147Y127447D01*
X123953Y143953D02*
X152641D01*
X120000Y140000D02*
X123953Y143953D01*
X163153Y146047D02*
X174800Y134400D01*
X123953Y146047D02*
X163153D01*
X120000Y150000D02*
X123953Y146047D01*
X169147Y127447D02*
X177653D01*
X181700Y123400D01*
X194900D01*
X120000Y160000D02*
X123953Y163953D01*
X133100D01*
X130000Y170000D02*
X144750Y155250D01*
X130000Y160000D02*
X138500Y151500D01*
X133100Y163953D02*
X143303Y153750D01*
X197800Y140400D02*
X209300Y128900D01*
X194400Y140500D02*
X194500Y140400D01*
X197800D01*
X187500Y144000D02*
Y153482D01*
X147682Y193300D02*
X187500Y153482D01*
X19210Y193300D02*
X147682D01*
X6210Y180300D02*
X19210Y193300D01*
X6000Y180300D02*
X6210D01*
X187500Y144000D02*
X195300Y136200D01*
Y136000D02*
Y136200D01*
X130000Y150000D02*
X163318D01*
X186518Y126800D01*
X194800D01*
X138500Y151500D02*
X165000D01*
X170000Y146500D01*
X143303Y153750D02*
X167150D01*
X170300Y150600D01*
X144750Y155250D02*
X169250D01*
X180709Y143791D01*
Y140991D02*
Y143791D01*
X186000Y140200D02*
X193500Y132700D01*
X186000Y140200D02*
Y147700D01*
X143900Y189800D02*
X186000Y147700D01*
X39200Y189800D02*
X143900D01*
X6000Y156600D02*
X39200Y189800D01*
X6000Y140000D02*
Y156600D01*
X193218Y129800D02*
X194900D01*
X183800Y139218D02*
X193218Y129800D01*
X183800Y139218D02*
Y145000D01*
X142100Y186700D02*
X183800Y145000D01*
X68400Y186700D02*
X142100D01*
X6100Y124400D02*
X68400Y186700D01*
X227216Y117900D02*
X304567Y195252D01*
X163205Y117900D02*
X227216D01*
X263316Y116000D02*
X304567Y157252D01*
X155607Y116000D02*
X263316D01*
X299666Y114350D02*
X304567Y119252D01*
X152750Y114350D02*
X299666D01*
X5906Y104400D02*
X6100Y104595D01*
Y124400D01*
D15*
X10884Y77756D02*
D03*
Y40354D02*
D03*
D49*
X240585Y67845D02*
X284115D01*
X240000Y68431D02*
X240585Y67845D01*
Y65816D02*
X284115D01*
X240000Y65231D02*
X240585Y65816D01*
X284115D02*
X284700Y65231D01*
X284115Y67845D02*
X284700Y68431D01*
D50*
X185108Y49508D02*
X188292D01*
X228000Y49300D02*
X232000D01*
D51*
X290400Y56500D02*
X290500Y56400D01*
X290400Y56500D02*
Y60500D01*
D55*
X120000Y180000D02*
D03*
X130000Y70000D02*
D03*
D56*
X120000Y170000D02*
D03*
X120000Y160000D02*
D03*
X130000D02*
D03*
X130000Y170000D02*
D03*
X130000Y180000D02*
D03*
Y150000D02*
D03*
X130000Y140000D02*
D03*
X130000Y130000D02*
D03*
X120000D02*
D03*
X120000Y140000D02*
D03*
X130000Y120000D02*
D03*
X130000Y110000D02*
D03*
X130000Y100000D02*
D03*
X120000D02*
D03*
X120000Y110000D02*
D03*
X130000Y90000D02*
D03*
X120000D02*
D03*
X120000Y150000D02*
D03*
Y120000D02*
D03*
X130000Y50000D02*
D03*
X130000Y60000D02*
D03*
D57*
X304498Y101552D02*
D03*
X304567Y119252D02*
D03*
X304498Y139552D02*
D03*
X304567Y157252D02*
D03*
X304498Y177552D02*
D03*
X304567Y195252D02*
D03*
D58*
X294812Y124269D02*
D03*
X294742Y96604D02*
D03*
X294812Y162269D02*
D03*
X294742Y134604D02*
D03*
X294812Y200269D02*
D03*
X294742Y172604D02*
D03*
D59*
X240000Y68431D02*
D03*
Y65231D02*
D03*
X284700D02*
D03*
Y68431D02*
D03*
X185000Y160000D02*
D03*
X195000D02*
D03*
X207000D02*
D03*
Y178000D02*
D03*
X195000D02*
D03*
X185000D02*
D03*
X174000D02*
D03*
X255300Y74300D02*
D03*
X289400D02*
D03*
X283700D02*
D03*
X283800Y59600D02*
D03*
X276200Y74200D02*
D03*
X276000Y59800D02*
D03*
X246200Y78000D02*
D03*
X255200Y60200D02*
D03*
X241600Y59900D02*
D03*
X235300Y67100D02*
D03*
X232100Y72800D02*
D03*
X188292Y49508D02*
D03*
X185108D02*
D03*
X196200Y68300D02*
D03*
X232000Y49300D02*
D03*
X228000D02*
D03*
X290500Y56400D02*
D03*
X290400Y60500D02*
D03*
X240300Y74600D02*
D03*
X299800Y43700D02*
D03*
X300300Y37400D02*
D03*
X273200Y80200D02*
D03*
X181200Y156600D02*
D03*
X198700Y155600D02*
D03*
X162900Y112100D02*
D03*
X15096Y186004D02*
D03*
X15226Y145374D02*
D03*
X16700Y109600D02*
D03*
X96657Y84943D02*
D03*
X93900Y89000D02*
D03*
X45000Y112536D02*
D03*
X60000Y95700D02*
D03*
X70006Y104294D02*
D03*
X70000Y108700D02*
D03*
X187100Y108300D02*
D03*
X190100D02*
D03*
X177600Y108700D02*
D03*
X170600Y108900D02*
D03*
X196457Y108243D02*
D03*
X193300Y108200D02*
D03*
X150605Y112205D02*
D03*
X212000Y102700D02*
D03*
X209300Y128900D02*
D03*
X149953Y121653D02*
D03*
X150002Y131102D02*
D03*
X209700Y120900D02*
D03*
X163500Y122100D02*
D03*
X195000Y120400D02*
D03*
X175197Y125197D02*
D03*
X194900Y123400D02*
D03*
X174800Y134400D02*
D03*
X194800Y126800D02*
D03*
X180709Y140991D02*
D03*
X194400Y140500D02*
D03*
X6000Y180300D02*
D03*
X195300Y136000D02*
D03*
X194900Y129800D02*
D03*
X193500Y132700D02*
D03*
X170000Y146500D02*
D03*
X170300Y150600D02*
D03*
X6000Y140000D02*
D03*
X196200Y71700D02*
D03*
X10000Y210000D02*
D03*
X30000D02*
D03*
X50000D02*
D03*
X70000D02*
D03*
X90000D02*
D03*
X110000D02*
D03*
X130000D02*
D03*
X150000D02*
D03*
X170000D02*
D03*
X190000D02*
D03*
X210000D02*
D03*
X230000D02*
D03*
X250000D02*
D03*
X270000D02*
D03*
X290000D02*
D03*
X306000D02*
D03*
Y182000D02*
D03*
Y110000D02*
D03*
Y90000D02*
D03*
Y20000D02*
D03*
Y10000D02*
D03*
X290000D02*
D03*
X270000D02*
D03*
X250000D02*
D03*
X230000D02*
D03*
X210000D02*
D03*
X190000D02*
D03*
X170000D02*
D03*
X150000D02*
D03*
X130000D02*
D03*
X110000D02*
D03*
X90000D02*
D03*
X70000D02*
D03*
X50000D02*
D03*
X30000D02*
D03*
X10000D02*
D03*
Y30000D02*
D03*
Y90000D02*
D03*
X40000Y140000D02*
D03*
Y170000D02*
D03*
X8000D02*
D03*
Y134000D02*
D03*
X34000Y120000D02*
D03*
X50000D02*
D03*
X64000Y122000D02*
D03*
X72000D02*
D03*
X90000Y120000D02*
D03*
X106000D02*
D03*
Y100000D02*
D03*
Y80000D02*
D03*
Y60000D02*
D03*
Y48000D02*
D03*
X90000D02*
D03*
X70000Y46000D02*
D03*
X50000Y48000D02*
D03*
X34000D02*
D03*
Y66000D02*
D03*
X32800Y79700D02*
D03*
X33100Y100400D02*
D03*
X24000Y64000D02*
D03*
Y54000D02*
D03*
X42000Y66000D02*
D03*
X48000D02*
D03*
X79700Y65200D02*
D03*
X86000Y66000D02*
D03*
X80000Y54000D02*
D03*
X86200Y51400D02*
D03*
X96700Y49900D02*
D03*
X89400Y61300D02*
D03*
X102500Y54800D02*
D03*
X102000Y68000D02*
D03*
X86000Y72000D02*
D03*
Y86000D02*
D03*
X62000Y76000D02*
D03*
Y92000D02*
D03*
X54000D02*
D03*
X56700Y71100D02*
D03*
X48500Y70500D02*
D03*
X42300D02*
D03*
X35300Y72600D02*
D03*
X32600Y86500D02*
D03*
X32900Y93300D02*
D03*
X34000Y106000D02*
D03*
X38000Y110000D02*
D03*
X45500Y97300D02*
D03*
X44300Y89500D02*
D03*
X44200Y82700D02*
D03*
X306000Y146000D02*
D03*
X5906Y104400D02*
D03*
X256800Y126600D02*
D03*
X259200Y52200D02*
D03*
M02*
